<svg viewBox="0 0 800 800" xmlns="http://www.w3.org/2000/svg"><path d="M470.6187964284298,523.1744272254926 L470.591403055237,469.3700240031973 M449.0235142901638,469.3700240031973 L449.332744806227,470.84465524391237 M449.332744806227,470.84465524391237 L450.25094738522984,472.2339177312092 M450.25094738522984,472.2339177312092 L451.7249268220515,473.456985626283 M451.7249268220515,473.456985626283 L453.66910188064844,474.44265828297523 M453.66910188064844,474.44265828297523 L455.9704598305244,475.133525378076 M455.9704598305244,475.133525378076 L458.4951205907638,475.4893265445594 M458.4951205907638,475.4893265445594 L461.0961655606109,475.489327064431 M461.0961655606109,475.489327064431 L463.62220073307043,475.13352457832093 M463.62220073307043,475.13352457832093 L465.92622519343877,474.44265884273943 M465.92622519343877,474.44265884273943 L467.8742073901081,473.4569861060023 M467.8742073901081,473.4569861060023 L469.35291024316047,472.23391789108325 M469.35291024316047,472.23391789108325 L470.2764757579814,470.8446550840755 M470.2764757579814,470.8446550840755 L470.591403055237,469.3700240031973 M449.0983849957592,523.1744272254926 L449.0235142901638,469.3700240031973 M470.6187964284298,523.1744272254926 L470.3045658148097,524.6523922299709 M470.3045658148097,524.6523922299709 L469.3830370612434,526.0447952258471 M469.3830370612434,526.0447952258471 L467.90759343123113,527.2706273895025 M467.90759343123113,527.2706273895025 L465.9639038546681,528.2585271979358 M465.9639038546681,528.2585271979358 L463.66495581924727,528.9509536930894 M463.66495581924727,528.9509536930894 L461.14448528402636,529.3075599170676 M461.14448528402636,529.3075599170676 L458.549168892996,529.3075593960218 M458.549168892996,529.3075593960218 L456.03006672377677,528.9509544946511 M456.03006672377677,528.9509544946511 L453.73377346417476,528.2585266369069 M453.73377346417476,528.2585266369069 L451.79387427864714,527.2706269086991 M451.79387427864714,527.2706269086991 L450.32313328771687,526.0447950656119 M450.32313328771687,526.0447950656119 L449.4069438771992,524.6523923901692 M449.4069438771992,524.6523923901692 L449.0983849957592,523.1744272254926 M413.62190026097045,502.78239029210295 L413.46902196360685,449.0240676962637 M449.0983849957592,523.1744272254926 L413.62190026097045,502.78239029210295 M449.0235142901638,469.3700240031973 L413.46902196360685,449.0240676962637 M92.67444874796735,686.0521269344728 L91.80161873053356,631.8851004464411 M413.62190026097045,502.78239029210295 L92.67444874796735,686.0521269344728 M413.46902196360685,449.0240676962637 L91.80161873053356,631.8851004464411 M231.36494431576997,714.2277812230167 L222.8640436673416,718.6095800180085 M222.8640436673416,718.6095800180085 L213.58076481225132,722.4173706081202 M213.58076481225132,722.4173706081202 L203.63249370581838,725.6021801820635 M203.63249370581838,725.6021801820635 L193.1454801174669,728.1229306199397 M193.1454801174669,728.1229306199397 L182.25301426558488,729.9471069863879 M182.25301426558488,729.9471069863879 L171.0938242984526,731.0511279481578 M171.0938242984526,731.0511279481578 L159.81018539169972,731.4207165617995 M159.81018539169972,731.4207165617995 L148.5459368475181,731.0511226097568 M148.5459368475181,731.0511226097568 L137.44482153254967,729.9470896397011 M137.44482153254967,729.9470896397011 L126.64828766010123,728.1229199482237 M126.64828766010123,728.1229199482237 L116.29381233079596,725.6021775152288 M116.29381233079596,725.6021775152288 L106.51303391674332,722.4173846017449 M106.51303391674332,722.4173846017449 L97.42999612819773,718.6095866775086 M97.42999612819773,718.6095866775086 L89.15956035121849,714.227775899218 M89.15956035121849,714.227775899218 L81.80584426650591,709.3282637941751 M81.80584426650591,709.3282637941751 L75.46112501477558,703.973788727273 M75.46112501477558,703.973788727273 L70.2044742985712,698.2327946220092 M70.2044742985712,698.2327946220092 L66.10087984761958,692.1784655470993 M66.10087984761958,692.1784655470993 L63.200468214290424,685.8877700702828 M63.200468214290424,685.8877700702828 L61.53797717326677,679.4404355361131 M61.53797717326677,679.4404355361131 L61.13244997016733,672.9178849436154 M61.13244997016733,672.9178849436154 L61.9869224378881,666.4023082126645 M61.9869224378881,666.4023082126645 L64.08871501129948,659.9754583334485 M64.08871501129948,659.9754583334485 L67.40951704325926,653.7177743969481 M67.40951704325926,653.7177743969481 L71.90587718259786,647.70733502598 M71.90587718259786,647.70733502598 L77.51990553947599,642.0188750758547 M77.51990553947599,642.0188750758547 L84.17992906523943,636.722971075984 M84.17992906523943,636.722971075984 L91.80161873053356,631.8851004464411 M231.93019636446897,768.5748434209715 L231.36494431576997,714.2277812230167 M92.67444874796735,686.0521269344728 L85.07011508878014,690.9006439379867 M85.07011508878014,690.9006439379867 L78.42534779605194,696.2081924337868 M78.42534779605194,696.2081924337868 L72.82428148604953,701.9091485639451 M72.82428148604953,701.9091485639451 L68.33842161359917,707.9327785326761 M68.33842161359917,707.9327785326761 L65.02552001816656,714.2041815962377 M65.02552001816656,714.2041815962377 L62.92892125707954,720.6451065275411 M62.92892125707954,720.6451065275411 L62.07686231327256,727.1749371629503 M62.07686231327256,727.1749371629503 L62.48198365377834,733.7117413225325 M62.48198365377834,733.7117413225325 L64.14124544665503,740.1731497227142 M64.14124544665503,740.1731497227142 L67.03563657379084,746.4775624453688 M67.03563657379084,746.4775624453688 L71.13048715598262,752.5450796498899 M71.13048715598262,752.5450796498899 L76.37577394698712,758.298566931141 M76.37577394698712,758.298566931141 L82.70664703858728,763.6646831628586 M82.70664703858728,763.6646831628586 L90.04420555537314,768.574838085613 M90.04420555537314,768.574838085613 L98.2963743945594,772.9661596633123 M98.2963743945594,772.9661596633123 L107.35926615496487,776.7822167636566 M107.35926615496487,776.7822167636566 L117.11827554958944,779.9739134617093 M117.11827554958944,779.9739134617093 L127.4496372357421,782.5001175571856 M127.4496372357421,782.5001175571856 L138.22200980151234,784.328238202021 M138.22200980151234,784.328238202021 L149.29822758083884,785.4346617947625 M149.29822758083884,785.4346617947625 L160.53716384743808,785.8050559488413 M160.53716384743808,785.8050559488413 L171.79540325020156,785.434667144722 M171.79540325020156,785.434667144722 L182.92943479509972,784.3282555862731 M182.92943479509972,784.3282555862731 L193.79730838562944,782.5001282520188 M193.79730838562944,782.5001282520188 L204.26061297651253,779.9739161343233 M204.26061297651253,779.9739161343233 L214.18636295779004,776.7822027396895 M214.18636295779004,776.7822027396895 L223.44859684617657,772.966152989363 M223.44859684617657,772.966152989363 L231.93019636446897,768.5748434209715 M552.9099617544772,582.845770742267 L553.0648782033229,528.90739623871 M231.93019636446897,768.5748434209715 L552.9099617544772,582.845770742267 M231.36494431576997,714.2277812230167 L553.0648782033229,528.90739623871 M517.0825556801915,562.2520227044872 L517.1579119249469,508.35973772331363 M552.9099617544772,582.845770742267 L517.0825556801915,562.2520227044872 M553.0648782033229,528.90739623871 L517.1579119249469,508.35973772331363 M517.1228854381836,495.9702424919167 L514.53688347671,496.1500695052939 M514.53688347671,496.1500695052939 L512.1019647596859,496.67912714204556 M512.1019647596859,496.67912714204556 L509.9594714759887,497.52675711536267 M509.9594714759887,497.52675711536267 L508.2338370360819,498.64381909706776 M508.2338370360819,498.64381909706776 L507.02537580671253,499.96552259595114 M507.02537580671253,499.96552259595114 L506.4044470236867,501.4151613205129 M506.4044470236867,501.4151613205129 L506.40734104322877,502.9085500934899 M506.40734104322877,502.9085500934899 L507.0341127853801,504.35889610747415 M507.0341127853801,504.35889610747415 L508.2485433826348,505.68185337596685 M508.2485433826348,505.68185337596685 L509.980177716386,506.80042625884937 M509.980177716386,506.80042625884937 L512.1284095984682,507.6494795338074 M512.1284095984682,507.6494795338074 L514.5683113675537,508.17954778168485 M514.5683113675537,508.17954778168485 L517.1579119249469,508.35973772331363 M517.0476836496202,549.834662323345 L517.1228854381836,495.9702424919167 M517.0825556801915,562.2520227044872 L514.4986750741327,562.0714279020345 M514.4986750741327,562.0714279020345 L512.0641643570789,561.5401685981738 M512.0641643570789,561.5401685981738 L509.92068056169995,560.6892072975792 M509.92068056169995,560.6892072975792 L508.1928750519718,559.5681203104697 M508.1928750519718,559.5681203104697 L506.98113162470435,558.2421889711019 M506.98113162470435,558.2421889711019 L506.35574978571645,556.7885817726674 M506.35574978571645,556.7885817726674 L506.3528685259128,555.2918342249981 M506.3528685259128,555.2918342249981 L506.9724331765446,553.8389343414258 M506.9724331765446,553.8389343414258 L508.17823355377703,552.5142568194647 M508.17823355377703,552.5142568194647 L509.90006562768446,551.3946807879602 M509.90006562768446,551.3946807879602 L512.0378361313973,550.5451428407387 M512.0378361313973,550.5451428407387 L514.4673857713794,550.014894187373 M514.4673857713794,550.014894187373 L517.0476836496202,549.834662323345 M645.0008944371613,422.63035763248115 L517.1228854381836,495.9702424919167 M644.6457428013666,476.3286760853664 L645.0008944371613,422.63035763248115 M517.0476836496202,549.834662323345 L644.6457428013666,476.3286760853664 M506.0219582339778,344.1407021177424 L645.0008944371613,422.63035763248115 M505.9718839806659,397.6590704131977 L506.0219582339778,344.1407021177424 M644.6457428013666,476.3286760853664 L505.9718839806659,397.6590704131977 M460.0492396961378,423.76777607065213 L459.998946321246,370.1894363399267 M505.9718839806659,397.6590704131977 L460.0492396961378,423.76777607065213 M506.0219582339778,344.1407021177424 L459.998946321246,370.1894363399267 M541.548808104136,470.2045361717462 L541.6773301503267,416.52014525627135 M460.0492396961378,423.76777607065213 L541.548808104136,470.2045361717462 M459.998946321246,370.1894363399267 L541.6773301503267,416.52014525627135 M541.7371968319299,428.74681350405785 L544.308338305874,428.56899201790316 M544.308338305874,428.56899201790316 L546.728097094418,428.04589513738847 M546.728097094418,428.04589513738847 L548.8556808511264,427.20800224544337 M548.8556808511264,427.20800224544337 L550.5673537310091,426.10413436706426 M550.5673537310091,426.10413436706426 L551.7636727048639,424.79856847622705 M551.7636727048639,424.79856847622705 L552.3752403040697,423.3672857738308 M552.3752403040697,423.3672857738308 L552.3667091251228,421.89352518502267 M552.3667091251228,421.89352518502267 L551.7388145007528,420.46293234579025 M551.7388145007528,420.46293234579025 L550.5282234351743,419.15859488092656 M550.5282234351743,419.15859488092656 L548.8054329093652,418.05620876843057 M548.8054329093652,418.05620876843057 L546.6705861123379,417.2197140667537 M546.6705861123379,417.2197140667537 L544.2476666810262,416.6976082601627 M544.2476666810262,416.6976082601627 L541.6773301503267,416.52014525627135 M541.6084125411693,482.4590600109285 L541.7371968319299,428.74681350405785 M541.548808104136,470.2045361717462 L544.1135093780517,470.382403875549 M544.1135093780517,470.382403875549 L546.5311124778993,470.90570026429987 M546.5311124778993,470.90570026429987 L548.6612701245317,471.7441022553412 M548.6612701245317,471.7441022553412 L550.3802708323342,472.8490015235243 M550.3802708323342,472.8490015235243 L551.5881917641286,474.1563119653108 M551.5881917641286,474.1563119653108 L552.214691703838,475.59016483785774 M552.214691703838,475.59016483785774 L552.2231855198373,477.06728304562137 M552.2231855198373,477.06728304562137 L551.612941066543,478.5018258285072 M551.612941066543,478.5018258285072 L550.4192297141865,479.8103647951632 M550.4192297141865,479.8103647951632 L548.7112979490056,480.9167459485201 M548.7112979490056,480.9167459485201 L546.588371515578,481.75654624796687 M546.588371515578,481.75654624796687 L544.1739152272255,482.2808337932154 M544.1739152272255,482.2808337932154 L541.6084125411693,482.4590600109285 M541.6084125411693,482.4590600109285 L470.6187964284298,523.1744272254926 M541.7371968319299,428.74681350405785 L470.591403055237,469.3700240031973 M186.21043287578277,713.298074507639 L190.32182067522086,716.2693167498647 M190.32182067522086,716.2693167498647 L193.3502348912606,719.6609467749199 M193.3502348912606,719.6609467749199 L195.17864833210922,723.3431882443597 M195.17864833210922,723.3431882443597 L195.73576574411385,727.17494246254 M195.73576574411385,727.17494246254 L194.9989985162817,731.0090970609034 M194.9989985162817,731.0090970609034 L192.99552664600944,734.6981514447143 M192.99552664600944,734.6981514447143 L189.801332682965,738.0999663239487 M189.801332682965,738.0999663239487 L185.53853124996567,741.0832224781595 M185.53853124996567,741.0832224781595 L180.37067033336425,743.5326185455507 M180.37067033336425,743.5326185455507 L174.49665685409127,745.3533058100826 M174.49665685409127,745.3533058100826 L168.14288534891037,746.4747461616355 M168.14288534891037,746.4747461616355 L161.55452617734397,746.8534568488798 M161.55452617734397,746.8534568488798 L154.98596651062212,746.4747368581992 M154.98596651062212,746.4747368581992 L148.6907655156313,745.3533001625971 M148.6907655156313,745.3533001625971 L142.91185194579003,743.5326175492305 M142.91185194579003,743.5326175492305 L137.87198679264424,741.0832224781595 M137.87198679264424,741.0832224781595 L133.76499190259483,738.0999699738978 M133.76499190259483,738.0999699738978 L130.74851231697136,734.6981491233039 M130.74851231697136,734.6981491233039 L128.93775815398158,731.0090877808333 M128.93775815398158,731.0090877808333 L128.401283723309,727.1749530617192 M128.401283723309,727.1749530617192 L129.15856907422676,723.3432001610012 M129.15856907422676,723.3432001610012 L131.17932606966212,719.6609550454052 M131.17932606966212,719.6609550454052 L134.3849222692353,716.2693309672433 M134.3849222692353,716.2693309672433 L138.65154402987093,713.298074507639 M138.65154402987093,713.298074507639 L143.8149567117261,710.8607205467521 M143.8149567117261,710.8607205467521 L149.67703562000375,709.0502241141969 M149.67703562000375,709.0502241141969 L156.01316627219214,707.9355930546046 M156.01316627219214,707.9355930546046 L162.58088236312815,707.5592629110545 M162.58088236312815,707.5592629110545 L169.1289239086837,707.9355811678364 M169.1289239086837,707.9355811678364 L175.40682131370437,709.0502191604768 M175.40682131370437,709.0502191604768 L181.17433262787105,710.8607109667337 M181.17433262787105,710.8607109667337 L186.21043287578277,713.298074507639 M186.21043287578277,713.298074507639 L185.54526534882774,659.0713325310321 M185.54526534882774,659.0713325310321 L180.49801412398145,656.6392999933943 M180.49801412398145,656.6392999933943 L174.71768264270946,654.8327694971002 M174.71768264270946,654.8327694971002 L168.42578574473544,653.7205708979501 M168.42578574473544,653.7205708979501 L161.86309891848003,653.3450763186656 M161.86309891848003,653.3450763186656 L155.2806493447474,653.7205827587015 M155.2806493447474,653.7205827587015 L148.9302580293149,654.83277443998 M148.9302580293149,654.83277443998 L143.05493473136346,656.6393095524552 M143.05493473136346,656.6393095524552 L137.87979986423449,659.0713325310321 M137.87979986423449,659.0713325310321 L133.60342730743656,662.0360931839085 M133.60342730743656,662.0360931839085 L130.39042745714988,665.4203063724482 M130.39042745714988,665.4203063724482 L128.36490128280076,669.0945103201628 M128.36490128280076,669.0945103201628 L127.60566886637105,672.9179008076978 M127.60566886637105,672.9179008076978 L128.14309844574245,676.743673269879 M128.14309844574245,676.743673269879 L129.95767846991976,680.4246938166473 M129.95767846991976,680.4246938166473 L132.98071221224575,683.8191043443607 M132.98071221224575,683.8191043443607 L137.09674085730666,686.7958617800015 M137.09674085730666,686.7958617800015 L142.1477732324925,689.2399265086459 M142.1477732324925,689.2399265086459 L147.93955758845703,691.0566483919262 M147.93955758845703,691.0566483919262 L154.24883536249453,692.1756461046456 M154.24883536249453,692.1756461046456 L160.83213237748186,692.5535425307762 M160.83213237748186,692.5535425307762 L167.43531794222193,692.1756553878499 M167.43531794222193,692.1756553878499 L173.8034297541796,691.0566540271282 M173.8034297541796,691.0566540271282 L179.690741833002,689.2399275027983 M179.690741833002,689.2399275027983 L184.87034554212136,686.7958617800015 M184.87034554212136,686.7958617800015 L189.14288139951498,683.81910070236 M189.14288139951498,683.81910070236 L192.3444283942464,680.4246961329992 M192.3444283942464,680.4246961329992 L194.3525921995291,676.7436825297157 M194.3525921995291,676.7436825297157 L195.09121442551483,672.9178902316429 M195.09121442551483,672.9178902316429 L194.5330489551037,669.0944984295365 M194.5330489551037,669.0944984295365 L192.70072996770534,665.4202981200292 M192.70072996770534,665.4202981200292 L189.66570738473308,662.0360789976046 M189.66570738473308,662.0360789976046 L185.54526534882774,659.0713325310321" stroke="black"  stroke-width="4"  fill="red"/>
<path d="M517.1984205252709,441.867092545629 L517.1228854381836,495.9702424919167 M517.1579119249469,508.35973772331363 L514.5683113675537,508.17954778168485 M514.5683113675537,508.17954778168485 L512.1284095984682,507.6494795338074 M512.1284095984682,507.6494795338074 L509.980177716386,506.80042625884937 M509.980177716386,506.80042625884937 L508.2485433826348,505.68185337596685 M508.2485433826348,505.68185337596685 L507.0341127853801,504.35889610747415 M507.0341127853801,504.35889610747415 L506.40734104322877,502.9085500934899 M506.40734104322877,502.9085500934899 L506.4044470236867,501.4151613205129 M506.4044470236867,501.4151613205129 L507.02537580671253,499.96552259595114 M507.02537580671253,499.96552259595114 L508.2338370360819,498.64381909706776 M508.2338370360819,498.64381909706776 L509.9594714759887,497.52675711536267 M509.9594714759887,497.52675711536267 L512.1019647596859,496.67912714204556 M512.1019647596859,496.67912714204556 L514.53688347671,496.1500695052939 M514.53688347671,496.1500695052939 L517.1228854381836,495.9702424919167 M517.2336024967165,454.2283531589469 L517.1579119249469,508.35973772331363 M517.1984205252709,441.867092545629 L514.6066892043532,442.04650934575955 M514.6066892043532,442.04650934575955 L512.1663776263804,442.5743601889359 M512.1663776263804,442.5743601889359 L510.01914064839093,443.4200569112585 M510.01914064839093,443.4200569112585 L508.2896870108873,444.5345715313247 M508.2896870108873,444.5345715313247 L507.0785531594925,445.85326159262513 M507.0785531594925,445.85326159262513 L506.4562542236981,447.2995959284382 M506.4562542236981,447.2995959284382 L506.45916108793824,448.78958139222846 M506.45916108793824,448.78958139222846 L507.087328925241,450.2366229707699 M507.087328925241,450.2366229707699 L508.30445863760457,451.5565667162065 M508.30445863760457,451.5565667162065 L510.03993880315494,452.67259213761963 M510.03993880315494,452.67259213761963 L512.1929398547634,453.51971206708026 M512.1929398547634,453.51971206708026 L514.6382566061163,454.04857345164453 M514.6382566061163,454.04857345164453 L517.2336024967165,454.2283531589469 M588.500383353015,401.15773367991164 L588.2679864727695,455.1674996353935 M588.500383353015,401.15773367991164 L517.1984205252709,441.867092545629 M588.2679864727695,455.1674996353935 L517.1228854381836,495.9702424919167 M609.8104071374653,455.1675034614924 L609.4819381937624,453.6967117096194 M609.4819381937624,453.6967117096194 L608.5468006957319,452.3117227008577 M608.5468006957319,452.3117227008577 L607.0595013275556,451.0929487079686 M607.0595013275556,451.0929487079686 L605.1065597045008,450.1110968905983 M605.1065597045008,450.1110968905983 L602.80144510402,449.4230982431249 M602.80144510402,449.4230982431249 L600.2779893080784,449.06883969637977 M600.2779893080784,449.06883969637977 L597.682657103199,449.0688371482356 M597.682657103199,449.0688371482356 L595.1660478625066,449.42309951727214 M595.1660478625066,449.42309951727214 L592.8742167154888,450.11109561630497 M592.8742167154888,450.11109561630497 L590.9402321154353,451.092947433467 M590.9402321154353,451.092947433467 L589.4764596792944,452.31172397561784 M589.4764596792944,452.31172397561784 L588.5680604731804,453.6967091595112 M588.5680604731804,453.6967091595112 L588.2679864727695,455.1674996353935 M692.6586783489157,502.1618115975632 L609.8104071374653,455.1675034614924 M738.6760733675869,475.5342920371985 L692.6586783489157,502.1618115975632 M598.4714185340921,396.3524004492863 L738.6760733675869,475.5342920371985 M470.591403055237,469.3700240031973 L598.4714185340921,396.3524004492863 M449.0235142901638,469.3700240031973 L449.332744806227,470.84465524391237 M449.332744806227,470.84465524391237 L450.25094738522984,472.2339177312092 M450.25094738522984,472.2339177312092 L451.7249268220515,473.456985626283 M451.7249268220515,473.456985626283 L453.66910188064844,474.44265828297523 M453.66910188064844,474.44265828297523 L455.9704598305244,475.133525378076 M455.9704598305244,475.133525378076 L458.4951205907638,475.4893265445594 M458.4951205907638,475.4893265445594 L461.0961655606109,475.489327064431 M461.0961655606109,475.489327064431 L463.62220073307043,475.13352457832093 M463.62220073307043,475.13352457832093 L465.92622519343877,474.44265884273943 M465.92622519343877,474.44265884273943 L467.8742073901081,473.4569861060023 M467.8742073901081,473.4569861060023 L469.35291024316047,472.23391789108325 M469.35291024316047,472.23391789108325 L470.2764757579814,470.8446550840755 M470.2764757579814,470.8446550840755 L470.591403055237,469.3700240031973 M413.4690219636068,449.0240676962637 L449.0235142901638,469.3700240031973 M413.4690219636068,449.0240676962637 L331.2130898019883,575.7133375854446 M331.2130898019883,575.7133375854446 L553.0648782033229,528.90739623871 M517.1579119249469,508.35973772331363 L553.0648782033229,528.90739623871 M553.2204831301979,474.7293093866166 L553.0648782033229,528.90739623871 M517.2336024967165,454.2283531589469 L553.2204831301979,474.7293093866166 M588.500383353015,401.15773367991164 L588.8010914526647,399.69032075785043 M588.8010914526647,399.69032075785043 L589.7114693831527,398.30851680794945 M589.7114693831527,398.30851680794945 L591.1784494448555,397.0925403096536 M591.1784494448555,397.0925403096536 L593.1166837720918,396.1129446164913 M593.1166837720918,396.1129446164913 L595.4135598918388,395.4265296229909 M595.4135598918388,395.4265296229909 L597.9357167089455,395.0730814631797 M597.9357167089455,395.0730814631797 L600.5367775715118,395.0730840054673 M600.5367775715118,395.0730840054673 L603.0658111875498,395.42652835177205 M603.0658111875498,395.42652835177205 L605.3760294698408,396.11294588785614 M605.3760294698408,396.11294588785614 L607.333304610564,397.09254158122684 M607.333304610564,397.09254158122684 L608.8239156133375,398.3085155361175 M608.8239156133375,398.3085155361175 L609.7611500482767,399.6903233021019 M609.7611500482767,399.6903233021019 L610.09037864263,401.1577374972253 M330.8744315483272,521.4294446932182 L553.2204831301979,474.7293093866166 M413.31546874496956,395.02841490912874 L330.8744315483272,521.4294446932182 M413.31546874496956,395.02841490912874 L448.9483124870799,415.32768389174646 M470.5638885415127,415.32768389174635 L470.24826146444866,416.7989370760058 M470.24826146444866,416.7989370760058 L469.32265016476714,418.18501826668006 M469.32265016476714,418.18501826668006 L467.8406736570726,419.40528606119847 M467.8406736570726,419.40528606119847 L465.8883798370846,420.3887023336094 M465.8883798370846,420.3887023336094 L463.57925648214666,421.0779867080661 M463.57925648214666,421.0779867080661 L461.0476320460458,421.4329748463011 M461.0476320460458,421.4329748463011 L458.4408331512215,421.4329743276195 M458.4408331512215,421.4329743276195 L455.91058921372735,421.0779875059905 M455.91058921372735,421.0779875059905 L453.6041441819222,420.3887017751265 M453.6041441819222,420.3887017751265 L451.65567435829183,419.4052855825774 M451.65567435829183,419.4052855825774 L450.1784421819872,418.18501810717214 M450.1784421819872,418.18501810717214 L449.2582175676005,416.7989372354768 M449.2582175676005,416.7989372354768 L448.9483124870799,415.32768389174646 M598.7250983285128,342.47831712449636 L470.5638885415127,415.32768389174635 M739.241592855127,421.477836908168 L598.7250983285128,342.47831712449636 M739.241592855127,421.477836908168 L693.1234277652932,448.0445445491812 M693.1234277652932,448.0445445491812 L610.09037864263,401.1577374972253 M610.09037864263,401.1577374972253 L609.8104071374653,455.1675034614924 M693.1234277652932,448.0445445491812 L692.6586783489157,502.1618115975632 M739.241592855127,421.477836908168 L738.6760733675869,475.5342920371985 M598.7250983285128,342.47831712449636 L598.4714185340921,396.3524004492863 M470.5638885415127,415.32768389174635 L470.591403055237,469.3700240031973 M448.9483124870799,415.32768389174646 L449.0235142901638,469.3700240031973 M413.31546874496956,395.02841490912874 L413.4690219636068,449.0240676962637 M330.8744315483272,521.4294446932182 L331.2130898019883,575.7133375854446" stroke="black"  stroke-width="4"  fill="red"/>
<path d="M470.5638885415127,415.32768389174635 L470.5362520979133,361.0458565100603 M448.87277742909805,361.0458565100604 L449.1833600227271,362.513687498662 M449.1833600227271,362.513687498662 L450.10561559692894,363.8965448701972 M450.10561559692894,363.8965448701972 L451.58611489925624,365.1139750518039 M451.58611489925624,365.1139750518039 L453.53889850286697,366.0951050631904 M453.53889850286697,366.0951050631904 L455.8504531541202,366.7827886008355 M455.8504531541202,366.7827886008355 L458.38630501533817,367.13695035052945 M458.38630501533817,367.13695035052945 L460.9988833465415,367.13695086800567 M460.9988833465415,367.13695086800567 L463.53612183327397,366.7827878047657 M463.53612183327397,366.7827878047657 L465.8503666989526,366.09510562037497 M465.8503666989526,366.09510562037497 L467.8069912694324,365.11397552931214 M467.8069912694324,365.11397552931214 L469.29225595753195,363.8965450293341 M469.29225595753195,363.8965450293341 L470.21992212458946,362.513687339562 M470.21992212458946,362.513687339562 L470.5362520979133,361.0458565100603 M448.9483124870799,415.32768389174646 L448.87277742909805,361.0458565100604 M470.5638885415127,415.32768389174635 L470.24826146444866,416.7989370760058 M470.24826146444866,416.7989370760058 L469.32265016476714,418.18501826668006 M469.32265016476714,418.18501826668006 L467.8406736570726,419.40528606119847 M467.8406736570726,419.40528606119847 L465.8883798370846,420.3887023336094 M465.8883798370846,420.3887023336094 L463.57925648214666,421.0779867080661 M463.57925648214666,421.0779867080661 L461.0476320460458,421.4329748463011 M461.0476320460458,421.4329748463011 L458.4408331512215,421.4329743276195 M458.4408331512215,421.4329743276195 L455.91058921372735,421.0779875059905 M455.91058921372735,421.0779875059905 L453.6041441819222,420.3887017751265 M453.6041441819222,420.3887017751265 L451.65567435829183,419.4052855825774 M451.65567435829183,419.4052855825774 L450.1784421819872,418.18501810717214 M450.1784421819872,418.18501810717214 L449.2582175676005,416.7989372354768 M449.2582175676005,416.7989372354768 L448.9483124870799,415.32768389174646 M541.8665487126941,374.79784143064734 L541.996471868792,320.61060674485327 M541.8665487126941,374.79784143064734 L470.5638885415127,415.32768389174635 M541.996471868792,320.61060674485327 L470.5362520979133,361.0458565100603 M459.89769642839696,262.32629992405145 L541.9360754789302,308.44074736290156 M541.9360754789302,308.44074736290156 L544.517757143075,308.6173850350006 M544.517757143075,308.6173850350006 L546.951379691054,309.13706280450504 M546.951379691054,309.13706280450504 L549.0956669962832,309.9696678298481 M549.0956669962832,309.9696678298481 L550.8260875111314,311.06692866228565 M550.8260875111314,311.06692866228565 L552.0420544145227,312.36520307368653 M552.0420544145227,312.36520307368653 L552.6727571170458,313.78914741135037 M552.6727571170458,313.78914741135037 L552.6813637654236,315.2560604512945 M552.6813637654236,315.2560604512945 L552.0671325894308,316.680694494823 M552.0671325894308,316.680694494823 L550.8655640463958,317.9801970223235 M550.8655640463958,317.9801970223235 L549.146359553381,319.0789392468662 M549.146359553381,319.0789392468662 L547.0093995761904,319.9129420986356 M547.0093995761904,319.9129420986356 L544.5789656086986,320.43361068649165 M544.5789656086986,320.43361068649165 L541.996471868792,320.61060674485327 M448.87277742909805,361.0458565100604 L413.1612362150872,340.7938882354854 M330.5342592129747,466.9028580308533 L413.1612362150872,340.7938882354854 M553.3767810443744,420.3099401602029 L330.5342592129747,466.9028580308533 M553.3767810443744,420.3099401602029 L517.3096295813291,399.856305778909 M517.3096295813291,399.856305778909 L514.7085128096719,399.67694173894586 M514.7085128096719,399.67694173894586 L512.2577569892767,399.1493032000808 M512.2577569892767,399.1493032000808 L510.0999655473613,398.30414221635965 M510.0999655473613,398.30414221635965 L508.36062243089725,397.1906979830055 M508.36062243089725,397.1906979830055 L507.1407815800484,395.87380764958607 M507.1407815800484,395.87380764958607 L506.51121141494946,394.43011423625023 M506.51121141494946,394.43011423625023 L506.50829162030277,392.94357710904626 M506.50829162030277,392.94357710904626 L507.1319667683855,391.5005908701133 M507.1319667683855,391.5005908701133 L508.34578508840536,390.18495409701285 M508.34578508840536,390.18495409701285 L510.0790748648893,389.07302051896664 M510.0790748648893,389.07302051896664 L512.2310765879525,388.2292826043514 M512.2310765879525,388.2292826043514 L514.67680496603,387.7026545062288 M514.67680496603,387.7026545062288 L517.2742910876503,387.52365334125756 M517.2742910876503,387.52365334125756 L645.7159012317856,314.52255610759374 M645.7159012317856,314.52255610759374 L506.12276554665954,236.39984668508862 M506.12276554665954,236.39984668508862 L459.89769642839696,262.32629992405145 M413.31546874496956,395.02841490912874 L413.1612362150872,340.7938882354854 M448.9483124870799,415.32768389174646 L413.31546874496956,395.02841490912874 M541.8665487126941,374.79784143064734 L544.4433538175068,374.6204299781931 M544.4433538175068,374.6204299781931 L546.8684384486385,374.0985393596933 M546.8684384486385,374.0985393596933 L549.0007000090452,373.2625788588257 M549.0007000090452,373.2625788588257 L550.7161304294625,372.16125716954264 M550.7161304294625,372.16125716954264 L551.915068442335,370.8587032825802 M551.915068442335,370.8587032825802 L552.5279649368485,369.4307233370921 M552.5279649368485,369.4307233370921 L552.5193961478296,367.9603643100676 M552.5193961478296,367.9603643100676 L551.8901006161605,366.5330741597076 M551.8901006161605,366.5330741597076 L550.6768275857975,365.2317485626792 M550.6768275857975,365.2317485626792 L548.9502304939895,364.1319084751849 M548.9502304939895,364.1319084751849 L546.8106738556002,363.2973460041729 M546.8106738556002,363.2973460041729 L544.38241465897,362.77644634705644 M544.38241465897,362.77644634705644 L541.8064180518743,362.59939333437956 M459.94843237361766,316.37611693165115 L541.8064180518743,362.59939333437956 M506.07225161853796,290.3881306923847 L459.94843237361766,316.37611693165115 M506.07225161853796,290.3881306923847 L645.3576105297959,368.69549598750757 M517.1984205252709,441.867092545629 L645.3576105297959,368.69549598750757 M517.1984205252709,441.867092545629 L514.6066892043532,442.04650934575955 M514.6066892043532,442.04650934575955 L512.1663776263804,442.5743601889359 M512.1663776263804,442.5743601889359 L510.01914064839093,443.4200569112585 M510.01914064839093,443.4200569112585 L508.2896870108873,444.5345715313247 M508.2896870108873,444.5345715313247 L507.0785531594925,445.85326159262513 M507.0785531594925,445.85326159262513 L506.4562542236981,447.2995959284382 M506.4562542236981,447.2995959284382 L506.45916108793824,448.78958139222846 M506.45916108793824,448.78958139222846 L507.087328925241,450.2366229707699 M507.087328925241,450.2366229707699 L508.30445863760457,451.5565667162065 M508.30445863760457,451.5565667162065 L510.03993880315494,452.67259213761963 M510.03993880315494,452.67259213761963 L512.1929398547634,453.51971206708026 M512.1929398547634,453.51971206708026 L514.6382566061163,454.04857345164453 M514.6382566061163,454.04857345164453 L517.2336024967165,454.2283531589469 M553.2204831301979,474.7293093866166 L517.2336024967165,454.2283531589469 M553.2204831301979,474.7293093866166 L330.8744315483272,521.4294446932182 M330.8744315483272,521.4294446932182 L413.31546874496956,395.02841490912874 M541.8064180518743,362.59939333437956 L541.9360754789302,308.44074736290156 M459.94843237361766,316.37611693165115 L459.89769642839696,262.32629992405145 M506.07225161853796,290.3881306923847 L506.12276554665954,236.39984668508862 M645.3576105297959,368.69549598750757 L645.7159012317856,314.52255610759374 M517.1984205252709,441.867092545629 L517.2742910876503,387.52365334125756 M517.2336024967165,454.2283531589469 L517.3096295813291,399.856305778909 M553.2204831301979,474.7293093866166 L553.3767810443744,420.3099401602029 M330.8744315483272,521.4294446932182 L330.5342592129747,466.9028580308533" stroke="black"  stroke-width="4"  fill="red"/>
<path d="M517.3504994240848,332.93827835517664 L517.2742910876503,387.52365334125756 M517.3096295813291,399.856305778909 L514.7085128096719,399.67694173894586 M514.7085128096719,399.67694173894586 L512.2577569892767,399.1493032000808 M512.2577569892767,399.1493032000808 L510.0999655473613,398.30414221635965 M510.0999655473613,398.30414221635965 L508.36062243089725,397.1906979830055 M508.36062243089725,397.1906979830055 L507.1407815800484,395.87380764958607 M507.1407815800484,395.87380764958607 L506.51121141494946,394.43011423625023 M506.51121141494946,394.43011423625023 L506.50829162030277,392.94357710904626 M506.50829162030277,392.94357710904626 L507.1319667683855,391.5005908701133 M507.1319667683855,391.5005908701133 L508.34578508840536,390.18495409701285 M508.34578508840536,390.18495409701285 L510.0790748648893,389.07302051896664 M510.0790748648893,389.07302051896664 L512.2310765879525,388.2292826043514 M512.2310765879525,388.2292826043514 L514.67680496603,387.7026545062288 M514.67680496603,387.7026545062288 L517.2742910876503,387.52365334125756 M517.3859954869213,345.2419448806071 L517.3096295813291,399.856305778909 M517.3504994240848,332.93827835517664 L514.7472328862034,333.11685840245764 M514.7472328862034,333.11685840245764 L512.2960636049077,333.64224762570063 M512.2960636049077,333.64224762570063 L510.1392759418578,334.4840008901366 M510.1392759418578,334.4840008901366 L508.40213296905983,335.59331936915214 M508.40213296905983,335.59331936915214 L507.18561825279147,336.9058625577544 M507.18561825279147,336.9058625577544 L506.5605607915477,338.3454565027865 M506.5605607915477,338.3454565027865 L506.5634936030833,339.82849976228624 M506.5634936030833,339.82849976228624 L507.1944723715406,341.26880079138095 M507.1944723715406,341.26880079138095 L508.4170364668721,342.5825973774612 M508.4170364668721,342.5825973774612 L510.16025977092033,343.6934263187178 M510.16025977092033,343.6934263187178 L512.3228629695908,344.53660246992627 M512.3228629695908,344.53660246992627 L514.7790821110938,345.0630020018112 M514.7790821110938,345.0630020018112 L517.3859954869213,345.2419448806071 M588.9682700582043,292.4193916923871 L588.7338088729222,346.9089086315071 M588.9682700582043,292.4193916923871 L517.3504994240848,332.93827835517664 M588.7338088729222,346.9089086315071 L517.2742910876503,387.52365334125756 M610.3715893632015,346.9089124399201 L610.0415976038685,345.4449201419095 M610.0415976038685,345.4449201419095 L609.1022568096488,344.0663353721664 M609.1022568096488,344.0663353721664 L607.6083193942817,342.8531981976839 M607.6083193942817,342.8531981976839 L605.6466914634256,341.87588822812427 M605.6466914634256,341.87588822812427 L603.3313468515577,341.1910725444187 M603.3313468515577,341.1910725444187 L600.7967107047,340.8384530783148 M600.7967107047,340.8384530783148 L598.1898958410757,340.83845054196064 M598.1898958410757,340.83845054196064 L595.6621669377242,341.1910738126709 M595.6621669377242,341.1910738126709 L593.3602235875364,341.87588695972624 M593.3602235875364,341.87588695972624 L591.4177208173843,342.8531969290774 M591.4177208173843,342.8531969290774 L589.947519043279,344.0663366410314 M589.947519043279,344.0663366410314 L589.0351537516566,345.44491760359176 M589.0351537516566,345.44491760359176 L588.7338088729222,346.9089086315071 M693.5902423460572,393.68680156113214 L610.3715893632015,346.9089124399201 M739.8096197179159,367.1817086633181 L693.5902423460572,393.68680156113214 M598.9798954449683,288.3669476549851 L739.8096197179159,367.1817086633181 M470.5362520979133,361.0458565100603 L598.9798954449683,288.3669476549851 M448.87277742909805,361.0458565100604 L449.1833600227271,362.513687498662 M449.1833600227271,362.513687498662 L450.10561559692894,363.8965448701972 M450.10561559692894,363.8965448701972 L451.58611489925624,365.1139750518039 M451.58611489925624,365.1139750518039 L453.53889850286697,366.0951050631904 M453.53889850286697,366.0951050631904 L455.8504531541202,366.7827886008355 M455.8504531541202,366.7827886008355 L458.38630501533817,367.13695035052945 M458.38630501533817,367.13695035052945 L460.9988833465415,367.13695086800567 M460.9988833465415,367.13695086800567 L463.53612183327397,366.7827878047657 M463.53612183327397,366.7827878047657 L465.8503666989526,366.09510562037497 M465.8503666989526,366.09510562037497 L467.8069912694324,365.11397552931214 M467.8069912694324,365.11397552931214 L469.29225595753195,363.8965450293341 M469.29225595753195,363.8965450293341 L470.21992212458946,362.513687339562 M470.21992212458946,362.513687339562 L470.5362520979133,361.0458565100603 M413.1612362150872,340.7938882354854 L448.87277742909805,361.0458565100604 M413.1612362150872,340.7938882354854 L330.5342592129747,466.9028580308533 M330.5342592129747,466.9028580308533 L553.3767810443744,420.3099401602029 M517.3096295813291,399.856305778909 L553.3767810443744,420.3099401602029 M553.5337767067756,365.6476309146822 L553.3767810443744,420.3099401602029 M517.3859954869213,345.2419448806071 L553.5337767067756,365.6476309146822 M588.9682700582043,292.4193916923871 L589.2702544133496,290.9588673926503 M589.2702544133496,290.9588673926503 L590.1846157610673,289.5835516356168 M590.1846157610673,289.5835516356168 L591.658053429911,288.37328586149107 M591.658053429911,288.37328586149107 L593.604843485929,287.3982915452173 M593.604843485929,287.3982915452173 L595.9118764758218,286.7151012163532 M595.9118764758218,286.7151012163532 L598.4452021423609,286.36331363347426 M598.4452021423609,286.36331363347426 L601.0577965234281,286.36331616381733 M601.0577965234281,286.36331616381733 L603.5980600807488,286.71509995110665 M603.5980600807488,286.71509995110665 L605.9185538250218,287.39829281060986 M605.9185538250218,287.39829281060986 L607.8845539507013,288.3732871270919 M607.8845539507013,288.3732871270919 L609.3818326583721,289.5835503697575 M609.3818326583721,289.5835503697575 L610.3232892995145,290.9588699249567 M610.3232892995145,290.9588699249567 L610.6540477631464,292.4193954917827 M330.192562355474,412.1319040863996 L553.5337767067756,365.6476309146822 M413.0063197364611,286.31885693924914 L330.192562355474,412.1319040863996 M413.0063197364611,286.31885693924914 L448.79690683748385,306.5229042891194 M470.50849289070504,306.5229042891193 L470.19145688326046,307.9872678099397 M470.19145688326046,307.9872678099397 L469.2617267040985,309.36685964709056 M469.2617267040985,309.36685964709056 L467.77315921038524,310.581415567068 M467.77315921038524,310.581415567068 L465.8121846313203,311.56022942823984 M465.8121846313203,311.56022942823984 L463.492795483951,312.24628836123765 M463.492795483951,312.24628836123765 L460.94991798998876,312.5996155026755 M460.94991798998876,312.5996155026755 L458.33153453647765,312.5996149864207 M458.33153453647765,312.5996149864207 L455.7900498358242,312.2462891554285 M455.7900498358242,312.2462891554285 L453.4733628735341,311.56022887237054 M453.4733628735341,311.56022887237054 L451.51624634508727,310.58141509068713 M451.51624634508727,310.58141509068713 L450.0324654320066,309.3668594883294 M450.0324654320066,309.3668594883294 L449.1081699127701,307.9872679686639 M449.1081699127701,307.9872679686639 L448.79690683748385,306.5229042891194 M599.2358174792088,234.0166789281703 L470.50849289070504,306.5229042891193 M740.3801711093078,312.644267660654 L599.2358174792088,234.0166789281703 M740.3801711093078,312.644267660654 L694.059136249188,339.08693402203056 M694.059136249188,339.08693402203056 L610.6540477631464,292.4193954917827 M610.6540477631464,292.4193954917827 L610.3715893632015,346.9089124399201 M694.059136249188,339.08693402203056 L693.5902423460572,393.68680156113214 M740.3801711093078,312.644267660654 L739.8096197179159,367.1817086633181 M599.2358174792088,234.0166789281703 L598.9798954449683,288.3669476549851 M470.50849289070504,306.5229042891193 L470.5362520979133,361.0458565100603 M448.79690683748385,306.5229042891194 L448.87277742909805,361.0458565100604 M413.0063197364611,286.31885693924914 L413.1612362150872,340.7938882354854 M330.192562355474,412.1319040863996 L330.5342592129747,466.9028580308533" stroke="black"  stroke-width="4"  fill="red"/>
<path d="M470.50849289070504,306.5229042891193 L470.4806101108442,251.7572381541223 M448.7206985009842,251.7572381541223 L449.03264504576174,253.21808907269636 M449.03264504576174,253.21808907269636 L449.95898955421995,254.5943719195563 M449.95898955421995,254.5943719195563 L451.4460666580519,255.80601524406487 M451.4460666580519,255.80601524406487 L453.4075353822422,256.78248241450774 M453.4075353822422,256.78248241450774 L455.72937749666204,257.46689814818956 M455.72937749666204,257.46689814818956 L458.2765201166961,257.8193770934931 M458.2765201166961,257.8193770934931 L460.90073454781,257.8193776085104 M460.90073454781,257.8193776085104 L463.4492761701957,257.46689735590223 M463.4492761701957,257.46689735590223 L465.7738325204128,256.7824829690446 M465.7738325204128,256.7824829690446 L467.7391764932111,255.80601571930364 M467.7391764932111,255.80601571930364 L469.2310615142583,254.59437207793678 M469.2310615142583,254.59437207793678 L470.1628649106331,253.2180889143527 M470.1628649106331,253.2180889143527 L470.4806101108442,251.7572381541223 M448.79690683748385,306.5229042891193 L448.7206985009842,251.7572381541223 M470.50849289070504,306.5229042891193 L470.19145688326046,307.9872678099397 M470.19145688326046,307.9872678099397 L469.2617267040985,309.36685964709056 M469.2617267040985,309.36685964709056 L467.77315921038524,310.581415567068 M467.77315921038524,310.581415567068 L465.8121846313203,311.56022942823984 M465.8121846313203,311.56022942823984 L463.492795483951,312.24628836123765 M463.492795483951,312.24628836123765 L460.94991798998876,312.5996155026755 M460.94991798998876,312.5996155026755 L458.33153453647765,312.5996149864207 M458.33153453647765,312.5996149864207 L455.7900498358242,312.2462891554285 M455.7900498358242,312.2462891554285 L453.4733628735341,311.56022887237054 M453.4733628735341,311.56022887237054 L451.51624634508727,310.58141509068713 M451.51624634508727,310.58141509068713 L450.0324654320066,309.3668594883294 M450.0324654320066,309.3668594883294 L449.1081699127701,307.9872679686639 M449.1081699127701,307.9872679686639 L448.79690683748385,306.5229042891193 M413.0063197364611,286.31885693924914 L412.85071480958607,231.6017388086445 M448.79690683748385,306.5229042891193 L413.0063197364611,286.31885693924914 M448.7206985009842,251.7572381541223 L412.85071480958607,231.6017388086445 M89.15955104789748,467.9208149727484 L88.27091389525981,412.7728122417074 M413.0063197364611,286.31885693924914 L89.15955104789748,467.9208149727484 M412.85071480958607,231.6017388086445 L88.27091389525981,412.7728122417074 M229.07825640695293,494.3705152585077 L220.4992648113891,498.7129493968416 M220.4992648113891,498.7129493968416 L211.13084104880707,502.4865549080405 M211.13084104880707,502.4865549080405 L201.09145413501528,505.6427886555658 M201.09145413501528,505.6427886555658 L190.50852030052678,508.14093211315605 M190.50852030052678,508.14093211315605 L179.51656227889225,509.94875443563626 M179.51656227889225,509.94875443563626 L168.2555912921875,511.042880037603 M168.2555912921875,511.042880037603 L156.8691978567183,511.4091564213435 M156.8691978567183,511.4091564213435 L145.50254966452835,511.04287474704586 M145.50254966452835,511.04287474704586 L134.30071473832174,509.948737244442 M134.30071473832174,509.948737244442 L123.40644201842144,508.1409215371282 M123.40644201842144,508.1409215371282 L112.95846861286526,505.64278601265323 M112.95846861286526,505.64278601265323 L103.08963428266065,502.48656877607414 M103.08963428266065,502.48656877607414 L93.92510884036392,498.7129559965364 M93.92510884036392,498.7129559965364 L85.58078961243001,494.37050998255336 M85.58078961243001,494.37050998255336 L78.16172569085415,489.51504685845555 M78.16172569085415,489.51504685845555 L71.76101130257058,484.20875138269537 M71.76101130257058,484.20875138269537 L66.45840890437,478.5194614921994 M66.45840890437,478.5194614921994 L62.319463395992614,472.51971095260603 M62.319463395992614,472.51971095260603 L59.3947188191467,466.2857817673822 M59.3947188191467,466.2857817673822 L57.719187149056154,459.8966872498145 M57.719187149056154,459.8966872498145 L57.3120411128553,453.4331181638421 M57.3120411128553,453.4331181638421 L58.17629987120483,446.9765221844818 M58.17629987120483,446.9765221844818 L60.299125206681936,440.6079108847163 M60.299125206681936,440.6079108847163 L63.651908011355886,434.4069908031589 M63.651908011355886,434.4069908031589 L68.19076449103625,428.4511265960282 M68.19076449103625,428.4511265960282 L73.85724592132874,422.8143670242902 M73.85724592132874,422.8143670242902 L80.57900096825489,417.56663826585407 M80.57900096825489,417.56663826585407 L88.27091389525981,412.7728122417074 M229.6538152833754,549.7085438910718 L229.07825640695293,494.3705152585077 M89.15955104789748,467.9208149727484 L81.48531492375747,472.72587430528347 M81.48531492375747,472.72587430528347 L74.779099724954,477.98589006671136 M74.779099724954,477.98589006671136 L69.1258231404027,483.63583595501973 M69.1258231404027,483.63583595501973 L64.59766573509461,489.60561996387787 M64.59766573509461,489.60561996387787 L61.25293552032093,495.82101837706955 M61.25293552032093,495.82101837706955 L59.13540738164613,502.20448446133616 M59.13540738164613,502.20448446133616 L58.27361523542231,508.676124846006 M58.27361523542231,508.676124846006 L58.68035729328784,515.1547388493207 M58.68035729328784,515.1547388493207 L60.35261012352879,521.558689460356 M60.35261012352879,521.558689460356 L63.271233515774554,527.8070991167986 M63.271233515774554,527.8070991167986 L67.4012844406601,533.820772335712 M67.4012844406601,533.820772335712 L72.69232387375604,539.5232519373527 M72.69232387375604,539.5232519373527 L79.07894709791191,544.8418382188656 M79.07894709791191,544.8418382188656 L86.4815654714539,549.7085386029119 M86.4815654714539,549.7085386029119 L94.80729039099805,554.0610270477001 M94.80729039099805,554.0610270477001 L103.95130717512546,557.8433609916134 M103.95130717512546,557.8433609916134 L113.7979792296843,561.0068684137408 M113.7979792296843,561.0068684137408 L124.22242017966471,563.5107714344492 M124.22242017966471,563.5107714344492 L135.09209266200742,565.3227594158459 M135.09209266200742,565.3227594158459 L146.26857673048045,566.4194214899312 M146.26857673048045,566.4194214899312 L157.60945086369725,566.7865482079145 M157.60945086369725,566.7865482079145 L168.96998061288784,566.4194267926945 M168.96998061288784,566.4194267926945 L180.20533267800556,565.3227766467099 M180.20533267800556,565.3227766467099 L191.17224765233146,563.5107820348892 M191.17224765233146,563.5107820348892 L201.73103730180605,561.0068710627564 M201.73103730180605,561.0068710627564 L211.74748915337895,557.8433470915394 M211.74748915337895,557.8433470915394 L221.09448060771007,554.0610204327481 M221.09448060771007,554.0610204327481 L229.6538152833754,549.7085438910718 M553.5337767067756,365.64763091468217 L553.691474739305,310.7407724085064 M229.6538152833754,549.7085438910718 L553.5337767067756,365.64763091468217 M229.07825640695293,494.3705152585077 L553.691474739305,310.7407724085064 M517.3859954869213,345.2419448806071 L517.4627024539038,290.38366819658063 M553.5337767067756,365.64763091468217 L517.3859954869213,345.2419448806071 M553.691474739305,310.7407724085064 L517.4627024539038,290.38366819658063 M517.4270477656885,278.10936951787073 L514.8179750268198,278.28752290403855 M514.8179750268198,278.28752290403855 L512.3613405800672,278.8116569434221 M512.3613405800672,278.8116569434221 L510.1997456422379,279.65139942815415 M510.1997456422379,279.65139942815415 L508.4587323032655,280.7580683727939 M508.4587323032655,280.7580683727939 L507.23950918449964,282.0674772328987 M507.23950918449964,282.0674772328987 L506.6130632691001,283.5036341959016 M506.6130632691001,283.5036341959016 L506.61600918477535,284.98313755057256 M506.61600918477535,284.98313755057256 L507.2484028738262,286.4200014848932 M507.2484028738262,286.4200014848932 L508.473702399847,287.7306635399206 M508.473702399847,287.7306635399206 L510.2208232422689,288.8388427058737 M510.2208232422689,288.8388427058737 L512.3882597055455,289.6800078499597 M512.3882597055455,289.6800078499597 L514.8499665806703,290.20515203387254 M514.8499665806703,290.20515203387254 L517.4627024539038,290.38366819658063 M517.3504994240848,332.93827835517664 L517.4270477656885,278.10936951787073 M517.3859954869213,345.2419448806071 L514.7790821110938,345.0630020018112 M514.7790821110938,345.0630020018112 L512.3228629695908,344.53660246992627 M512.3228629695908,344.53660246992627 L510.16025977092033,343.6934263187178 M510.16025977092033,343.6934263187178 L508.4170364668721,342.5825973774612 M508.4170364668721,342.5825973774612 L507.1944723715406,341.26880079138095 M507.1944723715406,341.26880079138095 L506.5634936030833,339.82849976228624 M506.5634936030833,339.82849976228624 L506.5605607915477,338.3454565027865 M506.5605607915477,338.3454565027865 L507.18561825279147,336.9058625577544 M507.18561825279147,336.9058625577544 L508.40213296905983,335.59331936915214 M508.40213296905983,335.59331936915214 L510.1392759418578,334.4840008901366 M510.1392759418578,334.4840008901366 L512.2960636049077,333.64224762570063 M512.2960636049077,333.64224762570063 L514.7472328862034,333.11685840245764 M514.7472328862034,333.11685840245764 L517.3504994240848,332.93827835517664 M646.4372490503573,205.45600263304598 L517.4270477656885,278.10936951787073 M646.0757772700583,260.10991609961883 L646.4372490503573,205.45600263304598 M517.3504994240848,332.93827835517664 L646.0757772700583,260.10991609961883 M506.22446096022645,127.70980664925702 L646.4372490503573,205.45600263304598 M506.1735015113871,182.17425435915845 L506.22446096022645,127.70980664925702 M646.0757772700583,260.10991609961883 L506.1735015113871,182.17425435915845 M459.8467369795576,208.03838092318097 L459.79555256672745,153.51080417118987 M506.1735015113871,182.17425435915845 L459.8467369795576,208.03838092318097 M506.22446096022645,127.70980664925702 L459.79555256672745,153.51080417118987 M542.0663063094627,254.04258749249456 L542.1971143051584,199.40334244513878 M459.8467369795576,208.03838092318097 L542.0663063094627,254.04258749249456 M459.79555256672745,153.51080417118987 L542.1971143051584,199.40334244513878 M542.2580474652705,211.5149023288449 L544.851994164402,211.33875337823645 M544.851994164402,211.33875337823645 L547.2931979209318,210.8205768588066 M547.2931979209318,210.8205768588066 L549.4396171275083,209.99056620247654 M549.4396171275083,209.99056620247654 L551.1664198075973,208.89708421391634 M551.1664198075973,208.89708421391634 L552.3732841933447,207.6038042217977 M552.3732841933447,207.6038042217977 L552.9902022452026,206.18599333525296 M552.9902022452026,206.18599333525296 L552.9815191213161,204.72610751989498 M552.9815191213161,204.72610751989498 L552.3479831149236,203.30898609550889 M552.3479831149236,203.30898609550889 L551.1265924168497,202.0169337557755 M551.1265924168497,202.0169337557755 L549.3884740274626,200.9249325999752 M549.3884740274626,200.9249325999752 L547.2346623479489,200.09631923113707 M547.2346623479489,200.09631923113707 L544.7902417008758,199.5791331503752 M544.7902417008758,199.5791331503752 L542.1971143051584,199.40334244513878 M542.126970193898,266.18348550641076 L542.2580474652705,211.5149023288449 M542.0663063094627,254.04258749249456 L544.6536981814623,254.21880441531144 M544.6536981814623,254.21880441531144 L547.0927078275981,254.73724438447593 M547.0927078275981,254.73724438447593 L549.2417467672467,255.5678664694059 M549.2417467672467,255.5678664694059 L550.9760076773646,256.66251444803584 M550.9760076773646,256.66251444803584 L552.1946804436021,257.9576979197245 M552.1946804436021,257.9576979197245 L552.8267966237202,259.3782528422771 M552.8267966237202,259.3782528422771 L552.8354413829809,260.84167497673866 M552.8354413829809,260.84167497673866 L552.2198697004369,262.2629194942924 M552.2198697004369,262.2629194942924 L551.0156590582637,263.55933086978905 M551.0156590582637,263.55933086978905 L549.2926638483178,264.6554599844516 M549.2926638483178,264.6554599844516 L547.1509847010627,265.4874796486087 M547.1509847010627,265.4874796486087 L544.7151777434888,266.00691026206744 M544.7151777434888,266.00691026206744 L542.126970193898,266.18348550641076 M542.126970193898,266.18348550641076 L470.50849289070504,306.5229042891193 M542.2580474652705,211.5149023288449 L470.4806101108442,251.7572381541223 M183.531754361394,494.9229994299553 L187.6795998978507,497.8677240820098 M187.6795998978507,497.8677240820098 L190.73462163424847,501.22910038630255 M190.73462163424847,501.22910038630255 L192.57875776264743,504.87851482813403 M192.57875776264743,504.87851482813403 L193.14009030966002,508.67613009839386 M193.14009030966002,508.67613009839386 L192.3958472946987,512.4761457799741 M192.3958472946987,512.4761457799741 L190.3734751266287,516.1323734276767 M190.3734751266287,516.1323734276767 L187.14966462918017,519.5039351242067 M187.14966462918017,519.5039351242067 L182.84765697994214,522.460674322439 M182.84765697994214,522.460674322439 L177.63250254213602,524.8883083964975 M177.63250254213602,524.8883083964975 L171.70493092121012,526.692825182019 M171.70493092121012,526.692825182019 L165.29340715766494,527.8043078376139 M165.29340715766494,527.8043078376139 L158.64533930755618,528.1796562224341 M158.64533930755618,528.1796562224341 L152.01743077704884,527.8042986167786 M152.01743077704884,527.8042986167786 L145.6655423938882,526.6928195846841 M145.6655423938882,526.6928195846841 L139.83479940041377,524.8883074090273 M139.83479940041377,524.8883074090273 L134.74996649821048,522.460674322439 M134.74996649821048,522.460674322439 L130.60659666150968,519.503938741705 M130.60659666150968,519.503938741705 L127.56372863091207,516.132371126917 M127.56372863091207,516.132371126917 L125.73757378600192,512.4761365825069 M125.73757378600192,512.4761365825069 L125.19725965282629,508.6761406031694 M125.19725965282629,508.6761406031694 L125.96239280807464,504.8785266385712 M125.96239280807464,504.8785266385712 L128.002362209188,501.22910858303464 M128.002362209188,501.22910858303464 L131.23777945803613,497.86773817253254 M131.23777945803613,497.86773817253254 L135.5436735591661,494.9229994299553 M135.5436735591661,494.9229994299553 L140.75429646526044,492.50740784605114 M140.75429646526044,492.50740784605114 L146.66971444124286,490.7130823779786 M146.66971444124286,490.7130823779786 L153.06327551462763,489.6084093388117 M153.06327551462763,489.6084093388117 L159.6903248488839,489.2354417060442 M159.6903248488839,489.2354417060442 L166.29734324017448,489.6083975582486 M166.29734324017448,489.6083975582486 L172.6316157555561,490.7130774685106 M172.6316157555561,490.7130774685106 L178.45075197852515,492.50739835158674 M178.45075197852515,492.50739835158674 L183.531754361394,494.9229994299553 M183.531754361394,494.9229994299553 L182.854513318013,439.71198291580595 M182.854513318013,439.71198291580595 L177.76216002925582,437.3020079038399 M177.76216002925582,437.3020079038399 L171.92997285815733,435.5118675052549 M171.92997285815733,435.5118675052549 L165.5814480089638,434.40976192409084 M165.5814480089638,434.40976192409084 L158.95951903228683,434.03767530559634 M158.95951903228683,434.03767530559634 L152.3174684996829,434.40977367719836 M152.3174684996829,434.40977367719836 L145.90938678223796,435.511872403283 M145.90938678223796,435.511872403283 L139.98048203619646,437.302017376187 M139.98048203619646,437.302017376187 L134.7579213948183,439.71198291580595 M134.7579213948183,439.71198291580595 L130.4420960257616,442.649866155185 M130.4420960257616,442.649866155185 L127.19913669403581,446.0034150889335 M127.19913669403581,446.0034150889335 L125.15430711744779,449.6443462053814 M125.15430711744779,449.6443462053814 L124.38718695146383,453.4331338843946 M124.38718695146383,453.4331338843946 L124.92846901831513,457.22430344426687 M124.92846901831513,457.22430344426687 L126.75851489186783,460.87205059150585 M126.75851489186783,460.87205059150585 L129.80805225123964,464.2357960542455 M129.80805225123964,464.2357960542455 L133.96061668118858,467.18567540866593 M133.96061668118858,467.18567540866593 L139.0568171598872,469.6076816241755 M139.0568171598872,469.6076816241755 L144.90066308983617,471.40801265390667 M144.90066308983617,471.40801265390667 L151.2668831975727,472.51691693937437 M151.2668831975727,472.51691693937437 L157.90979689842516,472.891405131728 M157.90979689842516,472.891405131728 L164.57296140555906,472.5169261388513 M164.57296140555906,472.5169261388513 L170.99908764859006,471.40801823827405 M170.99908764859006,471.40801823827405 L176.9402017504708,469.6076826093572 M176.9402017504708,469.6076826093572 L182.1673151139846,467.18567540866593 M182.1673151139846,467.18567540866593 L186.47923723152905,464.2357924451376 M186.47923723152905,464.2357924451376 L189.71053782349773,460.8720528869263 M189.71053782349773,460.8720528869263 L191.7376908192516,457.2243126203773 M191.7376908192516,457.2243126203773 L192.48382626021078,453.4331234040262 M192.48382626021078,453.4331234040262 L191.92143032154115,449.6443344224021 M191.92143032154115,449.6443344224021 L190.07332128647778,446.00340691126905 M190.07332128647778,446.00340691126905 L187.0115745100431,442.64985209745794 M187.0115745100431,442.64985209745794 L182.854513318013,439.71198291580595" stroke="black"  stroke-width="4"  fill="red"/>
<path d="M517.5039383929596,223.03529338807158 L517.4270477656885,278.10936951787073 M517.4627024539038,290.38366819658063 L514.8499665806703,290.20515203387254 M514.8499665806703,290.20515203387254 L512.3882597055455,289.6800078499597 M512.3882597055455,289.6800078499597 L510.2208232422689,288.8388427058737 M510.2208232422689,288.8388427058737 L508.473702399847,287.7306635399206 M508.473702399847,287.7306635399206 L507.2484028738262,286.4200014848932 M507.2484028738262,286.4200014848932 L506.61600918477535,284.98313755057256 M506.61600918477535,284.98313755057256 L506.6130632691001,283.5036341959016 M506.6130632691001,283.5036341959016 L507.23950918449964,282.0674772328987 M507.23950918449964,282.0674772328987 L508.4587323032655,280.7580683727939 M508.4587323032655,280.7580683727939 L510.1997456422379,279.65139942815415 M510.1997456422379,279.65139942815415 L512.3613405800672,278.8116569434221 M512.3613405800672,278.8116569434221 L514.8179750268198,278.28752290403855 M514.8179750268198,278.28752290403855 L517.4270477656885,278.10936951787073 M517.5397527722362,235.27983802394112 L517.4627024539038,290.38366819658063 M517.5039383929596,223.03529338807158 L514.8890334954649,223.21301450788712 M514.8890334954649,223.21301450788712 L512.4269094583674,223.73587687256025 M512.4269094583674,223.73587687256025 L510.26048576798786,224.5735821566587 M510.26048576798786,224.5735821566587 L508.5155847779613,225.67756674750416 M508.5155847779613,225.67756674750416 L507.2936411700799,226.98380008062102 M507.2936411700799,226.98380008062102 L506.66580061851744,228.4164748749106 M506.66580061851744,228.4164748749106 L506.66875972636427,229.89239177394705 M506.66875972636427,229.89239177394705 L507.30257469583506,231.32577340400803 M507.30257469583506,231.32577340400803 L508.530621920733,232.63325968907498 M508.530621920733,232.63325968907498 L510.2816577689582,233.73875421159892 M510.2816577689582,233.73875421159892 L512.4539491492203,234.57788188174914 M512.4539491492203,234.57788188174914 L514.9211683344759,235.10175419426105 M514.9211683344759,235.10175419426105 L517.5397527722362,235.27983802394112 M589.4403268440262,182.7119098491419 L589.2037737258192,237.6875985800355 M589.4403268440262,182.7119098491419 L517.5039383929596,223.03529338807158 M589.2037737258192,237.6875985800355 L517.4270477656885,278.10936951787073 M610.9377620549417,237.68760237029608 L610.6062333233574,236.23058886460058 M610.6062333233574,236.23058886460058 L609.6626512842384,234.85857720912503 M609.6626512842384,234.85857720912503 L608.162016305793,233.65122546047488 M608.162016305793,233.65122546047488 L606.191624452251,232.67857705723375 M606.191624452251,232.67857705723375 L603.8659586222578,231.99702822560084 M603.8659586222578,231.99702822560084 L601.3200426109172,231.6460910351127 M601.3200426109172,231.6460910351127 L598.7016430281566,231.64608851085936 M598.7016430281566,231.64608851085936 L596.1626957593651,231.99702948780273 M596.1626957593651,231.99702948780273 L593.8505505734954,232.6785757948862 M593.8505505734954,232.6785757948862 L591.8994542652783,233.65122419791913 M591.8994542652783,233.65122419791913 L590.4227664267661,234.85857847193944 M590.4227664267661,234.85857847193944 L589.5064002715897,236.23058633838428 M589.5064002715897,236.23058633838428 L589.2037737258192,237.6875985800355 M694.5301232166312,284.2433417651407 L610.9377620549417,237.68760237029608 M740.953263675423,257.8639227431822 L694.5301232166312,284.2433417651407 M599.4928717981396,179.4259464313127 L740.953263675423,257.8639227431822 M470.4806101108442,251.7572381541223 L599.4928717981396,179.4259464313127 M448.72069850098416,251.75723815412238 L449.03264504576174,253.21808907269636 M449.03264504576174,253.21808907269636 L449.95898955421995,254.5943719195563 M449.95898955421995,254.5943719195563 L451.4460666580519,255.80601524406487 M451.4460666580519,255.80601524406487 L453.4075353822422,256.78248241450774 M453.4075353822422,256.78248241450774 L455.72937749666204,257.46689814818956 M455.72937749666204,257.46689814818956 L458.2765201166961,257.8193770934931 M458.2765201166961,257.8193770934931 L460.90073454781,257.8193776085104 M460.90073454781,257.8193776085104 L463.4492761701957,257.46689735590223 M463.4492761701957,257.46689735590223 L465.7738325204128,256.7824829690446 M465.7738325204128,256.7824829690446 L467.7391764932111,255.80601571930364 M467.7391764932111,255.80601571930364 L469.2310615142583,254.59437207793678 M469.2310615142583,254.59437207793678 L470.1628649106331,253.2180889143527 M470.1628649106331,253.2180889143527 L470.4806101108442,251.7572381541223 M412.850714809586,231.6017388086445 L448.72069850098416,251.75723815412238 M412.850714809586,231.6017388086445 L329.8493308368739,357.11495767655197 M329.8493308368739,357.11495767655197 L553.691474739305,310.7407724085064 M517.4627024539038,290.38366819658063 L553.691474739305,310.7407724085064 M553.8498798659451,255.5877198588668 L553.691474739305,310.7407724085064 M517.5397527722362,235.27983802394112 L553.8498798659451,255.5877198588668 M589.4403268440262,182.7119098491419 L589.743598311914,181.25845549886873 M589.743598311914,181.25845549886873 L590.6619780835806,179.88979868202097 M590.6619780835806,179.88979868202097 L592.1419304613544,178.6853938873959 M592.1419304613544,178.6853938873959 L594.0973521142363,177.7151219936755 M594.0973521142363,177.7151219936755 L596.4146322026337,177.03524114731675 M596.4146322026337,177.03524114731675 L598.9592260784677,176.6851578155954 M598.9592260784677,176.6851578155954 L601.5834567187654,176.68516033367982 M601.5834567187654,176.68516033367982 L604.1350503952314,177.0352398881995 M604.1350503952314,177.0352398881995 L606.4659114180798,177.71512325293858 M606.4659114180798,177.71512325293858 L608.4407146637113,178.68539514686734 M608.4407146637113,178.68539514686734 L609.94472099234,179.8897974222914 M609.94472099234,179.8897974222914 L610.8904380452915,181.25845801891546 M610.8904380452915,181.25845801891546 L611.2227406333385,182.711913630148 M329.504554294983,301.850357834582 L553.8498798659451,255.5877198588668 M412.69441683505016,176.6409165004644 L329.504554294983,301.850357834582 M412.69441683505016,176.6409165004644 L448.6441501593147,196.74723379486866 M470.4526029313477,196.74723379486866 L470.13414535848074,198.20452583706904 M470.13414535848074,198.20452583706904 L469.2002594780672,199.57745702980372 M469.2002594780672,199.57745702980372 L467.7050421093167,200.78615027453822 M467.7050421093167,200.78615027453822 L465.7353092277671,201.76024019326516 M465.7353092277671,201.76024019326516 L463.40556260000994,202.44298850227764 M463.40556260000994,202.44298850227764 L460.8513315597636,202.79461077698625 M460.8513315597636,202.79461077698625 L458.22126012263215,202.79461026322227 M458.22126012263215,202.79461026322227 L455.6684343353977,202.44298929263618 M455.6684343353977,202.44298929263618 L453.3414140749358,201.76023964007825 M453.3414140749358,201.76023964007825 L451.3755737552456,200.78614980045657 M451.3755737552456,200.78614980045657 L449.88518578328166,199.57745687180903 M449.88518578328166,199.57745687180903 L448.9567831811355,198.20452599502687 M448.9567831811355,198.20452599502687 L448.6441501593147,196.74723379486866 M599.75106593283,124.59315078808669 L470.4526029313477,196.74723379486866 M741.5289144313333,202.8390474869547 L599.75106593283,124.59315078808669 M741.5289144313333,202.8390474869547 L695.0032172943721,229.1543892201659 M695.0032172943721,229.1543892201659 L611.2227406333385,182.711913630148 M611.2227406333385,182.711913630148 L610.9377620549417,237.68760237029608 M695.0032172943721,229.1543892201659 L694.5301232166312,284.2433417651407 M741.5289144313333,202.8390474869547 L740.953263675423,257.8639227431822 M599.75106593283,124.59315078808669 L599.4928717981396,179.4259464313127 M470.4526029313477,196.74723379486866 L470.4806101108442,251.7572381541223 M448.6441501593147,196.74723379486866 L448.72069850098416,251.75723815412238 M412.69441683505016,176.6409165004644 L412.850714809586,231.6017388086445 M329.504554294983,301.850357834582 L329.8493308368739,357.11495767655197" stroke="black"  stroke-width="4"  fill="red"/>
<path d="M470.4526029313477,196.74723379486866 L470.42447053956516,141.491295052956 M448.56725959136526,141.491295052956 L448.88058211714036,142.94498206819225 M448.88058211714036,142.94498206819225 L449.8110519766601,144.31451719795928 M449.8110519766601,144.31451719795928 L451.3047655898204,145.52022119039182 M451.3047655898204,145.52022119039182 L453.2749970313753,146.4919026392046 M453.2749970313753,146.4919026392046 L455.60721858196035,147.1729644402753 M455.60721858196035,147.1729644402753 L458.165752949182,147.52371622421947 M458.165752949182,147.52371622421947 L460.80170759087076,147.52371673671334 M460.80170759087076,147.52371673671334 L463.36165350374984,147.17296365187042 M463.36165350374984,147.17296365187042 L465.69661363462217,146.491903191024 M465.69661363462217,146.491903191024 L467.67075506756834,145.5202216633012 M467.67075506756834,145.5202216633012 L469.1693197013389,144.31451735556334 M469.1693197013389,144.31451735556334 L470.1052973932711,142.94498191062513 M470.1052973932711,142.94498191062513 L470.42447053956516,141.491295052956 M448.6441501593147,196.74723379486866 L448.56725959136526,141.491295052956 M470.4526029313477,196.74723379486866 L470.13414535848074,198.20452583706904 M470.13414535848074,198.20452583706904 L469.2002594780672,199.57745702980372 M469.2002594780672,199.57745702980372 L467.7050421093167,200.78615027453822 M467.7050421093167,200.78615027453822 L465.7353092277671,201.76024019326516 M465.7353092277671,201.76024019326516 L463.40556260000994,202.44298850227764 M463.40556260000994,202.44298850227764 L460.8513315597636,202.79461077698625 M460.8513315597636,202.79461077698625 L458.22126012263215,202.79461026322227 M458.22126012263215,202.79461026322227 L455.6684343353977,202.44298929263618 M455.6684343353977,202.44298929263618 L453.3414140749358,201.76023964007825 M453.3414140749358,201.76023964007825 L451.3755737552456,200.78614980045657 M451.3755737552456,200.78614980045657 L449.88518578328166,199.57745687180903 M449.88518578328166,199.57745687180903 L448.9567831811355,198.20452599502687 M448.9567831811355,198.20452599502687 L448.6441501593147,196.74723379486866 M542.3897075441536,156.60324679758747 L542.5219542240617,101.4469367461407 M542.3897075441536,156.60324679758747 L470.4526029313477,196.74723379486866 M542.5219542240617,101.4469367461407 L470.42447053956516,141.491295052956 M459.69250290384275,43.73034384107103 L542.4604771059296,89.39520012050843 M542.4604771059296,89.39520012050843 L545.0651521686175,89.57012174329236 M545.0651521686175,89.57012174329236 L547.5204671608711,90.08475106988845 M547.5204671608711,90.08475106988845 L549.6838881977079,90.90926853681242 M549.6838881977079,90.90926853681242 L551.4297732526471,91.99587263381659 M551.4297732526471,91.99587263381659 L552.6566363436698,93.2815403507064 M552.6566363436698,93.2815403507064 L553.293031219378,94.69166057459597 M553.293031219378,94.69166057459597 L553.3017918427693,96.14433549658105 M553.3017918427693,96.14433549658105 L552.6821633105535,97.55514484945934 M552.6821633105535,97.55514484945934 L551.4699561971468,98.84203959574796 M551.4699561971468,98.84203959574796 L549.7354878738875,99.93012377404773 M549.7354878738875,99.93012377404773 L547.5795253273327,100.75603780825924 M547.5795253273327,100.75603780825924 L545.1274559146461,101.27165706534811 M545.1274559146461,101.27165706534811 L542.5219542240617,101.4469367461407 M448.56725959136526,141.491295052956 L412.5374212936374,121.43480087174987 M329.15822254161196,246.33647148475077 L412.5374212936374,121.43480087174987 M554.0089967302376,200.1868564903056 L329.15822254161196,246.33647148475077 M554.0089967302376,200.1868564903056 L517.6171486926453,179.92884471745398 M517.6171486926453,179.92884471745398 L514.99268945233,179.7511989002004 M514.99268945233,179.7511989002004 L512.5199332192442,179.2286151662468 M512.5199332192442,179.2286151662468 L510.34276512755764,178.3915517311165 M510.34276512755764,178.3915517311165 L508.5877966914488,177.2887771077899 M508.5877966914488,177.2887771077899 L507.35698941890007,175.98450829000302 M507.35698941890007,175.98450829000302 L506.7217467673103,174.55465467616554 M506.7217467673103,174.55465467616554 L506.7187743784798,173.08237130087923 M506.7187743784798,173.08237130087923 L507.34801578850914,171.65322436406302 M507.34801578850914,171.65322436406302 L508.5726920511012,170.35020821412292 M508.5726920511012,170.35020821412292 L510.32149809009474,169.24894318327136 M510.32149809009474,169.24894318327136 L512.4927721513077,168.4133018141967 M512.4927721513077,168.4133018141967 L514.9604103634849,167.89172779823804 M514.9604103634849,167.89172779823804 L517.5811735471822,167.714444612265 M517.5811735471822,167.714444612265 L647.1650221989406,95.41795027645196 M647.1650221989406,95.41795027645196 L506.327056203144,18.058046859099477 M506.327056203144,18.058046859099477 L459.69250290384275,43.73034384107103 M412.69441683505016,176.6409165004644 L412.5374212936374,121.43480087174987 M448.6441501593147,196.74723379486866 L412.69441683505016,176.6409165004644 M542.3897075441536,156.60324679758747 L544.9894189016247,156.42752968112478 M544.9894189016247,156.42752968112478 L547.4360434245882,155.9106235538957 M547.4360434245882,155.9106235538957 L549.5872237187486,155.08264801157114 M549.5872237187486,155.08264801157114 L551.3178507334995,153.9918475420359 M551.3178507334995,153.9918475420359 L552.527380584404,152.70173961014225 M552.527380584404,152.70173961014225 L553.1456509068764,151.2874069479391 M553.1456509068764,151.2874069479391 L553.1369291623641,149.8311033680194 M553.1369291623641,149.8311033680194 L552.5019669381558,148.41746001276783 M552.5019669381558,148.41746001276783 L551.2778461583305,147.12857944202165 M551.2778461583305,147.12857944202165 L549.5358530914245,146.03925945394707 M549.5358530914245,146.03925945394707 L547.3772474256706,145.21268086206493 M547.3772474256706,145.21268086206493 L544.9273917154399,144.69676493575693 M544.9273917154399,144.69676493575693 L542.3285033114137,144.52140597689487 M459.74414169693273,98.74197917898562 L542.3285033114137,144.52140597689487 M506.27564537305653,73.00492189011135 L459.74414169693273,98.74197917898562 M506.27564537305653,73.00492189011135 L646.8003272098898,150.55920738035996 M517.5039383929596,223.03529338807158 L646.8003272098898,150.55920738035996 M517.5039383929596,223.03529338807158 L514.8890334954649,223.21301450788712 M514.8890334954649,223.21301450788712 L512.4269094583674,223.73587687256025 M512.4269094583674,223.73587687256025 L510.26048576798786,224.5735821566587 M510.26048576798786,224.5735821566587 L508.5155847779613,225.67756674750416 M508.5155847779613,225.67756674750416 L507.2936411700799,226.98380008062102 M507.2936411700799,226.98380008062102 L506.66580061851744,228.4164748749106 M506.66580061851744,228.4164748749106 L506.66875972636427,229.89239177394705 M506.66875972636427,229.89239177394705 L507.30257469583506,231.32577340400803 M507.30257469583506,231.32577340400803 L508.530621920733,232.63325968907498 M508.530621920733,232.63325968907498 L510.2816577689582,233.73875421159892 M510.2816577689582,233.73875421159892 L512.4539491492203,234.57788188174914 M512.4539491492203,234.57788188174914 L514.9211683344759,235.10175419426105 M514.9211683344759,235.10175419426105 L517.5397527722362,235.27983802394112 M553.8498798659451,255.5877198588668 L517.5397527722362,235.27983802394112 M553.8498798659451,255.5877198588668 L329.504554294983,301.850357834582 M329.504554294983,301.850357834582 L412.69441683505016,176.6409165004644 M542.3285033114137,144.52140597689487 L542.4604771059296,89.39520012050843 M459.74414169693273,98.74197917898562 L459.69250290384275,43.73034384107103 M506.27564537305653,73.00492189011135 L506.327056203144,18.058046859099477 M646.8003272098898,150.55920738035996 L647.1650221989406,95.41795027645196 M517.5039383929596,223.03529338807158 L517.5811735471822,167.714444612265 M517.5397527722362,235.27983802394112 L517.6171486926453,179.92884471745398 M553.8498798659451,255.5877198588668 L554.0089967302376,200.1868564903056 M329.504554294983,301.850357834582 L329.15822254161196,246.33647148475077" stroke="black"  stroke-width="4"  fill="red"/>
<path d="M517.6587556690042,112.1450750390581 L517.5811735471822,167.714444612265 M517.6171486926453,179.92884471745398 L514.99268945233,179.7511989002004 M514.99268945233,179.7511989002004 L512.5199332192442,179.2286151662468 M512.5199332192442,179.2286151662468 L510.34276512755764,178.3915517311165 M510.34276512755764,178.3915517311165 L508.5877966914488,177.2887771077899 M508.5877966914488,177.2887771077899 L507.35698941890007,175.98450829000302 M507.35698941890007,175.98450829000302 L506.7217467673103,174.55465467616554 M506.7217467673103,174.55465467616554 L506.7187743784798,173.08237130087923 M506.7187743784798,173.08237130087923 L507.34801578850914,171.65322436406302 M507.34801578850914,171.65322436406302 L508.5726920511012,170.35020821412292 M508.5726920511012,170.35020821412292 L510.32149809009474,169.24894318327136 M510.32149809009474,169.24894318327136 L512.4927721513077,168.4133018141967 M512.4927721513077,168.4133018141967 L514.9604103634849,167.89172779823804 M514.9604103634849,167.89172779823804 L517.5811735471822,167.714444612265 M517.6948926657024,124.3289357099087 L517.6171486926453,179.92884471745398 M517.6587556690042,112.1450750390581 L515.0321078864702,112.32191455964562 M515.0321078864702,112.32191455964562 L512.5589307403998,112.84218336443405 M512.5589307403998,112.84218336443405 L510.3827845370412,113.67573380214412 M510.3827845370412,113.67573380214412 L508.63005592805905,114.77424366883167 M508.63005592805905,114.77424366883167 L507.4026347591344,116.07400050846991 M507.4026347591344,116.07400050846991 L506.7719862244263,117.49957338245719 M506.7719862244263,117.49957338245719 L506.7749719838722,118.9681756336098 M506.7749719838722,118.9681756336098 L507.4116487648438,120.39445500225361 M507.4116487648438,120.39445500225361 L508.6452285215341,121.69546418377752 M508.6452285215341,121.69546418377752 L510.40414725241556,122.79548325329284 M510.40414725241556,122.79548325329284 L512.5862140046206,123.6304553895435 M512.5862140046206,123.6304553895435 L515.0645321987262,124.15173364874352 M515.0645321987262,124.15173364874352 L517.6948926657024,124.3289357099087 M589.9166094328174,72.02233810395524 L589.6779362598052,127.49073424006292 M589.9166094328174,72.02233810395524 L517.6587556690042,112.1450750390581 M589.6779362598052,127.49073424006292 L517.5811735471822,167.714444612265 M611.5089917469815,127.49073801169413 L611.1759116894742,126.0408866351371 M611.1759116894742,126.0408866351371 L610.2280499431009,124.6756207337288 M610.2280499431009,124.6756207337288 L608.7206570856489,123.47420633064468 M608.7206570856489,123.47420633064468 L606.7414226547594,122.50634188033712 M606.7414226547594,122.50634188033712 L604.4053431807533,121.82814565850163 M604.4053431807533,121.82814565850163 L601.8480464634148,121.47893490113779 M601.8480464634148,121.47893490113779 L599.2179587411351,121.47893238930277 M599.2179587411351,121.47893238930277 L596.6676930906466,121.82814691449425 M596.6676930906466,121.82814691449425 L594.3452552455368,122.5063406241988 M594.3452552455368,122.5063406241988 L592.3854890316262,123.4742050742982 M592.3854890316262,123.4742050742982 L590.9022576520294,124.67562199033375 M590.9022576520294,124.67562199033375 L589.9818553982263,126.0408841213403 M589.9818553982263,126.0408841213403 L589.6779362598052,127.49073424006292 M695.4784322873128,173.818468889543 L611.5089917469815,127.49073801169413 M742.1071400977502,147.56804360505083 L695.4784322873128,173.818468889543 M600.0104072809808,69.5167209456855 L742.1071400977502,147.56804360505083 M470.42447053956516,141.491295052956 L600.0104072809808,69.5167209456855 M448.56725959136526,141.491295052956 L448.88058211714036,142.94498206819225 M448.88058211714036,142.94498206819225 L449.8110519766601,144.31451719795928 M449.8110519766601,144.31451719795928 L451.3047655898204,145.52022119039182 M451.3047655898204,145.52022119039182 L453.2749970313753,146.4919026392046 M453.2749970313753,146.4919026392046 L455.60721858196035,147.1729644402753 M455.60721858196035,147.1729644402753 L458.165752949182,147.52371622421947 M458.165752949182,147.52371622421947 L460.80170759087076,147.52371673671334 M460.80170759087076,147.52371673671334 L463.36165350374984,147.17296365187042 M463.36165350374984,147.17296365187042 L465.69661363462217,146.491903191024 M465.69661363462217,146.491903191024 L467.67075506756834,145.5202216633012 M467.67075506756834,145.5202216633012 L469.1693197013389,144.31451735556334 M469.1693197013389,144.31451735556334 L470.1052973932711,142.94498191062513 M470.1052973932711,142.94498191062513 L470.42447053956516,141.491295052956 M412.5374212936374,121.43480087174987 L448.56725959136526,141.491295052956 M412.5374212936374,121.43480087174987 L329.15822254161196,246.33647148475077 M329.15822254161196,246.33647148475077 L554.0089967302376,200.1868564903056 M517.6171486926453,179.92884471745398 L554.0089967302376,200.1868564903056 M554.1688303868024,144.5364223995723 L554.0089967302376,200.1868564903056 M517.6948926657024,124.3289357099087 L554.1688303868024,144.5364223995723 M589.9166094328174,72.02233810395524 L590.2211790087599,70.57613907856603 M590.2211790087599,70.57613907856603 L591.1436126721514,69.21431576075162 M591.1436126721514,69.21431576075162 L592.6301376175364,68.0159255546119 M592.6301376175364,68.0159255546119 L594.5942677439227,67.05049983051288 M594.5942677439227,67.05049983051288 L596.9218863608489,66.37401517726835 M596.9218863608489,66.37401517726835 L599.477849131043,66.02568074548446 M599.477849131043,66.02568074548446 L602.1138201434507,66.02568325098872 M602.1138201434507,66.02568325098872 L604.6768454567606,66.37401392444121 M604.6768454567606,66.37401392444121 L607.0181668048599,67.05050108348564 M607.0181668048599,67.05050108348564 L609.0018523545607,68.01592680779311 M609.0018523545607,68.01592680779311 L610.512647027462,69.21431450731228 M610.512647027462,69.21431450731228 L611.4626632161356,70.57614158603212 M611.4626632161356,70.57614158603212 L611.7965243826204,72.0223418660895 M695.9557832272101,118.23383041581315 L611.7965243826204,72.0223418660895 M742.6879588871448,92.04917021735974 L695.9557832272101,118.23383041581315 M742.6879588871448,92.04917021735974 L600.2709039079948,14.1949440511587 M470.3962120502794,85.98768323853176 L600.2709039079948,14.1949440511587 M470.3962120502794,85.98768323853176 L470.07632010705646,87.43771792133793 M470.07632010705646,87.43771792133793 L469.1382412100724,88.80381334795311 M469.1382412100724,88.80381334795311 L467.6363142883801,90.00648974373729 M467.6363142883801,90.00648974373729 L465.65774452238907,90.97573147018653 M465.65774452238907,90.97573147018653 L463.31754749849165,91.65508206701139 M463.31754749849165,91.65508206701139 L460.7518610781282,92.00495462356298 M460.7518610781282,92.00495462356298 L458.1099968480394,92.00495411235556 M458.1099968480394,92.00495411235556 L455.5457283083507,91.65508285343708 M455.5457283083507,91.65508285343708 L453.2082821599771,90.97573091975266 M453.2082821599771,90.97573091975266 L451.2336399322605,90.00648927201576 M451.2336399322605,90.00648927201576 L449.7365858005829,88.80381319074502 M449.7365858005829,88.80381319074502 L448.8040394554587,87.43771807850908 M448.8040394554587,87.43771807850908 L448.4900243776882,85.98768323853176 M412.3797232613794,65.98166045187156 L448.4900243776882,85.98768323853176 M412.3797232613794,65.98166045187156 L328.81032449272203,190.5715219546666 M328.81032449272203,190.5715219546666 L554.1688303868024,144.5364223995723 M611.7965243826204,72.0223418660895 L611.5089917469815,127.49073801169413 M695.9557832272101,118.23383041581315 L695.4784322873128,173.818468889543 M742.6879588871448,92.04917021735974 L742.1071400977502,147.56804360505083 M600.2709039079948,14.1949440511587 L600.0104072809808,69.5167209456855 M470.3962120502794,85.98768323853176 L470.42447053956516,141.491295052956 M448.4900243776882,85.98768323853176 L448.56725959136526,141.491295052956 M412.3797232613794,65.98166045187156 L412.5374212936374,121.43480087174987 M328.81032449272203,190.5715219546666 L329.15822254161196,246.33647148475077" stroke="black"  stroke-width="4"  fill="red"/></svg>