<svg viewBox="0 0 800 800" xmlns="http://www.w3.org/2000/svg"><path d="M484.07468261119345,609.3603156155752 L483.87982536958475,562.5344867086594 M631.6687399789714,523.9577128237852 L631.8026848572098,477.3211609334413 M484.07468261119345,609.3603156155752 L631.6687399789714,523.9577128237852 M483.87982536958475,562.5344867086594 L631.8026848572098,477.3211609334413 M600.5475880963403,506.06914005947397 L600.6124242681288,459.4726237269823 M631.6687399789714,523.9577128237852 L600.5475880963403,506.06914005947397 M631.8026848572098,477.3211609334413 L600.6124242681288,459.4726237269823 M600.5827498384618,448.925140815831 L598.3812038429172,449.07823469204305 M598.3812038429172,449.07823469204305 L596.3082779494016,449.5286406790247 M596.3082779494016,449.5286406790247 L594.4843061434742,450.25025896027023 M594.4843061434742,450.25025896027023 L593.0152183770823,451.2012502669003 M593.0152183770823,451.2012502669003 L591.9864203049534,452.3264574475858 M591.9864203049534,452.3264574475858 L591.4578080144857,453.56057610095644 M591.4578080144857,453.56057610095644 L591.4602702529714,454.8319338892858 M591.4602702529714,454.8319338892858 L591.9938555468713,456.0666449533285 M591.9938555468713,456.0666449533285 L593.0277224247432,457.19290163793016 M593.0277224247432,457.19290163793016 L594.5018964828536,458.14516163120925 M594.5018964828536,458.14516163120925 L596.3307233702851,458.86797239933037 M596.3307233702851,458.86797239933037 L598.4078518688651,459.319225602399 M598.4078518688651,459.319225602399 L600.6124242681288,459.4726237269823 M600.5180445197782,495.4979348586007 L600.5827498384618,448.925140815831 M600.5475880963403,506.06914005947397 L598.3478851500729,505.91539726612825 M598.3478851500729,505.91539726612825 L596.2753461002443,505.46313008873176 M596.2753461002443,505.46313008873176 L594.4505613053577,504.7386949714009 M594.4505613053577,504.7386949714009 L592.9796467753943,503.7842946567913 M592.9796467753943,503.7842946567913 L591.9480675217906,502.65550607541394 M591.9480675217906,502.65550607541394 L591.4156654810495,501.4180186839577 M591.4156654810495,501.4180186839577 L591.4132141016217,500.1438014899316 M591.4132141016217,500.1438014899316 L591.940665068364,498.90690652943965 M591.940665068364,498.90690652943965 L592.9671978675856,497.7791674888056 M592.9671978675856,497.7791674888056 L594.4330485340352,496.8260359114336 M594.4330485340352,496.8260359114336 L596.2529996536542,496.10279332307294 M596.2529996536542,496.10279332307294 L598.3213546341083,495.6513733949773 M598.3213546341083,495.6513733949773 L600.5180445197782,495.4979348586007 M711.2930074919445,385.4312092741711 L600.5827498384618,448.925140815831 M710.985933950257,431.8602023241386 L711.2930074919445,385.4312092741711 M600.5180445197782,495.4979348586007 L710.985933950257,431.8602023241386 M670.8440077673057,409.0877091477774 L671.0623862068911,362.71058921422696 M710.985933950257,431.8602023241386 L670.8440077673057,409.0877091477774 M711.2930074919445,385.4312092741711 L671.0623862068911,362.71058921422696 M631.1388307970944,431.86020672114137 L631.270433736399,385.43121366117924 M670.8440077673057,409.0877091477774 L631.1388307970944,431.86020672114137 M671.0623862068911,362.71058921422696 L631.270433736399,385.43121366117924 M622.0393688376233,437.0791099273011 L622.1510310434525,390.6382595813464 M631.1388307970944,431.86020672114137 L630.9167056049176,433.0210679907294 M630.9167056049176,433.0210679907294 L630.2480079515931,434.123961667827 M630.2480079515931,434.123961667827 L629.1661614056871,435.11352364071723 M629.1661614056871,435.11352364071723 L627.7253396011779,435.9400606842346 M627.7253396011779,435.9400606842346 L625.9977882828097,436.56204213652296 M625.9977882828097,436.56204213652296 L624.0702050995536,436.94819812966045 M624.0702050995536,436.94819812966045 L622.0393688376233,437.0791099273011 M631.270433736399,385.43121366117924 L631.0478350617722,386.5894364753796 M631.0478350617722,386.5894364753796 L630.3776814939754,387.6898239742824 M630.3776814939754,387.6898239742824 L629.293469109501,388.67713773630055 M629.293469109501,388.67713773630055 L627.8494898651695,389.501797265626 M627.8494898651695,389.501797265626 L626.1181478238836,390.1223660502806 M626.1181478238836,390.1223660502806 L624.1863310154071,390.5076450734346 M624.1863310154071,390.5076450734346 L622.1510310434525,390.6382595813464 M560.3743945606498,472.44642432404794 L560.3503933741009,425.9255222535855 M622.0393688376233,437.0791099273011 L560.3743945606498,472.44642432404794 M622.1510310434525,390.6382595813464 L560.3503933741009,425.9255222535855 M541.9889728279244,425.9255217009149 L542.2522479028738,427.1809294104206 M542.2522479028738,427.1809294104206 L543.0339549131364,428.36365446730736 M543.0339549131364,428.36365446730736 L544.2888061841384,429.4048896417027 M544.2888061841384,429.4048896417027 L545.9439434441524,430.244021676464 M545.9439434441524,430.244021676464 L547.903149653568,430.83217375140464 M547.903149653568,430.83217375140464 L550.0524578685918,431.1350766156069 M550.0524578685918,431.1350766156069 L552.2667901526216,431.13507626984176 M552.2667901526216,431.13507626984176 L554.4172692317226,430.8321734056596 M554.4172692317226,430.8321734056596 L556.3787480319305,430.2440214690404 M556.3787480319305,430.2440214690404 L558.0371225619342,429.4048896417027 M558.0371225619342,429.4048896417027 L559.2959959957706,428.36365529670195 M559.2959959957706,428.36365529670195 L560.082268508045,427.18092934132005 M560.082268508045,427.18092934132005 L560.3503933741009,425.9255222535855 M542.053393275222,472.4464237701277 L541.9889728279244,425.9255217009149 M560.3743945606498,472.44642432404794 L560.1068628830836,473.70466966380843 M560.1068628830836,473.70466966380843 L559.3223243985568,474.8900689404893 M559.3223243985568,474.8900689404893 L558.0662256949117,475.9336563014541 M558.0662256949117,475.9336563014541 L556.4115056227624,476.77468409210564 M556.4115056227624,476.77468409210564 L554.4543485337603,477.36416474139185 M554.4543485337603,477.36416474139185 L552.308606777795,477.6677518457812 M552.308606777795,477.6677518457812 L550.0991513712888,477.66775219232744 M550.0991513712888,477.66775219232744 L547.9545753303574,477.36416508791797 M547.9545753303574,477.36416508791797 L545.9996808365588,476.7746842999979 M545.9996808365588,476.7746842999979 L544.3481837856243,475.9336563014541 M544.3481837856243,475.9336563014541 L543.096089554388,474.89006810922024 M543.096089554388,474.89006810922024 L542.3160964867784,473.70466973306515 M542.3160964867784,473.70466973306515 L542.053393275222,472.4464237701277 M511.23658073548233,454.73278657699626 L511.1043980971747,408.25191235055166 M542.053393275222,472.4464237701277 L511.23658073548233,454.73278657699626 M541.9889728279244,425.9255217009149 L511.1043980971747,408.25191235055166 M363.6504158492288,539.0085066154375 L363.1894837648829,492.3383747091842 M511.23658073548233,454.73278657699626 L363.6504158492288,539.0085066154375 M511.1043980971747,408.25191235055166 L363.1894837648829,492.3383747091842 M483.87982536958475,562.5344867086594 L488.3476721372833,570.876033239222 M488.3476721372833,570.876033239222 L491.72839731147155,579.404454180547 M491.72839731147155,579.404454180547 L494.00049823313975,588.0726227989461 M494.00049823313975,588.0726227989461 L495.1485459703508,596.8323680275865 M495.1485459703508,596.8323680275865 L495.16327278169945,605.6347957564815 M495.16327278169945,605.6347957564815 L494.04179751738,614.4305123326615 M494.04179751738,614.4305123326615 L491.78760042861893,623.1699283394126 M491.78760042861893,623.1699283394126 L488.410616167346,631.8035102688019 M488.410616167346,631.8035102688019 L483.927245614258,640.2821037220446 M483.927245614258,640.2821037220446 L478.36028553686356,648.5571810758164 M478.36028553686356,648.5571810758164 L471.738883425626,656.5811879238739 M471.738883425626,656.5811879238739 L464.09843876033665,664.3077759948761 M464.09843876033665,664.3077759948761 L455.480375974411,671.6921384440903 M455.480375974411,671.6921384440903 L445.9320586192882,678.6912529307414 M445.9320586192882,678.6912529307414 L435.5064542565524,685.2641932887619 M435.5064542565524,685.2641932887619 L424.2618667832163,691.3723978521954 M424.2618667832163,691.3723978521954 L412.26164130285804,696.9798744072568 M412.26164130285804,696.9798744072568 L399.5738229884032,702.0535173308575 M399.5738229884032,702.0535173308575 L386.27072684174027,706.5632101906072 M386.27072684174027,706.5632101906072 L372.4285387701036,710.4821781197705 M372.4285387701036,710.4821781197705 L358.1267495002064,713.7870953401699 M358.1267495002064,713.7870953401699 L343.4478152035847,716.458253979151 M343.4478152035847,716.458253979151 L328.4766593931454,718.4796394070712 M328.4766593931454,718.4796394070712 L313.2998755447219,719.8392056239117 M313.2998755447219,719.8392056239117 L298.0055754875289,720.5287752938635 M298.0055754875289,720.5287752938635 L282.6824302985159,720.5442507247801 M282.6824302985159,720.5442507247801 L267.41949600495644,719.8854904965306 M267.41949600495644,719.8854904965306 L252.30532262002913,718.5564732673643 M252.30532262002913,718.5564732673643 L237.42750107451292,716.5651830324928 M237.42750107451292,716.5651830324928 L222.87226583360206,713.9234802902216 M222.87226583360206,713.9234802902216 L208.72366166486657,710.6471976451319 M208.72366166486657,710.6471976451319 L195.0632653113868,706.7558716984252 M195.0632653113868,706.7558716984252 L181.969553454595,702.2726714322449 M181.969553454595,702.2726714322449 L169.51742567567422,697.2242563236118 M169.51742567567422,697.2242563236118 L157.77782746634676,691.6405316189258 M157.77782746634676,691.6405316189258 L146.817242350617,685.5545056341041 M146.817242350617,685.5545056341041 L136.69737381343396,679.0020231060886 M136.69737381343396,679.0020231060886 L127.4747465684174,672.0215561340741 M127.4747465684174,672.0215561340741 L119.20045049902615,664.6539213778469 M119.20045049902615,664.6539213778469 L111.91979587503488,656.9420522681202 M111.91979587503488,656.9420522681202 L105.6721925787943,648.9306732878108 M105.6721925787943,648.9306732878108 L100.4908588167471,640.6660590538005 M100.4908588167471,640.6660590538005 L96.4027100598762,632.1957482581386 M96.4027100598762,632.1957482581386 L93.42837060942514,623.568180430341 M93.42837060942514,623.568180430341 L91.58184174196924,614.8325446865663 M91.58184174196924,614.8325446865663 L90.8707927755317,606.0383249385568 M90.8707927755317,606.0383249385568 L91.29645368182167,597.2351027891716 M91.29645368182167,597.2351027891716 L92.85352324180974,588.4723372117039 M92.85352324180974,588.4723372117039 L95.53054459832424,579.7989051271834 M95.53054459832424,579.7989051271834 L99.3097648305324,571.2630556407146 M99.3097648305324,571.2630556407146 L104.16756120308321,562.9119243747018 M104.16756120308321,562.9119243747018 L110.07430766475619,554.7915097435005 M110.07430766475619,554.7915097435005 L116.99487102058055,546.9462867233769 M116.99487102058055,546.9462867233769 L124.88874600486906,539.4189900759832 M124.88874600486906,539.4189900759832 L133.71032642327242,532.2504878681168 M133.71032642327242,532.2504878681168 L143.40906250882307,525.4795229107694 M143.40906250882307,525.4795229107694 L153.9300098498557,519.1425475943715 M153.9300098498557,519.1425475943715 L165.21394564946468,513.2735335227629 M165.21394564946468,513.2735335227629 L177.19783091307997,507.90382711402106 M177.19783091307997,507.90382711402106 L189.81507280517636,503.06202298465814 M189.81507280517636,503.06202298465814 L202.99588468631708,498.773845153619 M202.99588468631708,498.773845153619 L216.66771465568345,495.06198140467654 M216.66771465568345,495.06198140467654 L230.75554991537408,491.94604928144764 M230.75554991537408,491.94604928144764 L245.1823786405609,489.44247305797785 M245.1823786405609,489.44247305797785 L259.86947777784917,487.56442346728664 M259.86947777784917,487.56442346728664 L274.73689577138236,486.32177911018425 M274.73689577138236,486.32177911018425 L289.70377472336463,485.7210643096078 M289.70377472336463,485.7210643096078 L304.68880745968585,485.7654256621452 M304.68880745968585,485.7654256621452 L319.61058227545084,486.45464698581424 M319.61058227545084,486.45464698581424 L334.3880299897607,487.7850907330666 M334.3880299897607,487.7850907330666 L348.94074394373064,489.7497760820926 M348.94074394373064,489.7497760820926 L363.1894837648829,492.3383747091842 M363.6504158492288,539.0085066154375 L349.433120286716,536.4141264423534 M349.433120286716,536.4141264423534 L334.912539292612,534.4450511388598 M334.912539292612,534.4450511388598 L320.16774371586365,533.1116336766295 M320.16774371586365,533.1116336766295 L305.27896833972795,532.4208715583455 M305.27896833972795,532.4208715583455 L290.3271090770607,532.3764110265056 M290.3271090770607,532.3764110265056 L275.3934035147178,532.9784687827639 M275.3934035147178,532.9784687827639 L260.5589846878661,534.223890704953 M260.5589846878661,534.223890704953 L245.90453693406704,536.1061368787606 M245.90453693406704,536.1061368787606 L231.5098396825921,538.6153051251024 M231.5098396825921,538.6153051251024 L217.45344586064977,541.7381933241899 M217.45344586064977,541.7381933241899 L203.81220009914833,545.4583381447525 M203.81220009914833,545.4583381447525 L190.66095144973988,549.7560755132804 M190.66095144973988,549.7560755132804 L178.0720924375248,554.6086639911264 M178.0720924375248,554.6086639911264 L166.11525528259557,559.9903189372687 M166.11525528259557,559.9903189372687 L154.8568842505666,565.8723786039111 M154.8568842505666,565.8723786039111 L144.35987637632482,572.2234232908934 M144.35987637632482,572.2234232908934 L134.6833196757974,579.0094023404517 M134.6833196757974,579.0094023404517 L125.8820319973583,586.1937789560188 M125.8820319973583,586.1937789560188 L118.00644506186978,593.7377210886323 M118.00644506186978,593.7377210886323 L111.10205681949367,601.6002670628932 M111.10205681949367,601.6002670628932 L105.20927454101036,609.7385847999194 M105.20927454101036,609.7385847999194 L100.36314438632485,618.1080986604097 M100.36314438632485,618.1080986604097 L96.59321676805553,626.6627067746944 M96.59321676805553,626.6627067746944 L93.92305145854726,635.3551681867939 M93.92305145854726,635.3551681867939 L92.37035094470463,644.1371266843767 M92.37035094470463,644.1371266843767 L91.9465353418974,652.95959757014 M91.9465353418974,652.95959757014 L92.65688268089309,661.7730135503286 M92.65688268089309,661.7730135503286 L94.50015441887342,670.527685171805 M94.50015441887342,670.527685171805 L97.46868727899954,679.1740216167775 M97.46868727899954,679.1740216167775 L101.54850059223747,687.6627282156868 M101.54850059223747,687.6627282156868 L106.71900609927712,695.9452621905168 M106.71900609927712,695.9452621905168 L112.95333923403138,703.9739841821092 M112.95333923403138,703.9739841821092 L120.21834776361777,711.7025222104214 M120.21834776361777,711.7025222104214 L128.4747027523195,719.0860582746676 M128.4747027523195,719.0860582746676 L137.67718932254405,726.081569704168 M137.67718932254405,726.081569704168 L147.77482726834566,732.6481554832645 M147.77482726834566,732.6481554832645 L158.7112151378973,738.7472644286538 M158.7112151378973,738.7472644286538 L170.4247857676344,744.3429784925846 M170.4247857676344,744.3429784925846 L182.84920413172605,749.4022221624774 M182.84920413172605,749.4022221624774 L195.91368468774652,753.895029574555 M195.91368468774652,753.895029574555 L209.54349806071647,757.7946874163138 M209.54349806071647,757.7946874163138 L223.66034711401878,761.0779800793874 M223.66034711401878,761.0779800793874 L238.18284280898303,763.7253317610111 M238.18284280898303,763.7253317610111 L253.02713468405872,765.7208781558861 M253.02713468405872,765.7208781558861 L268.10718841735735,767.0527350748611 M268.10718841735735,767.0527350748611 L283.3356169968854,767.7129025878435 M283.3356169968854,767.7129025878435 L298.6240770321159,767.6973940994561 M298.6240770321159,767.6973940994561 L313.8837206147887,767.006351318687 M313.8837206147887,767.006351318687 L329.0260840655833,765.6438801030095 M329.0260840655833,765.6438801030095 L343.9632616546909,763.6181741112078 M343.9632616546909,763.6181741112078 L358.6088623431157,760.9413034074272 M358.6088623431157,760.9413034074272 L372.87816088244494,757.6293146905373 M372.87816088244494,757.6293146905373 L386.6888932198042,753.7019553835598 M386.6888932198042,753.7019553835598 L399.9617533349728,749.1825982125322 M399.9617533349728,749.1825982125322 L412.6207317260096,744.0980721167199 M412.6207317260096,744.0980721167199 L424.5936801211659,738.4785545930472 M424.5936801211659,738.4785545930472 L435.8127094261265,732.357218668999 M435.8127094261265,732.357218668999 L446.21461895521634,725.770130189594 M446.21461895521634,725.770130189594 L455.74123678353135,718.7559301057031 M455.74123678353135,718.7559301057031 L464.3397142275011,711.355629187756 M464.3397142275011,711.355629187756 L471.96279295990564,703.6123392251989 M471.96279295990564,703.6123392251989 L478.5691394329416,695.5709607794694 M478.5691394329416,695.5709607794694 L484.1234306168159,687.2779396689848 M484.1234306168159,687.2779396689848 L488.59658064090706,678.7809310285868 M488.59658064090706,678.7809310285868 L491.9658394426177,670.1285659514559 M491.9658394426177,670.1285659514559 L494.2148379798573,661.3701043461591 M494.2148379798573,661.3701043461591 L495.33365857839647,652.5551867678313 M495.33365857839647,652.5551867678313 L495.31882329973814,643.7335105344797 M495.31882329973814,643.7335105344797 L494.1732013233227,634.9545775103911 M494.1732013233227,634.9545775103911 L491.9060342527416,626.2673896524054 M491.9060342527416,626.2673896524054 L488.5327113871765,617.7202249949931 M488.5327113871765,617.7202249949931 L484.07468261119345,609.3603156155752 M313.620150739784,637.3195459341018 L317.10100799802785,639.8520166304654 M317.10100799802785,639.8520166304654 L319.627652851331,642.7498035131018 M319.627652851331,642.7498035131018 L321.0960475967165,645.8947646750021 M321.0960475967165,645.8947646750021 L321.44519515195634,649.1584622550937 M321.44519515195634,649.1584622550937 L320.65977769037863,652.4073779909378 M320.65977769037863,652.4073779909378 L318.7709674345478,655.5083421265715 M318.7709674345478,655.5083421265715 L315.8553053806167,658.3340267719116 M315.8553053806167,658.3340267719116 L312.0316072904874,660.7682536215386 M312.0316072904874,660.7682536215386 L307.4563834114739,662.710738013707 M307.4563834114739,662.710738013707 L302.3172205031349,664.0814004393119 M302.3172205031349,664.0814004393119 L296.8252649437079,664.8236346815243 M296.8252649437079,664.8236346815243 L291.2062185778601,664.9068282833657 M291.2062185778601,664.9068282833657 L285.69119515474654,664.3275242993876 M285.69119515474654,664.3275242993876 L280.5069419405535,663.1096481344886 M280.5069419405535,663.1096481344886 L275.86643491100415,661.3034795728493 M275.86643491100415,661.3034795728493 L271.96005061791794,658.9835152214397 M271.96005061791794,658.9835152214397 L268.94769926930917,656.2453370119483 M268.94769926930917,656.2453370119483 L266.9522797368211,653.2016002729395 M266.9522797368211,653.2016002729395 L266.0547320483443,649.9773265199376 M266.0547320483443,649.9773265199376 L266.2908277161898,646.7047243398906 M266.2908277161898,646.7047243398906 L267.6498381792034,643.5177635403836 M267.6498381792034,643.5177635403836 L270.0752801145812,640.546610616351 M270.0752801145812,640.546610616351 L273.46714153703954,637.9124858051474 M273.46714153703954,637.9124858051474 L277.68630554410214,635.7226314249531 M277.68630554410214,635.7226314249531 L282.56011140249,634.0661376835236 M282.56011140249,634.0661376835236 L287.88959233108744,633.0102619619395 M287.88959233108744,633.0102619619395 L293.45736824101215,632.5978772023369 M293.45736824101215,632.5978772023369 L299.03647470125964,632.8457229102196 M299.03647470125964,632.8457229102196 L304.3995238289234,633.7437405078276 M304.3995238289234,633.7437405078276 L309.3278121794998,635.2554810201414 M309.3278121794998,635.2554810201414 L313.620150739784,637.3195459341018 M313.620150739784,637.3195459341018 L313.04277868132465,590.4324190010457 M313.04277868132465,590.4324190010457 L308.7409351396468,588.3728680973263 M308.7409351396468,588.3728680973263 L303.80168971945596,586.8644348273949 M303.80168971945596,586.8644348273949 L298.42667746295933,585.9683822833705 M298.42667746295933,585.9683822833705 L292.8350877376828,585.7210789744684 M292.8350877376828,585.7210789744684 L287.2548149366921,586.1325612632074 M287.2548149366921,586.1325612632074 L281.91333066848983,587.1861266123685 M281.91333066848983,587.1861266123685 L277.0285027584278,588.8389967095989 M277.0285027584278,588.8389967095989 L272.7997467712664,591.0240624731712 M272.7997467712664,591.0240624731712 L269.40011566436715,593.6524298462411 M269.40011566436715,593.6524298462411 L266.9690456123745,596.6170921946227 M266.9690456123745,596.6170921946227 L265.6067820619345,599.7970951144295 M265.6067820619345,599.7970951144295 L265.3699454499404,603.0625568935616 M265.3699454499404,603.0625568935616 L266.269299364886,606.2798001056201 M266.269299364886,606.2798001056201 L268.26900273527485,609.316903984934 M268.26900273527485,609.316903984934 L271.2879435799943,612.0491185383792 M271.2879435799943,612.0491185383792 L275.2029552026575,614.3640325612653 M275.2029552026575,614.3640325612653 L279.8537743115621,616.1662708462086 M279.8537743115621,616.1662708462086 L285.04960044851816,617.381497652189 M285.04960044851816,617.381497652189 L290.57698056405246,617.9595416418649 M290.57698056405246,617.9595416418649 L296.2086571918855,617.8765289785802 M296.2086571918855,617.8765289785802 L301.71299476846167,617.1359091577701 M301.71299476846167,617.1359091577701 L306.8637804791555,615.7682286474787 M306.8637804791555,615.7682286474787 L311.44938885979025,613.8299715416341 M311.44938885979025,613.8299715416341 L315.2818066325881,611.4010443660795 M315.2818066325881,611.4010443660795 L318.20416681132235,608.5815147881756 M318.20416681132235,608.5815147881756 L320.0973817273824,605.4873092216312 M320.0973817273824,605.4873092216312 L320.88473362201603,602.2454788628547 M320.88473362201603,602.2454788628547 L320.53497551027704,598.9889033750076 M320.53497551027704,598.9889033750076 L319.0634548084387,595.8508094433422 M319.0634548084387,595.8508094433422 L316.5313005439965,592.9593537589069 M316.5313005439965,592.9593537589069 L313.04277868132465,590.4324190010457" stroke="black"  stroke-width="4"  fill="red"/>
<path d="M600.6477419369986,402.14593191722156 L600.5827498384618,448.925140815831 M600.6124242681288,459.47262372698236 L598.4078518688651,459.319225602399 M598.4078518688651,459.319225602399 L596.3307233702851,458.86797239933037 M596.3307233702851,458.86797239933037 L594.5018964828536,458.14516163120925 M594.5018964828536,458.14516163120925 L593.0277224247432,457.19290163793016 M593.0277224247432,457.19290163793016 L591.9938555468713,456.0666449533285 M591.9938555468713,456.0666449533285 L591.4602702529714,454.8319338892858 M591.4602702529714,454.8319338892858 L591.4578080144857,453.56057610095644 M591.4578080144857,453.56057610095644 L591.9864203049534,452.3264574475858 M591.9864203049534,452.3264574475858 L593.0152183770823,451.2012502669003 M593.0152183770823,451.2012502669003 L594.4843061434742,450.25025896027023 M594.4843061434742,450.25025896027023 L596.3082779494016,449.5286406790247 M596.3082779494016,449.5286406790247 L598.3812038429172,449.07823469204305 M598.3812038429172,449.07823469204305 L600.5827498384618,448.925140815831 M600.6775480910878,412.66937800114346 L600.6124242681288,459.47262372698236 M600.6477419369986,402.14593191722156 L598.4413183127625,402.2986765678775 M598.4413183127625,402.2986765678775 L596.3638012577928,402.7480551822434 M596.3638012577928,402.7480551822434 L594.5357909602357,403.4680276370635 M594.5357909602357,403.4680276370635 L593.0634517644096,404.4168503134938 M593.0634517644096,404.4168503134938 L592.0323783992164,405.5394920794381 M592.0323783992164,405.5394920794381 L591.5025996596959,406.7707976229813 M591.5025996596959,406.7707976229813 L591.5050728295506,408.0392580923274 M591.5050728295506,408.0392580923274 L592.03984664796,409.27115600844826 M592.03984664796,409.27115600844826 L593.0760113190885,410.39484720994335 M593.0760113190885,410.39484720994335 L594.5534593841804,411.34493848431043 M594.5534593841804,411.34493848431043 L596.3863463120111,412.06610334807704 M596.3863463120111,412.06610334807704 L598.4680846311678,412.5163291198572 M598.4680846311678,412.5163291198572 L600.6775480910878,412.66937800114346 M662.5840355245988,366.7838366469781 L662.3827857662068,413.4819277510576 M662.5840355245988,366.7838366469781 L600.6477419369986,402.14593191722156 M662.3827857662068,413.4819277510576 L600.5827498384618,448.925140815831 M671.5020211726254,408.2519145537284 L669.4638345889823,408.3829765819573 M669.4638345889823,408.3829765819573 L667.5302285387813,408.7696141881298 M667.5302285387813,408.7696141881298 L665.7980557673244,409.39248781044375 M665.7980557673244,409.39248781044375 L664.3541005566163,410.220447110024 M664.3541005566163,410.220447110024 L663.2707670233196,411.21206290049565 M663.2707670233196,411.21206290049565 L662.602450727654,412.3176860654436 M662.602450727654,412.3176860654436 L662.3827857662068,413.4819277510576 M711.2930074919445,385.4312092741711 L671.5020211726254,408.2519145537284 M671.0623862068911,362.71058921422696 L711.2930074919445,385.4312092741711 M560.3503933741009,425.9255222535855 L671.0623862068911,362.71058921422696 M541.9889728279244,425.925521700915 L542.2522479028738,427.1809294104206 M542.2522479028738,427.1809294104206 L543.0339549131364,428.36365446730736 M543.0339549131364,428.36365446730736 L544.2888061841384,429.4048896417027 M544.2888061841384,429.4048896417027 L545.9439434441524,430.244021676464 M545.9439434441524,430.244021676464 L547.903149653568,430.83217375140464 M547.903149653568,430.83217375140464 L550.0524578685918,431.1350766156069 M550.0524578685918,431.1350766156069 L552.2667901526216,431.13507626984176 M552.2667901526216,431.13507626984176 L554.4172692317226,430.8321734056596 M554.4172692317226,430.8321734056596 L556.3787480319305,430.2440214690404 M556.3787480319305,430.2440214690404 L558.0371225619342,429.4048896417027 M558.0371225619342,429.4048896417027 L559.2959959957706,428.36365529670195 M559.2959959957706,428.36365529670195 L560.082268508045,427.18092934132005 M560.082268508045,427.18092934132005 L560.3503933741009,425.9255222535855 M511.1043980971747,408.25191235055166 L541.9889728279244,425.925521700915 M511.1043980971747,408.25191235055166 L439.9837333783863,517.7908215875536 M439.9837333783863,517.7908215875536 L631.8026848572098,477.3211609334414 M600.6124242681288,459.47262372698236 L631.8026848572098,477.3211609334414 M631.9372250118472,430.4773473767204 L631.8026848572098,477.3211609334414 M600.6775480910878,412.66937800114346 L631.9372250118472,430.4773473767204 M671.7232981471345,361.56583833229394 L669.6806154480771,361.696599130673 M669.6806154480771,361.696599130673 L667.7427492551762,362.08234814061143 M667.7427492551762,362.08234814061143 L666.0067654397322,362.7037903667321 M666.0067654397322,362.7037903667321 L664.5596390791849,363.52984722723863 M664.5596390791849,363.52984722723863 L663.4739333041263,364.51918492044456 M663.4739333041263,364.51918492044456 L662.804162938009,365.62226856401617 M662.804162938009,365.62226856401617 L662.5840355245988,366.7838366469781 M711.601433704588,338.7976946947051 L671.7232981471345,361.56583833229394 M671.2817244981339,316.129625185443 L711.601433704588,338.7976946947051 M560.3262860473031,379.19889118222443 L671.2817244981339,316.129625185443 M560.3262860473031,379.19889118222443 L560.0575653563499,380.45142258209717 M560.0575653563499,380.45142258209717 L559.2695511337566,381.63143994758786 M559.2695511337566,381.63143994758786 L558.0078906832696,382.6702902272099 M558.0078906832696,382.6702902272099 L556.3458455172039,383.50750106843316 M556.3458455172039,383.50750106843316 L554.3800258766795,384.09430675374824 M554.3800258766795,384.09430675374824 L552.2247885093179,384.39651634517963 M552.2247885093179,384.39651634517963 L550.0055577699644,384.3965166901535 M550.0055577699644,384.3965166901535 L547.8514964499274,384.0943070987019 M547.8514964499274,384.0943070987019 L545.8879594621837,383.5075012753819 M545.8879594621837,383.5075012753819 L544.2291659095544,382.6702902272099 M544.2291659095544,382.6702902272099 L542.9715454298301,381.6314391200924 M542.9715454298301,381.6314391200924 L542.1881169277534,380.4514226510395 M542.1881169277534,380.4514226510395 L541.9242674946149,379.1988906308199 M510.9716319039993,361.5658361341809 L541.9242674946149,379.1988906308199 M510.9716319039993,361.5658361341809 L439.6909204531671,470.85552531696936 M439.6909204531671,470.85552531696936 L631.9372250118472,430.4773473767204 M671.7232981471345,361.56583833229394 L671.5020211726254,408.2519145537284 M711.601433704588,338.7976946947051 L711.2930074919445,385.4312092741711 M671.2817244981339,316.129625185443 L671.0623862068911,362.71058921422696 M560.3262860473031,379.19889118222443 L560.3503933741009,425.9255222535855 M541.9242674946149,379.1988906308199 L541.9889728279244,425.925521700915 M510.9716319039993,361.5658361341809 L511.1043980971747,408.25191235055166 M439.6909204531671,470.85552531696936 L439.9837333783863,517.7908215875536" stroke="black"  stroke-width="4"  fill="red"/>
<path d="M600.7785940704816,307.9628015852087 L600.713022688359,355.1589600589569 M600.7429614458645,365.65805129685975 L598.5285851763315,365.50535628406635 M598.5285851763315,365.50535628406635 L596.4422165315125,365.0561715495611 M596.4422165315125,365.0561715495611 L594.6052514979859,364.3366743839844 M594.6052514979859,364.3366743839844 L593.1245148522959,363.38878054054095 M593.1245148522959,363.38878054054095 L592.0860421523034,362.26768878031976 M592.0860421523034,362.26768878031976 L591.550074503422,361.0386412402156 M591.550074503422,361.0386412402156 L591.5475903292503,359.77311642276123 M591.5475903292503,359.77311642276123 L592.0785406764765,358.54466119902213 M592.0785406764765,358.54466119902213 L593.1118994201983,357.4246187738889 M593.1118994201983,357.4246187738889 L594.5875044684167,356.4779934008701 M594.5875044684167,356.4779934008701 L596.4195711791127,355.7596885298401 M596.4195711791127,355.7596885298401 L598.5016997761015,355.3113508681662 M598.5016997761015,355.3113508681662 L600.713022688359,355.1589600589569 M600.8086663183379,318.43721640064507 L600.7429614458645,365.65805129685975 M600.7785940704816,307.9628015852087 L598.5623500624816,308.1148338854736 M598.5623500624816,308.1148338854736 L596.4755894033221,308.5621168625446 M596.4755894033221,308.5621168625446 L594.6394482352719,309.2787321491402 M594.6394482352719,309.2787321491402 L593.1605628129882,310.223131224897 M593.1605628129882,310.223131224897 L592.1249085362945,311.3405400037255 M592.1249085362945,311.3405400037255 L591.5927813875044,312.56610728147746 M591.5927813875044,312.56610728147746 L591.5952766396003,313.82865768530405 M591.5952766396003,313.82865768530405 L592.1324434614527,315.0548172047689 M592.1324434614527,315.0548172047689 L593.1732344962514,316.1732751855556 M593.1732344962514,316.1732751855556 L594.6572743962322,317.1189425647377 M594.6572743962322,317.1189425647377 L596.4983357247571,317.836749994363 M596.4983357247571,317.836749994363 L598.5893553410351,318.28487993331294 M598.5893553410351,318.28487993331294 L600.8086663183379,318.43721640064507 M662.9892134312205,272.7661595677199 L662.7861760516054,319.8790511635034 M662.9892134312205,272.7661595677199 L600.7785940704816,307.9628015852087 M662.7861760516054,319.8790511635034 L600.713022688359,355.1589600589569 M671.9455540391708,314.67322540096563 L669.8983553462829,314.80368101839645 M669.8983553462829,314.80368101839645 L667.9562101989623,315.18852977620986 M667.9562101989623,315.18852977620986 L666.2163985344636,315.8085218284496 M666.2163985344636,315.8085218284496 L664.766087066357,316.6326512894399 M664.766087066357,316.6326512894399 L663.677998639081,317.61968099109845 M663.677998639081,317.61968099109845 L663.0067678633782,318.7201917819042 M663.0067678633782,318.7201917819042 L662.7861760516054,319.8790511635034 M711.9112213663216,291.9583313469005 L671.9455540391708,314.67322540096563 M671.5020288556985,269.3434972505715 L711.9112213663216,291.9583313469005 M560.3020718886477,332.26519058232543 L671.5020288556985,269.3434972505715 M541.8592754189798,332.2651900322038 L542.1237017211272,333.51480851427834 M542.1237017211272,333.51480851427834 L542.908859313163,334.6920807377827 M542.908859313163,334.6920807377827 L544.1692612496995,335.7285163855418 M544.1692612496995,335.7285163855418 L545.8317272831813,336.56378114815305 M545.8317272831813,336.56378114815305 L547.7996142361426,337.14922298762906 M547.7996142361426,337.14922298762906 L549.9584497285261,337.45073017408504 M549.9584497285261,337.45073017408504 L552.1826006416769,337.450729829913 M552.1826006416769,337.450729829913 L554.3426173991367,337.1492226434771 M554.3426173991367,337.1492226434771 L556.3127971338506,336.5637809416853 M556.3127971338506,336.5637809416853 L557.9785292197195,335.7285163855418 M557.9785292197195,335.7285163855418 L559.2429890534826,334.69208156335384 M559.2429890534826,334.69208156335384 L560.0327527191217,333.5148084454965 M560.0327527191217,333.5148084454965 L560.3020718886477,332.26519058232543 M510.83827836027024,314.6732232079829 L541.8592754189798,332.2651900322038 M510.83827836027024,314.6732232079829 L439.396798412684,423.71038956366596 M439.396798412684,423.71038956366596 L632.0723643417202,383.42491466761004 M600.7429614458645,365.65805129685975 L632.0723643417202,383.42491466761004 M632.2081069632492,336.16242956237875 L632.0723643417202,383.42491466761004 M600.8086663183379,318.43721640064507 L632.2081069632492,336.16242956237875 M712.2223797519324,244.91171689886633 L672.1687955315753,267.5726657819913 M672.1687955315753,267.5726657819913 L670.1170608308141,267.7028122234045 M670.1170608308141,267.7028122234045 L668.1706177891572,268.0867489434835 M668.1706177891572,268.0867489434835 L666.4269613561679,268.70527183516583 M666.4269613561679,268.70527183516583 L664.9734507279588,269.52744865837434 M664.9734507279588,269.52744865837434 L663.8829691674871,270.51214014142954 M663.8829691674871,270.51214014142954 L663.210271600397,271.61004437700024 M663.210271600397,271.61004437700024 L662.9892134312205,272.7661595677199 M439.1013582298407,376.3539673647415 L632.2081069632492,336.16242956237875 M510.7043334562827,267.5726635942059 L439.1013582298407,376.3539673647415 M510.7043334562827,267.5726635942059 L541.7939946403142,285.12300399182527 M560.2777501676331,285.12300454064734 L560.0078298476269,286.3696705961935 M560.0078298476269,286.3696705961935 L559.2163089532462,287.544163410972 M559.2163089532462,287.544163410972 L557.9490372849167,288.5781510334999 M557.9490372849167,288.5781510334999 L556.2796018840455,289.4114437233636 M556.2796018840455,289.4114437233636 L554.3050426695002,289.99550351157734 M554.3050426695002,289.99550351157734 L552.1402252757129,290.29629905888027 M552.1402252757129,290.29629905888027 L549.9111323217118,290.2962994022401 M549.9111323217118,290.2962994022401 L547.747501445568,289.99550385491693 M547.747501445568,289.99550385491693 L545.7752452093345,289.41144392934393 M545.7752452093345,289.41144392934393 L544.1090903961657,288.5781510334999 M544.1090903961657,288.5781510334999 L542.8458946711303,287.54416258735034 M542.8458946711303,287.54416258735034 L542.0590003392349,286.36967066481293 M542.0590003392349,286.36967066481293 L541.7939946403142,285.12300399182527 M671.7233058470724,222.35081066960907 L560.2777501676331,285.12300454064734 M671.7233058470724,222.35081066960907 L712.2223797519324,244.91171689886633 M672.1687955315753,267.5726657819913 L671.9455540391708,314.67322540096563 M712.2223797519324,244.91171689886633 L711.9112213663216,291.9583313469005 M671.7233058470724,222.35081066960907 L671.5020288556985,269.3434972505715 M560.2777501676331,285.12300454064734 L560.3020718886477,332.26519058232543 M541.7939946403142,285.12300399182527 L541.8592754189798,332.2651900322038 M510.7043334562827,267.5726635942059 L510.83827836027024,314.6732232079829 M439.1013582298407,376.3539673647415 L439.396798412684,423.71038956366596" stroke="black"  stroke-width="4"  fill="red"/>
<path d="M600.713022688359,355.1589600589569 L600.6477419369986,402.14593191722156 M600.6775480910878,412.66937800114346 L598.4680846311678,412.5163291198572 M598.4680846311678,412.5163291198572 L596.3863463120111,412.06610334807704 M596.3863463120111,412.06610334807704 L594.5534593841804,411.34493848431043 M594.5534593841804,411.34493848431043 L593.0760113190885,410.39484720994335 M593.0760113190885,410.39484720994335 L592.03984664796,409.27115600844826 M592.03984664796,409.27115600844826 L591.5050728295506,408.0392580923274 M591.5050728295506,408.0392580923274 L591.5025996596959,406.7707976229813 M591.5025996596959,406.7707976229813 L592.0323783992164,405.5394920794381 M592.0323783992164,405.5394920794381 L593.0634517644096,404.4168503134938 M593.0634517644096,404.4168503134938 L594.5357909602357,403.4680276370635 M594.5357909602357,403.4680276370635 L596.3638012577928,402.7480551822434 M596.3638012577928,402.7480551822434 L598.4413183127625,402.2986765678775 M598.4413183127625,402.2986765678775 L600.6477419369986,402.14593191722156 M600.7429614458645,365.65805129685975 L600.6775480910878,412.66937800114346 M600.713022688359,355.1589600589569 L598.5016997761015,355.3113508681662 M598.5016997761015,355.3113508681662 L596.4195711791127,355.7596885298401 M596.4195711791127,355.7596885298401 L594.5875044684167,356.4779934008701 M594.5875044684167,356.4779934008701 L593.1118994201983,357.4246187738889 M593.1118994201983,357.4246187738889 L592.0785406764765,358.54466119902213 M592.0785406764765,358.54466119902213 L591.5475903292503,359.77311642276123 M591.5475903292503,359.77311642276123 L591.550074503422,361.0386412402156 M591.550074503422,361.0386412402156 L592.0860421523034,362.26768878031976 M592.0860421523034,362.26768878031976 L593.1245148522959,363.38878054054095 M593.1245148522959,363.38878054054095 L594.6052514979859,364.3366743839844 M594.6052514979859,364.3366743839844 L596.4422165315125,365.0561715495611 M596.4422165315125,365.0561715495611 L598.5285851763315,365.50535628406635 M598.5285851763315,365.50535628406635 L600.7429614458645,365.65805129685975 M662.7861760516054,319.8790511635034 L662.5840355245988,366.7838366469781 M662.7861760516054,319.8790511635034 L600.713022688359,355.1589600589569 M662.5840355245988,366.7838366469781 L600.6477419369986,402.14593191722156 M671.7232981471345,361.56583833229394 L669.6806154480771,361.696599130673 M669.6806154480771,361.696599130673 L667.7427492551762,362.08234814061143 M667.7427492551762,362.08234814061143 L666.0067654397322,362.7037903667321 M666.0067654397322,362.7037903667321 L664.5596390791849,363.52984722723863 M664.5596390791849,363.52984722723863 L663.4739333041263,364.51918492044456 M663.4739333041263,364.51918492044456 L662.804162938009,365.62226856401617 M662.804162938009,365.62226856401617 L662.5840355245988,366.7838366469781 M711.601433704588,338.7976946947051 L671.7232981471345,361.56583833229394 M671.2817244981339,316.129625185443 L711.601433704588,338.7976946947051 M560.3262860473031,379.19889118222443 L671.2817244981339,316.129625185443 M541.9242674946149,379.1988906308199 L542.1881169277534,380.4514226510395 M542.1881169277534,380.4514226510395 L542.9715454298301,381.6314391200924 M542.9715454298301,381.6314391200924 L544.2291659095544,382.6702902272099 M544.2291659095544,382.6702902272099 L545.8879594621837,383.5075012753819 M545.8879594621837,383.5075012753819 L547.8514964499274,384.0943070987019 M547.8514964499274,384.0943070987019 L550.0055577699644,384.3965166901535 M550.0055577699644,384.3965166901535 L552.2247885093179,384.39651634517963 M552.2247885093179,384.39651634517963 L554.3800258766795,384.09430675374824 M554.3800258766795,384.09430675374824 L556.3458455172039,383.50750106843316 M556.3458455172039,383.50750106843316 L558.0078906832696,382.6702902272099 M558.0078906832696,382.6702902272099 L559.2695511337566,381.63143994758786 M559.2695511337566,381.63143994758786 L560.0575653563499,380.45142258209717 M560.0575653563499,380.45142258209717 L560.3262860473031,379.19889118222443 M510.9716319039993,361.5658361341809 L541.9242674946149,379.1988906308199 M510.9716319039993,361.5658361341809 L439.6909204531671,470.85552531696936 M439.6909204531671,470.85552531696936 L631.9372250118472,430.4773473767204 M600.6775480910878,412.66937800114346 L631.9372250118472,430.4773473767204 M632.0723643417202,383.42491466761004 L631.9372250118472,430.4773473767204 M600.7429614458645,365.65805129685975 L632.0723643417202,383.42491466761004 M671.9455540391708,314.67322540096563 L669.8983553462829,314.80368101839645 M669.8983553462829,314.80368101839645 L667.9562101989623,315.18852977620986 M667.9562101989623,315.18852977620986 L666.2163985344636,315.8085218284496 M666.2163985344636,315.8085218284496 L664.766087066357,316.6326512894399 M664.766087066357,316.6326512894399 L663.677998639081,317.61968099109845 M663.677998639081,317.61968099109845 L663.0067678633782,318.7201917819042 M663.0067678633782,318.7201917819042 L662.7861760516054,319.8790511635034 M711.9112213663216,291.9583313469005 L671.9455540391708,314.67322540096563 M671.5020288556985,269.3434972505715 L711.9112213663216,291.9583313469005 M560.3020718886477,332.26519058232543 L671.5020288556985,269.3434972505715 M560.3020718886477,332.26519058232543 L560.0327527191217,333.5148084454965 M560.0327527191217,333.5148084454965 L559.2429890534826,334.69208156335384 M559.2429890534826,334.69208156335384 L557.9785292197195,335.7285163855418 M557.9785292197195,335.7285163855418 L556.3127971338506,336.5637809416853 M556.3127971338506,336.5637809416853 L554.3426173991367,337.1492226434771 M554.3426173991367,337.1492226434771 L552.1826006416769,337.450729829913 M552.1826006416769,337.450729829913 L549.9584497285261,337.45073017408504 M549.9584497285261,337.45073017408504 L547.7996142361426,337.14922298762906 M547.7996142361426,337.14922298762906 L545.8317272831813,336.56378114815305 M545.8317272831813,336.56378114815305 L544.1692612496995,335.7285163855418 M544.1692612496995,335.7285163855418 L542.908859313163,334.6920807377827 M542.908859313163,334.6920807377827 L542.1237017211272,333.51480851427834 M542.1237017211272,333.51480851427834 L541.8592754189798,332.2651900322038 M510.83827836027024,314.6732232079829 L541.8592754189798,332.2651900322038 M510.83827836027024,314.6732232079829 L439.396798412684,423.71038956366596 M439.396798412684,423.71038956366596 L632.0723643417202,383.42491466761004 M671.9455540391708,314.67322540096563 L671.7232981471345,361.56583833229394 M711.9112213663216,291.9583313469005 L711.601433704588,338.7976946947051 M671.5020288556985,269.3434972505715 L671.2817244981339,316.129625185443 M560.3020718886477,332.26519058232543 L560.3262860473031,379.19889118222443 M541.8592754189798,332.2651900322038 L541.9242674946149,379.1988906308199 M510.83827836027024,314.6732232079829 L510.9716319039993,361.5658361341809 M439.396798412684,423.71038956366596 L439.6909204531671,470.85552531696936" stroke="black"  stroke-width="4"  fill="red"/>
<path d="M483.2899919165003,420.7925625714266 L483.0916070651115,373.1190194577053 M632.2081069632493,336.16242956237875 L632.3444568726553,288.68850066802236 M483.2899919165003,420.7925625714266 L632.2081069632493,336.16242956237875 M483.0916070651115,373.1190194577053 L632.3444568726553,288.68850066802236 M600.808666318338,318.43721640064507 L600.8746646361163,271.0054879774426 M632.2081069632493,336.16242956237875 L600.808666318338,318.43721640064507 M632.3444568726553,288.68850066802236 L600.8746646361163,271.0054879774426 M600.8444580030985,260.5560747347347 L598.6232709476134,260.7077438067171 M598.6232709476134,260.7077438067171 L596.5318575706593,261.15395821475204 M596.5318575706593,261.15395821475204 L594.691623781952,261.86886167188936 M594.691623781952,261.86886167188936 L593.2094433681308,262.81100513444267 M593.2094433681308,262.81100513444267 L592.1714833370843,263.92574558032914 M592.1714833370843,263.92574558032914 L591.6381741587148,265.14838686781616 M591.6381741587148,265.14838686781616 L591.6406805629961,266.40792366550335 M591.6406805629961,266.40792366550335 L592.1790519357949,267.63115710128494 M592.1790519357949,267.63115710128494 L593.2221716796254,268.74694658275473 M593.2221716796254,268.74694658275473 L594.7095296047386,269.6903581415477 M594.7095296047386,269.6903581415477 L596.5547055379401,270.40645355242305 M596.5547055379401,270.40645355242305 L598.6503969080619,270.85351478454857 M598.6503969080619,270.85351478454857 L600.8746646361163,271.0054879774426 M600.7785940704816,307.9628015852087 L600.8444580030985,260.5560747347347 M600.808666318338,318.43721640064507 L598.5893553410351,318.28487993331294 M598.5893553410351,318.28487993331294 L596.4983357247571,317.836749994363 M596.4983357247571,317.836749994363 L594.6572743962322,317.1189425647377 M594.6572743962322,317.1189425647377 L593.1732344962514,316.1732751855556 M593.1732344962514,316.1732751855556 L592.1324434614527,315.0548172047689 M592.1324434614527,315.0548172047689 L591.5952766396003,313.82865768530405 M591.5952766396003,313.82865768530405 L591.5927813875044,312.56610728147746 M591.5927813875044,312.56610728147746 L592.1249085362945,311.3405400037255 M592.1249085362945,311.3405400037255 L593.1605628129882,310.223131224897 M593.1605628129882,310.223131224897 L594.6394482352719,309.2787321491402 M594.6394482352719,309.2787321491402 L596.4755894033221,308.5621168625446 M596.4755894033221,308.5621168625446 L598.5623500624816,308.1148338854736 M598.5623500624816,308.1148338854736 L600.7785940704816,307.9628015852087 M712.5349178585024,197.65649100721294 L600.8444580030985,260.5560747347347 M712.2223797519324,244.91171689886633 L712.5349178585024,197.65649100721294 M600.7785940704816,307.9628015852087 L712.2223797519324,244.91171689886633 M671.7233058470724,222.35081066960907 L671.9455618418773,175.1502127232678 M712.2223797519324,244.91171689886633 L671.7233058470724,222.35081066960907 M712.5349178585024,197.65649100721294 L671.9455618418773,175.1502127232678 M631.66873611195,244.91172125509948 L631.8026810075069,197.6564953529193 M671.7233058470724,222.35081066960907 L631.66873611195,244.91172125509948 M671.9455618418773,175.1502127232678 L631.8026810075069,197.6564953529193 M622.4889833674118,250.08225690773537 L622.6026336824788,202.81454233409102 M631.66873611195,244.91172125509948 L631.444704812499,246.0618199706616 M631.444704812499,246.0618199706616 L630.7701452159376,247.15449062466791 M630.7701452159376,247.15449062466791 L629.6787728221154,248.1348818210952 M629.6787728221154,248.1348818210952 L628.2252376779035,248.95376018782596 M628.2252376779035,248.95376018782596 L626.4824229914169,249.56997913048173 M626.4824229914169,249.56997913048173 L624.5377929847928,249.95255780845937 M624.5377929847928,249.95255780845937 L622.4889833674118,250.08225690773537 M631.8026810075069,197.6564953529193 L631.5781680637118,198.80381517295396 M631.5781680637118,198.80381517295396 L630.902126888895,199.8938462207434 M630.902126888895,199.8938462207434 L629.808346764148,200.87186948851414 M629.808346764148,200.87186948851414 L628.3515981516698,201.6887703456665 M628.3515981516698,201.6887703456665 L626.6049253870102,202.30350137239785 M626.6049253870102,202.30350137239785 L624.6559864584208,202.6851563625181 M624.6559864584208,202.6851563625181 L622.6026336824788,202.81454233409102 M560.2777501676331,285.12300454064734 L560.2533201753898,237.77095907321603 M622.4889833674118,250.08225690773537 L560.2777501676331,285.12300454064734 M622.6026336824788,202.81454233409102 L560.2533201753898,237.77095907321603 M541.728423255975,237.7709585257107 L541.9940108958567,239.01463469471258 M541.9940108958567,239.01463469471258 L542.7826496677175,240.18630986139488 M542.7826496677175,240.18630986139488 L544.0486515940461,241.21781901195448 M544.0486515940461,241.21781901195448 L545.7185115930505,242.04911417633497 M545.7185115930505,242.04911417633497 L547.6951565578884,242.63177405922846 M547.6951565578884,242.63177405922846 L549.8636041690228,242.93184863093495 M549.8636041690228,242.93184863093495 L552.0976611751125,242.9318482883982 M552.0976611751125,242.9318482883982 L554.2673005915817,242.63177371671176 M554.2673005915817,242.63177371671176 L556.2462587994768,242.0491139708484 M556.2462587994768,242.0491139708484 L557.9194140187175,241.21781901195448 M557.9194140187175,241.21781901195448 L559.1895100550706,240.18631068304154 M559.1895100550706,240.18631068304154 L559.9827960152966,239.01463462625782 M559.9827960152966,239.01463462625782 L560.2533201753898,237.77095907321603 M541.7939946403142,285.12300399182516 L541.728423255975,237.7709585257107 M560.2777501676331,285.12300454064734 L560.0078298476269,286.3696705961935 M560.0078298476269,286.3696705961935 L559.2163089532462,287.544163410972 M559.2163089532462,287.544163410972 L557.9490372849167,288.5781510334999 M557.9490372849167,288.5781510334999 L556.2796018840455,289.4114437233636 M556.2796018840455,289.4114437233636 L554.3050426695002,289.99550351157734 M554.3050426695002,289.99550351157734 L552.1402252757129,290.29629905888027 M552.1402252757129,290.29629905888027 L549.9111323217118,290.2962994022401 M549.9111323217118,290.2962994022401 L547.747501445568,289.99550385491693 M547.747501445568,289.99550385491693 L545.7752452093345,289.41144392934393 M545.7752452093345,289.41144392934393 L544.1090903961657,288.5781510334999 M544.1090903961657,288.5781510334999 L542.8458946711303,287.54416258735034 M542.8458946711303,287.54416258735034 L542.0590003392349,286.36967066481293 M542.0590003392349,286.36967066481293 L541.7939946403142,285.12300399182516 M510.7043334562828,267.5726635942059 L510.5697933016454,220.26278927050456 M541.7939946403142,285.12300399182516 L510.7043334562828,267.5726635942059 M541.728423255975,237.7709585257107 L510.5697933016454,220.26278927050456 M361.7943244259908,351.07619620685676 L361.3251040952346,303.5668657150097 M510.7043334562828,267.5726635942059 L361.7943244259908,351.07619620685676 M510.5697933016454,220.26278927050456 L361.3251040952346,303.5668657150097 M483.0916070651115,373.1190194577053 L487.5991619894778,381.3845987723183 M487.5991619894778,381.3845987723183 L491.0098240147038,389.8354726530319 M491.0098240147038,389.8354726530319 L493.3018767838565,398.42494995727407 M493.3018767838565,398.42494995727407 L494.4597308075338,407.1053020204916 M494.4597308075338,407.1053020204916 L494.4740123634198,415.8280808703116 M494.4740123634198,415.8280808703116 L493.3417916254417,424.54434060010186 M493.3417916254417,424.54434060010186 L491.06655794888945,433.20493835843587 M491.06655794888945,433.20493835843587 L487.6583144228907,441.760783769226 M487.6583144228907,441.760783769226 L483.1335904989493,450.1631593011139 M483.1335904989493,450.1631593011139 L477.5153716784556,458.3639658488789 M477.5153716784556,458.3639658488789 L470.8330545526028,466.31606626509597 M470.8330545526028,466.31606626509597 L463.1223477323008,473.9735164465426 M463.1223477323008,473.9735164465426 L454.4250432219103,481.29189792931834 M454.4250432219103,481.29189792931834 L444.78893019583916,488.22855914220816 M444.78893019583916,488.22855914220816 L434.2674571236513,494.74292467836545 M434.2674571236513,494.74292467836545 L422.9194618332318,500.7967616393049 M422.9194618332318,500.7967616393049 L410.8088737601062,506.3543831883425 M410.8088737601062,506.3543831883425 L398.00436963345396,511.3829633009969 M398.00436963345396,511.3829633009969 L384.5789391512508,515.8526388821396 M384.5789391512508,515.8526388821396 L370.6094821030789,519.7368594263168 M370.6094821030789,519.7368594263168 L356.1762367212299,523.0124939777736 M356.1762367212299,523.0124939777736 L341.36243670355447,525.6599988054257 M341.36243670355447,525.6599988054257 L326.2538079801371,527.6634923832387 M326.2538079801371,527.6634923832387 L310.93776334256927,529.0110285981161 M310.93776334256927,529.0110285981161 L295.50324876405784,529.6944978705745 M295.50324876405784,529.6944978705745 L280.0397747189818,529.7098364046702 M280.0397747189818,529.7098364046702 L264.63723954306306,529.0569039783296 M264.63723954306306,529.0569039783296 L249.38502948691718,527.7396463022535 M249.38502948691718,527.7396463022535 L234.37156075384763,525.7659812259806 M234.37156075384763,525.7659812259806 L219.68387777305276,523.1476709099277 M219.68387777305276,523.1476709099277 L205.4068116177471,519.9004163839793 M205.4068116177471,519.9004163839793 L191.6226985797913,516.0435915546182 M191.6226985797913,516.0435915546182 L178.41074182343138,511.6001719153963 M178.41074182343138,511.6001719153963 L165.84652957220007,506.59659356504693 M165.84652957220007,506.59659356504693 L154.00165440168698,501.0625102650379 M154.00165440168698,501.0625102650379 L142.94320052795786,495.03065159298274 M142.94320052795786,495.03065159298274 L132.7334228003998,488.5365582349279 M132.7334228003998,488.5365582349279 L123.42934439911369,481.6183743528695 M123.42934439911369,481.6183743528695 L115.0824986562476,474.3165668744028 M115.0824986562476,474.3165668744028 L107.73858144025576,466.67369932235374 M107.73858144025576,466.67369932235374 L101.43732973958726,458.7341086190352 M101.43732973958726,458.7341086190352 L96.2122282464016,450.54366597112755 M96.2122282464016,450.54366597112755 L92.09039791780219,442.1494930625924 M92.09039791780219,442.1494930625924 L89.09260838231523,433.5996018168679 M89.09260838231523,433.5996018168679 L87.23294378156515,424.94274429776374 M87.23294378156515,424.94274429776374 L86.51909735799575,416.22796186475836 M86.51909735799575,416.22796186475836 L86.95226389035065,407.50438976184836 M86.95226389035065,407.50438976184836 L88.52704783883962,398.8210387597018 M88.52704783883962,398.8210387597018 L91.2318432105094,390.22633992922806 M91.2318432105094,390.22633992922806 L95.04869258101053,381.768099391331 M95.04869258101053,381.768099391331 L99.95371805792178,373.49301721522556 M99.95371805792178,373.49301721522556 L105.91698719335699,365.44666411880655 M105.91698719335699,365.44666411880655 L112.90301433785908,357.6730990113043 M112.90301433785908,357.6730990113043 L120.87089748541257,350.2146544962884 M120.87089748541257,350.2146544962884 L129.77459229420185,343.1118118809108 M129.77459229420185,343.1118118809108 L139.56307125624812,336.4029453409172 M139.56307125624812,336.4029453409172 L150.18087782453426,330.12415865045114 M150.18087782453426,330.12415865045114 L161.56824388538502,324.3090969548586 M161.56824388538502,324.3090969548586 L173.66155614883886,318.98880409343457 M173.66155614883886,318.98880409343457 L186.3936208038221,314.1915975374701 M186.3936208038221,314.1915975374701 L199.69402663050124,309.9429510635261 M199.69402663050124,309.9429510635261 L213.48957715228502,306.2653309975635 M213.48957715228502,306.2653309975635 L227.70459736556774,303.17816285113145 M227.70459736556774,303.17816285113145 L242.26139933803228,300.6977097196078 M242.26139933803228,300.6977097196078 L257.080572086146,298.83701281990193 M257.080572086146,298.83701281990193 L272.0814680642819,297.6058534629067 M272.0814680642819,297.6058534629067 L287.18252761105657,297.0106916400829 M287.18252761105657,297.0106916400829 L302.30173946600365,297.05464289755264 M302.30173946600365,297.05464289755264 L317.35698793314407,297.7374931971576 M317.35698793314407,297.7374931971576 L332.2665032821568,299.0556408672401 M332.2665032821568,299.0556408672401 L346.9491839330205,301.00217391302255 M346.9491839330205,301.00217391302255 L361.3251040952346,303.5668657150097 M361.7943244259908,351.07619620685676 L347.4504117208576,348.5054088574831 M347.4504117208576,348.5054088574831 L332.8004398919435,346.5542475390685 M332.8004398919435,346.5542475390685 L317.9241622671909,345.23296477068254 M317.9241622671909,345.23296477068254 L302.90250557396314,344.5484900738947 M302.90250557396314,344.5484900738947 L287.81706327398496,344.5044342560943 M287.81706327398496,344.5044342560943 L272.749773927912,345.1010119013057 M272.749773927912,345.1010119013057 L257.7824716352916,346.33509955653955 M257.7824716352916,346.33509955653955 L242.99653947845815,348.2002208483613 M242.99653947845815,348.2002208483613 L228.47244987334747,350.6865696904989 M228.47244987334747,350.6865696904989 L214.28944069745182,353.78107188314857 M214.28944069745182,353.78107188314857 L200.5250297468237,357.4674232831703 M200.5250297468237,357.4674232831703 L187.2547253810092,361.7261494714048 M187.2547253810092,361.7261494714048 L174.55156186232864,366.5347277169517 M174.55156186232864,366.5347277169517 L162.48579322083052,371.86762050279043 M162.48579322083052,371.86762050279043 L151.12446201028766,377.69643975964254 M151.12446201028766,377.69643975964254 L140.5310369695323,383.99006456542554 M140.5310369695323,383.99006456542554 L130.76514894561274,390.7147666014386 M130.76514894561274,390.7147666014386 L121.88212556121425,397.8343532666866 M121.88212556121425,397.8343532666866 L113.9328740477689,405.3103564484908 M113.9328740477689,405.3103564484908 L106.96332842725798,413.1021962738812 M106.96332842725798,413.1021962738812 L101.0142907996314,421.16743763793 M101.0142907996314,421.16743763793 L96.12115804725039,429.46191557267355 M96.12115804725039,429.46191557267355 L92.31378543673424,437.93995032394395 M92.31378543673424,437.93995032394395 L89.61598657039355,446.5547307696262 M89.61598657039355,446.5547307696262 L88.04566732712794,455.25833782682173 M88.04566732712794,455.25833782682173 L87.61439608704023,464.0022267171264 M87.61439608704023,464.0022267171264 L88.3275445717486,472.73727234735804 M88.3275445717486,472.73727234735804 L90.18390906605089,481.41422560618014 M90.18390906605089,481.41422560618014 L93.17580227153519,489.9839322228091 M93.17580227153519,489.9839322228091 L97.28916082797934,498.3975286105782 M97.28916082797934,498.3975286105782 L102.50325161353317,506.6068937191501 M102.50325161353317,506.6068937191501 L108.79100532452867,514.5647994285293 M108.79100532452867,514.5647994285293 L116.11900428192104,522.225271553551 M116.11900428192104,522.225271553551 L124.44759377573803,529.543874227058 M124.44759377573803,529.543874227058 L133.73117494674483,536.4779494768825 M133.73117494674483,536.4779494768825 L143.91832604186328,542.9869410673086 M143.91832604186328,542.9869410673086 L154.9521493176233,549.0326210847331 M154.9521493176233,549.0326210847331 L166.7705286856853,554.5793711838346 M166.7705286856853,554.5793711838346 L179.3065311169434,559.5943905862259 M179.3065311169434,559.5943905862259 L192.48872690970845,564.0479612856009 M192.48872690970845,564.0479612856009 L206.24170118440958,567.9135901141833 M206.24170118440958,567.9135901141833 L220.4864336545287,571.168252142161 M220.4864336545287,571.168252142161 L235.1407792372245,573.7925318921205 M235.1407792372245,573.7925318921205 L250.12010481062984,575.7706947133856 M250.12010481062984,575.7706947133856 L265.33756985834816,577.0909533163845 M265.33756985834816,577.0909533163845 L280.70496594832974,577.745372948508 M280.70496594832974,577.745372948508 L296.13311736509866,577.7299994794571 M296.13311736509866,577.7299994794571 L311.53233783880245,577.0449734373142 M311.53233783880245,577.0449734373142 L326.8133282293302,575.6943672802512 M326.8133282293302,575.6943672802512 L341.88735257521887,573.686307902364 M341.88735257521887,573.686307902364 L356.6672043626096,571.0327669416824 M356.6672043626096,571.0327669416824 L371.06735968281305,567.7496599356207 M371.06735968281305,567.7496599356207 L385.0047805900705,563.8565725557742 M385.0047805900705,563.8565725557742 L398.3994170426338,559.3766855348185 M398.3994170426338,559.3766855348185 L411.1745489722649,554.3366066983017 M411.1745489722649,554.3366066983017 L423.25735653219556,548.7662638589754 M423.25735653219556,548.7662638589754 L434.5793219786426,542.698554461643 M434.5793219786426,542.698554461643 L445.0766629673162,536.1692433405922 M445.0766629673162,536.1692433405922 L454.69067606770045,529.216647357601 M454.69067606770045,529.216647357601 L463.3680338539492,521.8814314894278 M463.3680338539492,521.8814314894278 L471.0610542726665,514.2063419761337 M471.0610542726665,514.2063419761337 L477.7280378218453,506.2358964353063 M477.7280378218453,506.2358964353063 L483.3333536773624,498.01614214151596 M483.3333536773624,498.01614214151596 L487.84766791973436,489.59432274162634 M487.84766791973436,489.59432274162634 L491.2480425204991,481.0186466998091 M491.2480425204991,481.0186466998091 L493.51798035465436,472.3379430224513 M493.51798035465436,472.3379430224513 L494.6474955217154,463.60141514411583 M494.6474955217154,463.60141514411583 L494.63310091984044,454.85831983552794 M494.63310091984044,454.85831983552794 L493.47771408539506,446.15771720875574 M493.47771408539506,446.15771720875574 L491.19068202874803,437.54816901632154 M491.19068202874803,437.54816901632154 L487.7875537929093,429.07751673569993 M487.7875537929093,429.07751673569993 L483.2899919165003,420.7925625714266 M311.2950301830683,448.50157131942063 L314.806749664171,451.01144270340086 M314.806749664171,451.01144270340086 L317.35557715669427,453.88338351890667 M317.35557715669427,453.88338351890667 L318.8365558647282,457.0003100217595 M318.8365558647282,457.0003100217595 L319.1881574818655,460.2349321353507 M319.1881574818655,460.2349321353507 L318.3949451511814,463.45492192431504 M318.3949451511814,463.45492192431504 L316.48839230314536,466.5282939595539 M316.48839230314536,466.5282939595539 L313.54575191361425,469.32885003044424 M313.54575191361425,469.32885003044424 L309.68693488799346,471.7414402974463 M309.68693488799346,471.7414402974463 L305.0698882526865,473.666666116272 M305.0698882526865,473.666666116272 L299.88391655657915,475.0251543160837 M299.88391655657915,475.0251543160837 L294.3420956549531,475.76079735432086 M294.3420956549531,475.76079735432086 L288.67218524844617,475.84325223648136 M288.67218524844617,475.84325223648136 L283.10740057802957,475.26909243902276 M283.10740057802957,475.26909243902276 L277.87654357950873,474.0620327900411 M277.87654357950873,474.0620327900411 L273.194511433568,472.2719102417402 M273.194511433568,472.2719102417402 L269.2533877186817,469.9725645363663 M269.2533877186817,469.9725645363663 L266.214504391508,467.25873351444955 M266.214504391508,467.25873351444955 L264.2018386650079,464.2420757437708 M264.2018386650079,464.2420757437708 L263.2970227766676,461.04650416039215 M263.2970227766676,461.04650416039215 L263.53610806854516,457.8030522834 M263.53610806854516,457.8030522834 L264.9082246218053,454.6444962960692 M264.9082246218053,454.6444962960692 L267.35633665795206,451.6998401466506 M267.35633665795206,451.6998401466506 L270.77949177166727,449.0892189326821 M270.77949177166727,449.0892189326821 L275.03728712401073,446.9189129449551 M275.03728712401073,446.9189129449551 L279.9554823230821,445.2772117615603 M279.9554823230821,445.2772117615603 L285.33330322466355,444.23076746760756 M285.33330322466355,444.23076746760756 L290.9514055735374,443.82206677394896 M290.9514055735374,443.82206677394896 L296.58078253701444,444.06769830179053 M296.58078253701444,444.06769830179053 L301.99200656155324,444.9576941437078 M301.99200656155324,444.9576941437078 L306.96441746826315,446.4559337444743 M306.96441746826315,446.4559337444743 L311.2950301830683,448.50157131942063 M311.2950301830683,448.50157131942063 L310.70717762130346,400.76334554704863 M310.70717762130346,400.76334554704863 L306.3668894921266,398.7224718547793 M306.3668894921266,398.7224718547793 L301.38332422986224,397.22772250485417 M301.38332422986224,397.22772250485417 L295.9599209453855,396.33980042865227 M295.9599209453855,396.33980042865227 L290.3178344842328,396.09474130344944 M290.3178344842328,396.09474130344944 L284.68700804785783,396.5024896038435 M284.68700804785783,396.5024896038435 L279.2969648257269,397.5464957032222 M279.2969648257269,397.5464957032222 L274.3675456730783,399.184372710294 M274.3675456730783,399.184372710294 L270.09998171653115,401.3496249808954 M270.09998171653115,401.3496249808954 L266.66891278805235,403.95416987247063 M266.66891278805235,403.95416987247063 L264.2150669314099,406.891975760408 M264.2150669314099,406.891975760408 L262.83963442209154,410.0431880551587 M262.83963442209154,410.0431880551587 L262.59979083507085,413.2791033490937 M262.59979083507085,413.2791033490937 L263.50644195458085,416.4672540585946 M263.50644195458085,416.4672540585946 L265.52346581246655,419.47691049133596 M265.52346581246655,419.47691049133596 L268.5690552712841,422.1844463692419 M268.5690552712841,422.1844463692419 L272.51896057267015,424.47846088702875 M272.51896057267015,424.47846088702875 L277.21149036540487,426.2644345001895 M277.21149036540487,426.2644345001895 L282.45412952115686,427.4686973514818 M282.45412952115686,427.4686973514818 L288.031495130192,428.0415270227662 M288.031495130192,428.0415270227662 L293.71426575793214,427.95926315077315 M293.71426575793214,427.95926315077315 L299.26869480544593,427.22532439050883 M299.26869480544593,427.22532439050883 L304.46650223146435,425.86998404137495 M304.46650223146435,425.86998404137495 L309.0941242890942,423.94922066988715 M309.0941242890942,423.94922066988715 L312.9618220554356,421.54222476867716 M312.9618220554356,421.54222476867716 L315.911285178538,418.74816584660834 M315.911285178538,418.74816584660834 L317.8223258062375,415.6819277864102 M317.8223258062375,415.6819277864102 L318.6175108947383,412.4694166902696 M318.6175108947383,412.4694166902696 L318.26529080362207,409.24231177269314 M318.26529080362207,409.24231177269314 L316.781132429359,406.13263322811645 M316.781132429359,406.13263322811645 L314.2266983315269,403.26737441466634 M314.2266983315269,403.26737441466634 L310.70717762130346,400.76334554704863" stroke="black"  stroke-width="4"  fill="red"/>
<path d="M600.9106164484332,212.93736716251203 L600.8444580030985,260.5560747347347 M600.8746646361163,271.0054879774426 L598.6503969080619,270.85351478454857 M598.6503969080619,270.85351478454857 L596.5547055379401,270.40645355242305 M596.5547055379401,270.40645355242305 L594.7095296047386,269.6903581415477 M594.7095296047386,269.6903581415477 L593.2221716796254,268.74694658275473 M593.2221716796254,268.74694658275473 L592.1790519357949,267.63115710128494 M592.1790519357949,267.63115710128494 L591.6406805629961,266.40792366550335 M591.6406805629961,266.40792366550335 L591.6381741587148,265.14838686781616 M591.6381741587148,265.14838686781616 L592.1714833370843,263.92574558032914 M592.1714833370843,263.92574558032914 L593.2094433681308,262.81100513444267 M593.2094433681308,262.81100513444267 L594.691623781952,261.86886167188936 M594.691623781952,261.86886167188936 L596.5318575706593,261.15395821475204 M596.5318575706593,261.15395821475204 L598.6232709476134,260.7077438067171 M598.6232709476134,260.7077438067171 L600.8444580030985,260.5560747347347 M600.9409583694387,223.36145005420764 L600.8746646361163,271.0054879774426 M600.9106164484332,212.93736716251203 L598.6844642465104,213.08866823424682 M598.6844642465104,213.08866823424682 L596.5883773576659,213.53380003397825 M596.5883773576659,213.53380003397825 L594.7440326632733,214.24696916854663 M594.7440326632733,214.24696916854663 L593.2585425425201,215.1868273749793 M593.2585425425201,215.1868273749793 L592.2182664673185,216.2988644143624 M592.2182664673185,216.2988644143624 L591.6837699964394,217.51854124287053 M591.6837699964394,217.51854124287053 L591.6862876278317,218.7750248045976 M591.6862876278317,218.7750248045976 L592.2258689658114,219.995293668884 M592.2258689658114,219.995293668884 L593.2713278626896,221.1083795436414 M593.2713278626896,221.1083795436414 L594.7620186830727,222.04950559823118 M594.7620186830727,222.04950559823118 L596.6113276536654,222.76386645880308 M596.6113276536654,222.76386645880308 L598.7117116996241,223.20984491752594 M598.7117116996241,223.20984491752594 L600.9409583694387,223.36145005420764 M663.3980024921636,177.9105484961776 L663.1931535666606,225.44379207443282 M663.3980024921636,177.9105484961776 L600.9106164484332,212.93736716251203 M663.1931535666606,225.44379207443282 L600.8444580030985,260.5560747347347 M672.393029108333,220.26279145302468 L670.3367382540727,220.39262467918883 M670.3367382540727,220.39262467918883 L668.3859782538013,220.77563744563838 M668.3859782538013,220.77563744563838 L666.6384600219511,221.3926719801844 M666.6384600219511,221.3926719801844 L665.1817360891355,222.21287064830548 M665.1817360891355,222.21287064830548 L664.0888508461137,223.19519335146953 M664.0888508461137,223.19519335146953 L663.4146800644901,224.29045695662938 M663.4146800644901,224.29045695662938 L663.1931535666606,225.44379207443282 M712.5349178585024,197.65649100721294 L672.393029108333,220.26279145302468 M671.9455618418773,175.1502127232678 L712.5349178585024,197.65649100721294 M560.2533201753898,237.77095907321603 L671.9455618418773,175.1502127232678 M541.728423255975,237.7709585257107 L541.9940108958567,239.01463469471258 M541.9940108958567,239.01463469471258 L542.7826496677175,240.18630986139488 M542.7826496677175,240.18630986139488 L544.0486515940461,241.21781901195448 M544.0486515940461,241.21781901195448 L545.7185115930505,242.04911417633497 M545.7185115930505,242.04911417633497 L547.6951565578884,242.63177405922846 M547.6951565578884,242.63177405922846 L549.8636041690228,242.93184863093495 M549.8636041690228,242.93184863093495 L552.0976611751125,242.9318482883982 M552.0976611751125,242.9318482883982 L554.2673005915817,242.63177371671176 M554.2673005915817,242.63177371671176 L556.2462587994768,242.0491139708484 M556.2462587994768,242.0491139708484 L557.9194140187175,241.21781901195448 M557.9194140187175,241.21781901195448 L559.1895100550706,240.18631068304154 M559.1895100550706,240.18631068304154 L559.9827960152966,239.01463462625782 M559.9827960152966,239.01463462625782 L560.2533201753898,237.77095907321603 M510.5697933016453,220.26278927050464 L541.728423255975,237.7709585257107 M510.5697933016453,220.26278927050464 L438.80459113823065,328.78485354352483 M438.80459113823065,328.78485354352483 L632.3444568726553,288.68850066802236 M600.8746646361163,271.0054879774426 L632.3444568726553,288.68850066802236 M632.4814181544187,241.00170586161784 L632.3444568726553,288.68850066802236 M600.9409583694387,223.36145005420764 L632.4814181544187,241.00170586161784 M672.6182613974005,172.7422040161513 L670.5573941095076,172.87171994300303 M670.5573941095076,172.87171994300303 L668.6022979592163,173.25379670766984 M668.6022979592163,173.25379670766984 L666.8509007847312,173.86932347541835 M666.8509007847312,173.86932347541835 L665.390949308794,174.68751818788135 M665.390949308794,174.68751818788135 L664.2956497639634,175.66744121057206 M664.2956497639634,175.66744121057206 L663.6199993023863,176.7600297317939 M663.6199993023863,176.7600297317939 L663.3980024921636,177.9105484961776 M712.8488448832438,150.19126306923295 L672.6182613974005,172.7422040161513 M672.1688033516762,127.74032054827683 L712.8488448832438,150.19126306923295 M560.2287811873304,190.20764973017606 L672.1688033516762,127.74032054827683 M560.2287811873304,190.20764973017606 L559.9576504794528,191.44829565545277 M559.9576504794528,191.44829565545277 L559.1625915637316,192.61711809380097 M559.1625915637316,192.61711809380097 L557.8896585419105,193.64611467808572 M557.8896585419105,193.64611467808572 L556.212766890369,194.4753857535325 M556.212766890369,194.4753857535325 L554.2293900448963,195.05662712654458 M554.2293900448963,195.05662712654458 L552.0549070761609,195.3559712822333 M552.0549070761609,195.3559712822333 L549.8158638593628,195.3559716239363 M549.8158638593628,195.3559716239363 L547.6425780190912,195.05662746822753 M547.6425780190912,195.05662746822753 L545.661524750216,194.47538595851876 M545.661524750216,194.47538595851876 L543.987943049532,193.64611467808572 M543.987943049532,193.64611467808572 L542.7191224262073,192.61711727415536 M542.7191224262073,192.61711727415536 L541.928731462953,191.4482957237409 M541.928731462953,191.4482957237409 L541.6625593211315,190.20764918400454 M510.4346539195841,172.74220183896514 L541.6625593211315,190.20764918400454 M510.4346539195841,172.74220183896514 L438.50648817842773,281.00161198404555 M438.50648817842773,281.00161198404555 L632.4814181544187,241.00170586161784 M672.6182613974005,172.7422040161513 L672.393029108333,220.26279145302468 M712.8488448832438,150.19126306923295 L712.5349178585024,197.65649100721294 M672.1688033516762,127.74032054827683 L671.9455618418773,175.1502127232678 M560.2287811873304,190.20764973017606 L560.2533201753898,237.77095907321603 M541.6625593211315,190.20764918400454 L541.728423255975,237.7709585257107 M510.4346539195841,172.74220183896514 L510.5697933016453,220.26278927050464 M438.50648817842773,281.00161198404555 L438.80459113823065,328.78485354352483" stroke="black"  stroke-width="4"  fill="red"/>
<path d="M601.0438247627277,117.0583341459423 L600.9770713349691,165.1052908087374 M601.0075494547882,175.50371091748937 L598.7733015067115,175.35247867196534 M598.7733015067115,175.35247867196534 L596.6682037257033,174.90759720963229 M596.6682037257033,174.90759720963229 L594.8147431640707,174.1949936814322 M594.8147431640707,174.1949936814322 L593.320704480678,173.25618314486366 M593.320704480678,173.25618314486366 L592.2728959181327,172.14583637446628 M592.2728959181327,172.14583637446628 L591.7320991650912,170.92857099725708 M591.7320991650912,170.92857099725708 L591.729570230998,169.6751807417094 M591.729570230998,169.6751807417094 L592.2652592916234,168.45850726832606 M592.2652592916234,168.45850726832606 L593.307861768019,167.34920909866258 M593.307861768019,167.34920909866258 L594.7966764073294,166.41166612054957 M594.7966764073294,166.41166612054957 L596.6451504120608,165.7002540514961 M596.6451504120608,165.7002540514961 L598.7459317429791,165.25621905526205 M598.7459317429791,165.25621905526205 L600.9770713349691,165.1052908087374 M601.0744400005925,127.43075528052475 L601.0075494547882,175.50371091748937 M601.0438247627277,117.0583341459423 L598.8076753794904,117.20888468776315 M598.8076753794904,117.20888468776315 L596.7021785281131,117.65180852486827 M596.7021785281131,117.65180852486827 L594.8495566781071,118.3614405283979 M594.8495566781071,118.3614405283979 L593.3574026038054,119.29663796718444 M593.3574026038054,119.29663796718444 L592.3124632959383,120.40316140298728 M592.3124632959383,120.40316140298728 L591.77557631095,121.61679218530617 M591.77557631095,121.61679218530617 L591.7781166240319,122.86704861132307 M591.7781166240319,122.86704861132307 L592.3201342808053,124.08127114573608 M592.3201342808053,124.08127114573608 L593.3703030963109,125.18884291259201 M593.3703030963109,125.18884291259201 L594.8677047167025,126.12530757777876 M594.8677047167025,126.12530757777876 L596.7253355546809,126.83613073378376 M596.7253355546809,126.83613073378376 L598.8351682793452,127.27990081581169 M598.8351682793452,127.27990081581169 L601.0744400005925,127.43075528052475 M663.8104509607715,82.20580670332345 L663.6037661369414,130.16505301576126 M663.8104509607715,82.20580670332345 L601.0438247627277,117.0583341459423 M663.6037661369414,130.16505301576126 L600.9770713349691,165.1052908087374 M672.8444989111673,125.00952945613955 L670.7790347773525,125.13872395447373 M670.7790347773525,125.13872395447373 L668.8195831607397,125.51985253602925 M668.8195831607397,125.51985253602925 L667.0642897884421,126.13385191276052 M667.0642897884421,126.13385191276052 L665.6010964385257,126.95001658376503 M665.6010964385257,126.95001658376503 L664.5033719039775,127.92750868375293 M664.5033719039775,127.92750868375293 L663.8262352555294,129.01738728653277 M663.8262352555294,129.01738728653277 L663.6037661369414,130.16505301576126 M713.1641698617505,102.51466691864618 L672.8444989111673,125.00952945613955 M672.3930367727177,80.11977577063175 L713.1641698617505,102.51466691864618 M560.2041324914252,142.43169640226813 L672.3930367727177,80.11977577063175 M541.5964009246587,142.43169585744795 L541.8631601458849,143.66927320925225 M541.8631601458849,143.66927320925225 L542.6553111023808,144.83520387462966 M542.6553111023808,144.83520387462966 L543.9269629998666,145.86165672133663 M543.9269629998666,145.86165672133663 L545.6042830258621,146.68887767553952 M545.6042830258621,146.68887767553952 L547.5897643020509,147.26868227841842 M547.5897643020509,147.26868227841842 L549.7679100060474,147.5672864731239 M549.7679100060474,147.5672864731239 L552.0119617370049,147.56728613226554 M552.0119617370049,147.56728613226554 L554.1913099283452,147.26868193758014 M554.1913099283452,147.26868193758014 L556.1791251840755,146.68887747105987 M556.1791251840755,146.68887747105987 L557.8597699905044,145.86165672133663 M557.8597699905044,145.86165672133663 L559.1355526977753,144.83520469224825 M559.1355526977753,144.83520469224825 L559.9323925102836,143.66927314113303 M559.9323925102836,143.66927314113303 L560.2041324914252,142.43169640226813 M510.29891140266477,125.0095272843568 L541.5964009246587,142.43169585744795 M510.29891140266477,125.0095272843568 L438.2070405414528,233.00283068562476 M438.2070405414528,233.00283068562476 L632.6189948234694,193.10064723614204 M601.0075494547882,175.50371091748937 L632.6189948234694,193.10064723614204 M632.7571912501658,144.98380313247912 L632.6189948234694,193.10064723614204 M601.0744400005925,127.43075528052475 L632.7571912501658,144.98380313247912 M673.0717487452898,77.06327069747306 L671.001667209258,77.19213959162943 M671.001667209258,77.19213959162943 L669.0378406739034,77.5723076716975 M669.0378406739034,77.5723076716975 L667.2786337271779,78.18475981239493 M667.2786337271779,78.18475981239493 L665.8121840717376,78.99886806261873 M665.8121840717376,78.99886806261873 L664.7120237846761,79.97389764609545 M664.7120237846761,79.97389764609545 L664.0333943971278,81.06103110387897 M664.0333943971278,81.06103110387897 L663.8104509607715,82.20580670332345 M713.4809026420043,54.625213557448774 L673.0717487452898,77.06327069747306 M672.6182690785633,32.28709741215653 L713.4809026420043,54.625213557448774 M560.1793733120637,94.44159574293349 L672.6182690785633,32.28709741215653 M560.1793733120637,94.44159574293349 L559.9070213128223,95.67606329077984 M559.9070213128223,95.67606329077984 L559.108392605997,96.83906626566102 M559.108392605997,96.83906626566102 L557.8297474234023,97.86294055900163 M557.8297474234023,97.86294055900163 L556.1453326211599,98.68808424252154 M556.1453326211599,98.68808424252154 L554.1530590425883,99.26643305987852 M554.1530590425883,99.26643305987852 L551.9688238049976,99.56428764089685 M551.9688238049976,99.56428764089685 L549.7197410986766,99.5642879808994 M549.7197410986766,99.5642879808994 L547.5367137433902,99.26643339986117 M547.5367137433902,99.26643339986117 L545.5467846173466,98.68808444648778 M545.5467846173466,98.68808444648778 L543.8657095249795,97.86294055900163 M543.8657095249795,97.86294055900163 L542.5912136874066,96.83906545009575 M542.5912136874066,96.83906545009575 L541.7972948808666,95.67606335872796 M541.7972948808666,95.67606335872796 L541.5299459847773,94.44159519948198 M510.1625614934935,77.0632685311636 L541.5299459847773,94.44159519948198 M510.1625614934935,77.0632685311636 L437.9062386437512,184.78697349010122 M437.9062386437512,184.78697349010122 L632.7571912501658,144.98380313247912 M673.0717487452898,77.06327069747306 L672.8444989111673,125.00952945613955 M713.4809026420043,54.625213557448774 L713.1641698617505,102.51466691864618 M672.6182690785633,32.28709741215653 L672.3930367727177,80.11977577063175 M560.1793733120637,94.44159574293349 L560.2041324914252,142.43169640226813 M541.5299459847773,94.44159519948198 L541.5964009246587,142.43169585744795 M510.1625614934935,77.0632685311636 L510.29891140266477,125.0095272843568 M437.9062386437512,184.78697349010122 L438.2070405414528,233.00283068562476" stroke="black"  stroke-width="4"  fill="red"/>
<path d="M600.9770713349691,165.1052908087374 L600.9106164484332,212.93736716251203 M600.9409583694387,223.36145005420764 L598.7117116996241,223.20984491752594 M598.7117116996241,223.20984491752594 L596.6113276536654,222.76386645880308 M596.6113276536654,222.76386645880308 L594.7620186830727,222.04950559823118 M594.7620186830727,222.04950559823118 L593.2713278626896,221.1083795436414 M593.2713278626896,221.1083795436414 L592.2258689658114,219.995293668884 M592.2258689658114,219.995293668884 L591.6862876278317,218.7750248045976 M591.6862876278317,218.7750248045976 L591.6837699964394,217.51854124287053 M591.6837699964394,217.51854124287053 L592.2182664673185,216.2988644143624 M592.2182664673185,216.2988644143624 L593.2585425425201,215.1868273749793 M593.2585425425201,215.1868273749793 L594.7440326632733,214.24696916854663 M594.7440326632733,214.24696916854663 L596.5883773576659,213.53380003397825 M596.5883773576659,213.53380003397825 L598.6844642465104,213.08866823424682 M598.6844642465104,213.08866823424682 L600.9106164484332,212.93736716251203 M601.0075494547882,175.50371091748937 L600.9409583694387,223.36145005420764 M600.9770713349691,165.1052908087374 L598.7459317429791,165.25621905526205 M598.7459317429791,165.25621905526205 L596.6451504120608,165.7002540514961 M596.6451504120608,165.7002540514961 L594.7966764073294,166.41166612054957 M594.7966764073294,166.41166612054957 L593.307861768019,167.34920909866258 M593.307861768019,167.34920909866258 L592.2652592916234,168.45850726832606 M592.2652592916234,168.45850726832606 L591.729570230998,169.6751807417094 M591.729570230998,169.6751807417094 L591.7320991650912,170.92857099725708 M591.7320991650912,170.92857099725708 L592.2728959181327,172.14583637446628 M592.2728959181327,172.14583637446628 L593.320704480678,173.25618314486366 M593.320704480678,173.25618314486366 L594.8147431640707,174.1949936814322 M594.8147431640707,174.1949936814322 L596.6682037257033,174.90759720963229 M596.6682037257033,174.90759720963229 L598.7733015067115,175.35247867196534 M598.7733015067115,175.35247867196534 L601.0075494547882,175.50371091748937 M663.6037661369414,130.16505301576126 L663.3980024921636,177.9105484961776 M663.6037661369414,130.16505301576126 L600.9770713349691,165.1052908087374 M663.3980024921636,177.9105484961776 L600.9106164484332,212.93736716251203 M672.6182613974005,172.7422040161513 L670.5573941095076,172.87171994300303 M670.5573941095076,172.87171994300303 L668.6022979592163,173.25379670766984 M668.6022979592163,173.25379670766984 L666.8509007847312,173.86932347541835 M666.8509007847312,173.86932347541835 L665.390949308794,174.68751818788135 M665.390949308794,174.68751818788135 L664.2956497639634,175.66744121057206 M664.2956497639634,175.66744121057206 L663.6199993023863,176.7600297317939 M663.6199993023863,176.7600297317939 L663.3980024921636,177.9105484961776 M712.8488448832438,150.19126306923295 L672.6182613974005,172.7422040161513 M672.1688033516762,127.74032054827683 L712.8488448832438,150.19126306923295 M560.2287811873304,190.20764973017606 L672.1688033516762,127.74032054827683 M541.6625593211315,190.20764918400454 L541.928731462953,191.4482957237409 M541.928731462953,191.4482957237409 L542.7191224262073,192.61711727415536 M542.7191224262073,192.61711727415536 L543.987943049532,193.64611467808572 M543.987943049532,193.64611467808572 L545.661524750216,194.47538595851876 M545.661524750216,194.47538595851876 L547.6425780190912,195.05662746822753 M547.6425780190912,195.05662746822753 L549.8158638593628,195.3559716239363 M549.8158638593628,195.3559716239363 L552.0549070761609,195.3559712822333 M552.0549070761609,195.3559712822333 L554.2293900448963,195.05662712654458 M554.2293900448963,195.05662712654458 L556.212766890369,194.4753857535325 M556.212766890369,194.4753857535325 L557.8896585419105,193.64611467808572 M557.8896585419105,193.64611467808572 L559.1625915637316,192.61711809380097 M559.1625915637316,192.61711809380097 L559.9576504794528,191.44829565545277 M559.9576504794528,191.44829565545277 L560.2287811873304,190.20764973017606 M510.4346539195841,172.74220183896514 L541.6625593211315,190.20764918400454 M510.4346539195841,172.74220183896514 L438.50648817842773,281.00161198404555 M438.50648817842773,281.00161198404555 L632.4814181544187,241.00170586161784 M600.9409583694387,223.36145005420764 L632.4814181544187,241.00170586161784 M632.6189948234694,193.10064723614204 L632.4814181544187,241.00170586161784 M601.0075494547882,175.50371091748937 L632.6189948234694,193.10064723614204 M672.8444989111673,125.00952945613955 L670.7790347773525,125.13872395447373 M670.7790347773525,125.13872395447373 L668.8195831607397,125.51985253602925 M668.8195831607397,125.51985253602925 L667.0642897884421,126.13385191276052 M667.0642897884421,126.13385191276052 L665.6010964385257,126.95001658376503 M665.6010964385257,126.95001658376503 L664.5033719039775,127.92750868375293 M664.5033719039775,127.92750868375293 L663.8262352555294,129.01738728653277 M663.8262352555294,129.01738728653277 L663.6037661369414,130.16505301576126 M713.1641698617505,102.51466691864618 L672.8444989111673,125.00952945613955 M672.3930367727177,80.11977577063175 L713.1641698617505,102.51466691864618 M560.2041324914252,142.43169640226813 L672.3930367727177,80.11977577063175 M560.2041324914252,142.43169640226813 L559.9323925102836,143.66927314113303 M559.9323925102836,143.66927314113303 L559.1355526977753,144.83520469224825 M559.1355526977753,144.83520469224825 L557.8597699905044,145.86165672133663 M557.8597699905044,145.86165672133663 L556.1791251840755,146.68887747105987 M556.1791251840755,146.68887747105987 L554.1913099283452,147.26868193758014 M554.1913099283452,147.26868193758014 L552.0119617370049,147.56728613226554 M552.0119617370049,147.56728613226554 L549.7679100060474,147.5672864731239 M549.7679100060474,147.5672864731239 L547.5897643020509,147.26868227841842 M547.5897643020509,147.26868227841842 L545.6042830258621,146.68887767553952 M545.6042830258621,146.68887767553952 L543.9269629998666,145.86165672133663 M543.9269629998666,145.86165672133663 L542.6553111023808,144.83520387462966 M542.6553111023808,144.83520387462966 L541.8631601458849,143.66927320925225 M541.8631601458849,143.66927320925225 L541.5964009246587,142.43169585744795 M510.29891140266477,125.0095272843568 L541.5964009246587,142.43169585744795 M510.29891140266477,125.0095272843568 L438.2070405414528,233.00283068562476 M438.2070405414528,233.00283068562476 L632.6189948234694,193.10064723614204 M672.8444989111673,125.00952945613955 L672.6182613974005,172.7422040161513 M713.1641698617505,102.51466691864618 L712.8488448832438,150.19126306923295 M672.3930367727177,80.11977577063175 L672.1688033516762,127.74032054827683 M560.2041324914252,142.43169640226813 L560.2287811873304,190.20764973017606 M541.5964009246587,142.43169585744795 L541.6625593211315,190.20764918400454 M510.29891140266477,125.0095272843568 L510.4346539195841,172.74220183896514 M438.2070405414528,233.00283068562476 L438.50648817842773,281.00161198404555" stroke="black"  stroke-width="4"  fill="red"/></svg>