<svg viewBox="0 0 800 800" xmlns="http://www.w3.org/2000/svg"><path d="M484.07468261119345,609.3603156155752 L483.87982536958475,562.5344867086594 M631.6687399789714,523.9577128237852 L631.8026848572098,477.3211609334413 M484.07468261119345,609.3603156155752 L631.6687399789714,523.9577128237852 M483.87982536958475,562.5344867086594 L631.8026848572098,477.3211609334413 M600.6914126520297,506.1518110364176 L600.7565676636731,459.555109371855 M631.6687399789714,523.9577128237852 L600.6914126520297,506.1518110364176 M631.8026848572098,477.3211609334413 L600.7565676636731,459.555109371855 M600.7262828324651,448.84282257099653 L598.4903568192175,448.9983057852729 M598.4903568192175,448.9983057852729 L596.3850613938283,449.4557430765602 M596.3850613938283,449.4557430765602 L594.5326047686613,450.18862647540664 M594.5326047686613,450.18862647540664 L593.0405753769492,451.15446794827267 M593.0405753769492,451.15446794827267 L591.9957076858171,452.29724791479276 M591.9957076858171,452.29724791479276 L591.4588361601859,453.5506440770339 M591.4588361601859,453.5506440770339 L591.4613384063841,454.84186769369677 M591.4613384063841,454.84186769369677 L592.0032619097392,456.0958753971671 M592.0032619097392,456.0958753971671 L593.053290874968,457.2397394062076 M593.053290874968,457.2397394062076 L594.5505079343319,458.20688724438065 M594.5505079343319,458.20688724438065 L596.4079263041534,458.94100126764687 M596.4079263041534,458.94100126764687 L598.5175302087684,459.3993123601684 M598.5175302087684,459.3993123601684 L600.7565676636731,459.555109371855 M600.6612613677497,495.415431286634 L600.7262828324651,448.84282257099653 M600.6914126520297,506.1518110364176 L598.4573208190443,505.99566397130434 M598.4573208190443,505.99566397130434 L596.3523781612711,505.53632306013 M596.3523781612711,505.53632306013 L594.4990651133833,504.80055930719675 M594.4990651133833,504.80055930719675 L593.0051585570124,503.83123770770214 M593.0051585570124,503.83123770770214 L591.9574529903603,502.68480223795365 M591.9574529903603,502.68480223795365 L591.416731234214,501.4279748277487 M591.416731234214,501.4279748277487 L591.4142400204246,500.1338471252348 M591.4142400204246,500.1338471252348 L591.949932080939,498.87763127825514 M591.949932080939,498.87763127825514 L592.9924991286073,497.7322798923538 M592.9924991286073,497.7322798923538 L594.4812408936367,496.76426470522586 M594.4812408936367,496.76426470522586 L596.3296140777317,496.02973162144144 M596.3296140777317,496.02973162144144 L598.4302672564388,495.571264545541 M598.4302672564388,495.571264545541 L600.6612613677497,495.415431286634 M711.2930074919445,385.4312092741711 L600.7262828324651,448.84282257099653 M710.985933950257,431.8602023241386 L711.2930074919445,385.4312092741711 M600.6612613677497,495.415431286634 L710.985933950257,431.8602023241386 M670.8440077673057,409.0877091477774 L671.0623862068911,362.71058921422696 M710.985933950257,431.8602023241386 L670.8440077673057,409.0877091477774 M711.2930074919445,385.4312092741711 L671.0623862068911,362.71058921422696 M631.1388307970944,431.86020672114137 L631.270433736399,385.43121366117924 M670.8440077673057,409.0877091477774 L631.1388307970944,431.86020672114137 M671.0623862068911,362.71058921422696 L631.270433736399,385.43121366117924 M621.8971202151434,437.1606951677513 L622.0084705350964,390.7196595522005 M631.1388307970944,431.86020672114137 L630.91323252928,433.03920970532755 M630.91323252928,433.03920970532755 L630.2340871490146,434.1593400680998 M630.2340871490146,434.1593400680998 L629.1353251814008,435.16437402385645 M629.1353251814008,435.16437402385645 L627.6719796862794,436.0038346065497 M627.6719796862794,436.0038346065497 L625.9174244969699,436.63554116240573 M625.9174244969699,436.63554116240573 L623.9597079627215,437.0277346812986 M623.9597079627215,437.0277346812986 L621.8971202151434,437.1606951677513 M631.270433736399,385.43121366117924 L631.0443545819388,386.6075369612149 M631.0443545819388,386.6075369612149 L630.3637305341616,387.72512199036134 M630.3637305341616,387.72512199036134 L629.2625657216613,388.7278726023135 M629.2625657216613,388.7278726023135 L627.7960134027514,389.5654263347142 M627.7960134027514,389.5654263347142 L626.0376082022132,390.1956981531839 M626.0376082022132,390.1956981531839 L624.0755918200957,390.58700100336426 M624.0755918200957,390.58700100336426 L622.0084705350964,390.7196595522005 M560.5176117299734,472.3642835834757 L560.4939266915917,425.843566822905 M621.8971202151434,437.1606951677513 L560.5176117299734,472.3642835834757 M622.0084705350964,390.7196595522005 L560.4939266915917,425.843566822905 M541.8457569457428,425.84356682290513 L542.1131258670571,427.1185721787339 M542.1131258670571,427.1185721787339 L542.9070282160923,428.3197654418689 M542.9070282160923,428.3197654418689 L544.1814700049545,429.37726244430934 M544.1814700049545,429.37726244430934 L545.8624554228259,430.22950121538486 M545.8624554228259,430.22950121538486 L547.8522706598529,430.826843264094 M547.8522706598529,430.826843264094 L550.0351594405048,431.13447840727497 M550.0351594405048,431.13447840727497 L552.2840920385273,431.13447885676965 M552.2840920385273,431.13447885676965 L554.4681691725068,430.82684257260456 M554.4681691725068,430.82684257260456 L556.4602899453622,430.22950169937184 M556.4602899453622,430.22950169937184 L558.1445671159775,429.3772628590874 M558.1445671159775,429.3772628590874 L559.4230928960272,428.31976558010024 M559.4230928960272,428.31976558010024 L560.221632181879,427.1185720405345 M560.221632181879,427.1185720405345 L560.4939266915917,425.843566822905 M541.9104921473263,472.3642835834757 L541.8457569457428,425.84356682290513 M560.5176117299734,472.3642835834757 L560.2459195914447,473.64217140004155 M560.2459195914447,473.64217140004155 L559.4491413434961,474.8460800303465 M559.4491413434961,474.8460800303465 L558.1734335742937,475.90596709285694 M558.1734335742937,475.90596709285694 L556.4928679170894,476.76013151850947 M556.4928679170894,476.76013151850947 L554.5051363561385,477.358821865942 M554.5051363561385,477.358821865942 L552.3258705553835,477.66715308322557 M552.3258705553835,477.66715308322557 L550.0818910388306,477.66715263271556 M550.0818910388306,477.66715263271556 L547.9038083636821,477.35882255899355 M547.9038083636821,477.35882255899355 L545.9183721924489,476.76013103342905 M545.9183721924489,476.76013103342905 L544.2410838080552,475.90596667714163 M544.2410838080552,475.90596667714163 L542.9694420655654,474.84607989180284 M542.9694420655654,474.84607989180284 L542.177280355498,473.6421715385533 M542.177280355498,473.6421715385533 L541.9104921473263,472.3642835834757 M511.23658073548233,454.73278657699626 L511.1043980971747,408.25191235055166 M541.9104921473263,472.3642835834757 L511.23658073548233,454.73278657699626 M541.8457569457428,425.84356682290513 L511.1043980971747,408.25191235055166 M363.6504158492288,539.0085066154375 L363.1894837648829,492.3383747091842 M511.23658073548233,454.73278657699626 L363.6504158492288,539.0085066154375 M511.1043980971747,408.25191235055166 L363.1894837648829,492.3383747091842 M483.87982536958475,562.5344867086594 L488.3476721372833,570.876033239222 M488.3476721372833,570.876033239222 L491.72839731147155,579.404454180547 M491.72839731147155,579.404454180547 L494.00049823313975,588.0726227989461 M494.00049823313975,588.0726227989461 L495.1485459703508,596.8323680275865 M495.1485459703508,596.8323680275865 L495.16327278169945,605.6347957564815 M495.16327278169945,605.6347957564815 L494.04179751738,614.4305123326615 M494.04179751738,614.4305123326615 L491.78760042861893,623.1699283394126 M491.78760042861893,623.1699283394126 L488.410616167346,631.8035102688019 M488.410616167346,631.8035102688019 L483.927245614258,640.2821037220446 M483.927245614258,640.2821037220446 L478.36028553686356,648.5571810758164 M478.36028553686356,648.5571810758164 L471.738883425626,656.5811879238739 M471.738883425626,656.5811879238739 L464.09843876033665,664.3077759948761 M464.09843876033665,664.3077759948761 L455.480375974411,671.6921384440903 M455.480375974411,671.6921384440903 L445.9320586192882,678.6912529307414 M445.9320586192882,678.6912529307414 L435.5064542565524,685.2641932887619 M435.5064542565524,685.2641932887619 L424.2618667832163,691.3723978521954 M424.2618667832163,691.3723978521954 L412.26164130285804,696.9798744072568 M412.26164130285804,696.9798744072568 L399.5738229884032,702.0535173308575 M399.5738229884032,702.0535173308575 L386.27072684174027,706.5632101906072 M386.27072684174027,706.5632101906072 L372.4285387701036,710.4821781197705 M372.4285387701036,710.4821781197705 L358.1267495002064,713.7870953401699 M358.1267495002064,713.7870953401699 L343.4478152035847,716.458253979151 M343.4478152035847,716.458253979151 L328.4766593931454,718.4796394070712 M328.4766593931454,718.4796394070712 L313.2998755447219,719.8392056239117 M313.2998755447219,719.8392056239117 L298.0055754875289,720.5287752938635 M298.0055754875289,720.5287752938635 L282.6824302985159,720.5442507247801 M282.6824302985159,720.5442507247801 L267.41949600495644,719.8854904965306 M267.41949600495644,719.8854904965306 L252.30532262002913,718.5564732673643 M252.30532262002913,718.5564732673643 L237.42750107451292,716.5651830324928 M237.42750107451292,716.5651830324928 L222.87226583360206,713.9234802902216 M222.87226583360206,713.9234802902216 L208.72366166486657,710.6471976451319 M208.72366166486657,710.6471976451319 L195.0632653113868,706.7558716984252 M195.0632653113868,706.7558716984252 L181.969553454595,702.2726714322449 M181.969553454595,702.2726714322449 L169.51742567567422,697.2242563236118 M169.51742567567422,697.2242563236118 L157.77782746634676,691.6405316189258 M157.77782746634676,691.6405316189258 L146.817242350617,685.5545056341041 M146.817242350617,685.5545056341041 L136.69737381343396,679.0020231060886 M136.69737381343396,679.0020231060886 L127.4747465684174,672.0215561340741 M127.4747465684174,672.0215561340741 L119.20045049902615,664.6539213778469 M119.20045049902615,664.6539213778469 L111.91979587503488,656.9420522681202 M111.91979587503488,656.9420522681202 L105.6721925787943,648.9306732878108 M105.6721925787943,648.9306732878108 L100.4908588167471,640.6660590538005 M100.4908588167471,640.6660590538005 L96.4027100598762,632.1957482581386 M96.4027100598762,632.1957482581386 L93.42837060942514,623.568180430341 M93.42837060942514,623.568180430341 L91.58184174196924,614.8325446865663 M91.58184174196924,614.8325446865663 L90.8707927755317,606.0383249385568 M90.8707927755317,606.0383249385568 L91.29645368182167,597.2351027891716 M91.29645368182167,597.2351027891716 L92.85352324180974,588.4723372117039 M92.85352324180974,588.4723372117039 L95.53054459832424,579.7989051271834 M95.53054459832424,579.7989051271834 L99.3097648305324,571.2630556407146 M99.3097648305324,571.2630556407146 L104.16756120308321,562.9119243747018 M104.16756120308321,562.9119243747018 L110.07430766475619,554.7915097435005 M110.07430766475619,554.7915097435005 L116.99487102058055,546.9462867233769 M116.99487102058055,546.9462867233769 L124.88874600486906,539.4189900759832 M124.88874600486906,539.4189900759832 L133.71032642327242,532.2504878681168 M133.71032642327242,532.2504878681168 L143.40906250882307,525.4795229107694 M143.40906250882307,525.4795229107694 L153.9300098498557,519.1425475943715 M153.9300098498557,519.1425475943715 L165.21394564946468,513.2735335227629 M165.21394564946468,513.2735335227629 L177.19783091307997,507.90382711402106 M177.19783091307997,507.90382711402106 L189.81507280517636,503.06202298465814 M189.81507280517636,503.06202298465814 L202.99588468631708,498.773845153619 M202.99588468631708,498.773845153619 L216.66771465568345,495.06198140467654 M216.66771465568345,495.06198140467654 L230.75554991537408,491.94604928144764 M230.75554991537408,491.94604928144764 L245.1823786405609,489.44247305797785 M245.1823786405609,489.44247305797785 L259.86947777784917,487.56442346728664 M259.86947777784917,487.56442346728664 L274.73689577138236,486.32177911018425 M274.73689577138236,486.32177911018425 L289.70377472336463,485.7210643096078 M289.70377472336463,485.7210643096078 L304.68880745968585,485.7654256621452 M304.68880745968585,485.7654256621452 L319.61058227545084,486.45464698581424 M319.61058227545084,486.45464698581424 L334.3880299897607,487.7850907330666 M334.3880299897607,487.7850907330666 L348.94074394373064,489.7497760820926 M348.94074394373064,489.7497760820926 L363.1894837648829,492.3383747091842 M363.6504158492288,539.0085066154375 L349.433120286716,536.4141264423534 M349.433120286716,536.4141264423534 L334.912539292612,534.4450511388598 M334.912539292612,534.4450511388598 L320.16774371586365,533.1116336766295 M320.16774371586365,533.1116336766295 L305.27896833972795,532.4208715583455 M305.27896833972795,532.4208715583455 L290.3271090770607,532.3764110265056 M290.3271090770607,532.3764110265056 L275.3934035147178,532.9784687827639 M275.3934035147178,532.9784687827639 L260.5589846878661,534.223890704953 M260.5589846878661,534.223890704953 L245.90453693406704,536.1061368787606 M245.90453693406704,536.1061368787606 L231.5098396825921,538.6153051251024 M231.5098396825921,538.6153051251024 L217.45344586064977,541.7381933241899 M217.45344586064977,541.7381933241899 L203.81220009914833,545.4583381447525 M203.81220009914833,545.4583381447525 L190.66095144973988,549.7560755132804 M190.66095144973988,549.7560755132804 L178.0720924375248,554.6086639911264 M178.0720924375248,554.6086639911264 L166.11525528259557,559.9903189372687 M166.11525528259557,559.9903189372687 L154.8568842505666,565.8723786039111 M154.8568842505666,565.8723786039111 L144.35987637632482,572.2234232908934 M144.35987637632482,572.2234232908934 L134.6833196757974,579.0094023404517 M134.6833196757974,579.0094023404517 L125.8820319973583,586.1937789560188 M125.8820319973583,586.1937789560188 L118.00644506186978,593.7377210886323 M118.00644506186978,593.7377210886323 L111.10205681949367,601.6002670628932 M111.10205681949367,601.6002670628932 L105.20927454101036,609.7385847999194 M105.20927454101036,609.7385847999194 L100.36314438632485,618.1080986604097 M100.36314438632485,618.1080986604097 L96.59321676805553,626.6627067746944 M96.59321676805553,626.6627067746944 L93.92305145854726,635.3551681867939 M93.92305145854726,635.3551681867939 L92.37035094470463,644.1371266843767 M92.37035094470463,644.1371266843767 L91.9465353418974,652.95959757014 M91.9465353418974,652.95959757014 L92.65688268089309,661.7730135503286 M92.65688268089309,661.7730135503286 L94.50015441887342,670.527685171805 M94.50015441887342,670.527685171805 L97.46868727899954,679.1740216167775 M97.46868727899954,679.1740216167775 L101.54850059223747,687.6627282156868 M101.54850059223747,687.6627282156868 L106.71900609927712,695.9452621905168 M106.71900609927712,695.9452621905168 L112.95333923403138,703.9739841821092 M112.95333923403138,703.9739841821092 L120.21834776361777,711.7025222104214 M120.21834776361777,711.7025222104214 L128.4747027523195,719.0860582746676 M128.4747027523195,719.0860582746676 L137.67718932254405,726.081569704168 M137.67718932254405,726.081569704168 L147.77482726834566,732.6481554832645 M147.77482726834566,732.6481554832645 L158.7112151378973,738.7472644286538 M158.7112151378973,738.7472644286538 L170.4247857676344,744.3429784925846 M170.4247857676344,744.3429784925846 L182.84920413172605,749.4022221624774 M182.84920413172605,749.4022221624774 L195.91368468774652,753.895029574555 M195.91368468774652,753.895029574555 L209.54349806071647,757.7946874163138 M209.54349806071647,757.7946874163138 L223.66034711401878,761.0779800793874 M223.66034711401878,761.0779800793874 L238.18284280898303,763.7253317610111 M238.18284280898303,763.7253317610111 L253.02713468405872,765.7208781558861 M253.02713468405872,765.7208781558861 L268.10718841735735,767.0527350748611 M268.10718841735735,767.0527350748611 L283.3356169968854,767.7129025878435 M283.3356169968854,767.7129025878435 L298.6240770321159,767.6973940994561 M298.6240770321159,767.6973940994561 L313.8837206147887,767.006351318687 M313.8837206147887,767.006351318687 L329.0260840655833,765.6438801030095 M329.0260840655833,765.6438801030095 L343.9632616546909,763.6181741112078 M343.9632616546909,763.6181741112078 L358.6088623431157,760.9413034074272 M358.6088623431157,760.9413034074272 L372.87816088244494,757.6293146905373 M372.87816088244494,757.6293146905373 L386.6888932198042,753.7019553835598 M386.6888932198042,753.7019553835598 L399.9617533349728,749.1825982125322 M399.9617533349728,749.1825982125322 L412.6207317260096,744.0980721167199 M412.6207317260096,744.0980721167199 L424.5936801211659,738.4785545930472 M424.5936801211659,738.4785545930472 L435.8127094261265,732.357218668999 M435.8127094261265,732.357218668999 L446.21461895521634,725.770130189594 M446.21461895521634,725.770130189594 L455.74123678353135,718.7559301057031 M455.74123678353135,718.7559301057031 L464.3397142275011,711.355629187756 M464.3397142275011,711.355629187756 L471.96279295990564,703.6123392251989 M471.96279295990564,703.6123392251989 L478.5691394329416,695.5709607794694 M478.5691394329416,695.5709607794694 L484.1234306168159,687.2779396689848 M484.1234306168159,687.2779396689848 L488.59658064090706,678.7809310285868 M488.59658064090706,678.7809310285868 L491.9658394426177,670.1285659514559 M491.9658394426177,670.1285659514559 L494.2148379798573,661.3701043461591 M494.2148379798573,661.3701043461591 L495.33365857839647,652.5551867678313 M495.33365857839647,652.5551867678313 L495.31882329973814,643.7335105344797 M495.31882329973814,643.7335105344797 L494.1732013233227,634.9545775103911 M494.1732013233227,634.9545775103911 L491.9060342527416,626.2673896524054 M491.9060342527416,626.2673896524054 L488.5327113871765,617.7202249949931 M488.5327113871765,617.7202249949931 L484.07468261119345,609.3603156155752 M314.6105830708858,636.7502411445535 L318.1653982134367,639.3192561414589 M318.1653982134367,639.3192561414589 L320.7838456181222,642.2517495862865 M320.7838456181222,642.2517495862865 L322.3647404651761,645.4355134082937 M322.3647404651761,645.4355134082937 L322.8464389837744,648.748549925837 M322.8464389837744,648.748549925837 L322.2094104606099,652.0636618758715 M322.2094104606099,652.0636618758715 L320.47715544368066,655.2533163246823 M320.47715544368066,655.2533163246823 L317.7153704644999,658.1946158650735 M317.7153704644999,658.1946158650735 L314.0296390708853,660.7740184095248 M314.0296390708853,660.7740184095248 L309.56136919776793,662.8918313367452 M309.56136919776793,662.8918313367452 L304.4825410545019,664.4660459264495 M304.4825410545019,664.4660459264495 L298.9889013735134,665.4356730542316 M298.9889013735134,665.4356730542316 L293.29243096251287,665.763116377833 M293.29243096251287,665.763116377833 L287.61307972952955,665.4356650102334 M287.61307972952955,665.4356650102334 L282.17008166803487,664.4660410434834 M282.17008166803487,664.4660410434834 L277.17347943353593,662.8918304753003 M277.17347943353593,662.8918304753003 L272.8158780987104,660.7740184095247 M272.8158780987104,660.7740184095247 L269.264861182349,658.1946190209165 M269.264861182349,658.1946190209165 L266.6567327762582,655.2533143175292 M266.6567327762582,655.2533143175292 L265.0911066100978,652.0636538520763 M265.0911066100978,652.0636538520763 L264.6272565617013,648.748559090169 M264.6272565617013,648.748559090169 L265.28202559931003,645.4355237117386 M265.28202559931003,645.4355237117386 L267.0292257947698,642.2517567371677 M267.0292257947698,642.2517567371677 L269.8008694506427,639.3192684341823 M269.8008694506427,639.3192684341823 L273.48990400104867,636.7502411445535 M273.48990400104867,636.7502411445535 L277.9543278122021,634.6428401426092 M277.9543278122021,634.6428401426092 L283.0228370082506,633.0774368170312 M283.0228370082506,633.0774368170312 L288.5012239389745,632.1136971840202 M288.5012239389745,632.1136971840202 L294.17984579391725,631.7883121417547 M294.17984579391725,631.7883121417547 L299.841456514116,632.1136869064046 M299.841456514116,632.1136869064046 L305.2694934319172,633.0774325339132 M305.2694934319172,633.0774325339132 L310.25623697316985,634.6428318594708 M310.25623697316985,634.6428318594708 L314.6105830708858,636.7502411445535 M314.6105830708858,636.7502411445535 L314.03546155170545,589.8643590742745 M314.03546155170545,589.8643590742745 L309.6714740230189,587.7615591162767 M309.6714740230189,587.7615591162767 L304.6736458246191,586.1995848445761 M304.6736458246191,586.1995848445761 L299.23350457320436,585.2379483815007 M299.23350457320436,585.2379483815007 L293.5592311541462,584.9132857903026 M293.5592311541462,584.9132857903026 L287.8678703384673,585.2379586366217 M287.8678703384673,585.2379586366217 L282.37715325935653,586.1995891183212 M282.37715325935653,586.1995891183212 L277.2971926120554,587.7615673812948 M277.2971926120554,587.7615673812948 L272.8226334880227,589.8643590742745 M272.8226334880227,589.8643590742745 L269.12516814014873,592.4277699167947 M269.12516814014873,592.4277699167947 L266.3471230911331,595.3538505676845 M266.3471230911331,595.3538505676845 L264.59579933685393,598.5306649348287 M264.59579933685393,598.5306649348287 L263.93934681466453,601.8364699486082 M263.93934681466453,601.8364699486082 L264.40402271000704,605.1443344809624 M264.40402271000704,605.1443344809624 L265.9729568174141,608.3270426607844 M265.9729568174141,608.3270426607844 L268.58675212155237,611.2619402020961 M268.58675212155237,611.2619402020961 L272.145579862549,613.8357237817826 M272.145579862549,613.8357237817826 L276.5128366742949,615.9489270918539 M276.5128366742949,615.9489270918539 L281.52056733248907,617.5197131075565 M281.52056733248907,617.5197131075565 L286.97573655120715,618.4872282648955 M286.97573655120715,618.4872282648955 L292.66783008711366,618.8139675567006 M292.66783008711366,618.8139675567006 L298.37711979163123,618.4872362914007 M298.37711979163123,618.4872362914007 L303.8831584829212,617.5197179799019 M303.8831584829212,617.5197179799019 L308.97348494873904,615.9489279514244 M308.97348494873904,615.9489279514244 L313.45190795230644,613.8357237817825 M313.45190795230644,613.8357237817825 L317.14605598792343,611.2619370531256 M317.14605598792343,611.2619370531256 L319.9141985936915,608.3270446635639 M319.9141985936915,608.3270446635639 L321.6505103823087,605.1443424872632 M321.6505103823087,605.1443424872632 L322.28914278616935,601.8364608042699 M322.28914278616935,601.8364608042699 L321.80653808842294,598.530654653877 M321.80653808842294,598.530654653877 L320.22226640204065,595.3538434324238 M320.22226640204065,595.3538434324238 L317.5981052277024,592.4277576509392 M317.5981052277024,592.4277576509392 L314.03546155170545,589.8643590742745" stroke="black"  stroke-width="4"  fill="red"/>
<path d="M600.7915924759408,402.0638014543201 L600.7262828324651,448.84282257099653 M600.7565676636731,459.555109371855 L598.5175302087684,459.3993123601684 M598.5175302087684,459.3993123601684 L596.4079263041534,458.94100126764687 M596.4079263041534,458.94100126764687 L594.5505079343319,458.20688724438065 M594.5505079343319,458.20688724438065 L593.053290874968,457.2397394062076 M593.053290874968,457.2397394062076 L592.0032619097392,456.0958753971671 M592.0032619097392,456.0958753971671 L591.4613384063841,454.84186769369677 M591.4613384063841,454.84186769369677 L591.4588361601859,453.5506440770339 M591.4588361601859,453.5506440770339 L591.9957076858171,452.29724791479276 M591.9957076858171,452.29724791479276 L593.0405753769492,451.15446794827267 M593.0405753769492,451.15446794827267 L594.5326047686613,450.18862647540664 M594.5326047686613,450.18862647540664 L596.3850613938283,449.4557430765602 M596.3850613938283,449.4557430765602 L598.4903568192175,448.9983057852729 M598.4903568192175,448.9983057852729 L600.7262828324651,448.84282257099653 M600.8220117433367,412.751675854114 L600.7565676636731,459.555109371855 M600.7915924759408,402.0638014543201 L598.5507127062726,402.2189299873228 M598.5507127062726,402.2189299873228 L596.4407544700038,402.6753238528171 M596.4407544700038,402.6753238528171 L594.5841963206983,403.4065357114817 M594.5841963206983,403.4065357114817 L593.0888647492571,404.3701746677843 M593.0888647492571,404.3701746677843 L592.0416862381028,405.51034913609465 M592.0416862381028,405.51034913609465 L591.5036300419789,406.7608882360165 M591.5036300419789,406.7608882360165 L591.5061433940446,408.04916926112094 M591.5061433940446,408.04916926112094 L592.0492739983657,409.30031986189937 M592.0492739983657,409.30031986189937 L593.1016366902406,410.44157829882784 M593.1016366902406,410.44157829882784 L594.6021789579727,411.40652353412116 M594.6021789579727,411.40652353412116 L596.463720878497,412.13896593549595 M596.463720878497,412.13896593549595 L598.5780067206719,412.59623354192706 M598.5780067206719,412.59623354192706 L600.8220117433367,412.751675854114 M662.441164230836,366.8654080166674 L662.2402277127361,413.56368685341744 M662.441164230836,366.8654080166674 L600.7915924759408,402.0638014543201 M662.2402277127361,413.56368685341744 L600.7262828324651,448.84282257099653 M671.5020211726254,408.2519145537284 L669.431985413638,408.38502558844016 M669.431985413638,408.38502558844016 L667.4681671554468,408.77770286263814 M667.4681671554468,408.77770286263814 L665.7089193317611,409.410313252656 M665.7089193317611,409.410313252656 L664.2423913602474,410.25121300606753 M664.2423913602474,410.25121300606753 L663.1421179421624,411.2583275411854 M663.1421179421624,411.2583275411854 L662.4633445103509,412.38123614724367 M662.4633445103509,412.38123614724367 L662.2402277127361,413.56368685341744 M711.2930074919445,385.4312092741711 L671.5020211726254,408.2519145537284 M671.0623862068911,362.71058921422696 L711.2930074919445,385.4312092741711 M560.4939266915917,425.843566822905 L671.0623862068911,362.71058921422696 M541.8457569457428,425.84356682290513 L542.1131258670571,427.1185721787339 M542.1131258670571,427.1185721787339 L542.9070282160923,428.3197654418689 M542.9070282160923,428.3197654418689 L544.1814700049545,429.37726244430934 M544.1814700049545,429.37726244430934 L545.8624554228259,430.22950121538486 M545.8624554228259,430.22950121538486 L547.8522706598529,430.826843264094 M547.8522706598529,430.826843264094 L550.0351594405048,431.13447840727497 M550.0351594405048,431.13447840727497 L552.2840920385273,431.13447885676965 M552.2840920385273,431.13447885676965 L554.4681691725068,430.82684257260456 M554.4681691725068,430.82684257260456 L556.4602899453622,430.22950169937184 M556.4602899453622,430.22950169937184 L558.1445671159775,429.3772628590874 M558.1445671159775,429.3772628590874 L559.4230928960272,428.31976558010024 M559.4230928960272,428.31976558010024 L560.221632181879,427.1185720405345 M560.221632181879,427.1185720405345 L560.4939266915917,425.843566822905 M511.1043980971747,408.25191235055166 L541.8457569457428,425.84356682290513 M511.1043980971747,408.25191235055166 L439.9837333783863,517.7908215875536 M439.9837333783863,517.7908215875536 L631.8026848572098,477.3211609334414 M600.7565676636731,459.555109371855 L631.8026848572098,477.3211609334414 M631.9372250118472,430.4773473767204 L631.8026848572098,477.3211609334414 M600.8220117433367,412.751675854114 L631.9372250118472,430.4773473767204 M711.601433704588,338.7976946947051 L671.7232981471345,361.56583833229394 M671.7232981471345,361.56583833229394 L669.6486960145104,361.6986434278259 M669.6486960145104,361.6986434278259 L667.6805510436625,362.0904182258679 M667.6805510436625,362.0904182258679 L665.9174325917232,362.72157484756696 M665.9174325917232,362.72157484756696 L664.4476838714497,363.56054243671105 M664.4476838714497,363.56054243671105 L663.345001082352,364.5653432848376 M663.345001082352,364.5653432848376 L662.6647507880266,365.68567269249786 M662.6647507880266,365.68567269249786 L662.441164230836,366.8654080166674 M439.6909204531671,470.85552531696936 L631.9372250118472,430.4773473767204 M510.9716319039993,361.5658361341809 L439.6909204531671,470.85552531696936 M510.9716319039993,361.5658361341809 L541.7807354684727,379.1171235053172 M560.4701369118876,379.1171235053172 L560.1972373539573,380.3892081037699 M560.1972373539573,380.3892081037699 L559.3969292281528,381.5876507333089 M559.3969292281528,381.5876507333089 L558.1155729593092,382.64272669440265 M558.1155729593092,382.64272669440265 L556.4275678446006,383.4930145356701 M556.4275678446006,383.4930145356701 L554.4310384320084,384.088988122053 M554.4310384320084,384.088988122053 L552.2421286721622,384.39592029940593 M552.2421286721622,384.39592029940593 L549.9882210777064,384.39591985094 M549.9882210777064,384.39591985094 L547.8005049336392,384.0889888119597 M547.8005049336392,384.0889888119597 L545.8062912703981,383.49301405279095 M545.8062912703981,383.49301405279095 L544.1215924845549,382.64272628057415 M544.1215924845549,382.64272628057415 L542.8443382907011,381.5876505953943 M542.8443382907011,381.5876505953943 L542.048687636142,380.3892082416527 M542.048687636142,380.3892082416527 L541.7807354684727,379.1171235053172 M671.2817244981339,316.129625185443 L560.4701369118876,379.1171235053172 M671.2817244981339,316.129625185443 L711.601433704588,338.7976946947051 M671.7232981471345,361.56583833229394 L671.5020211726254,408.2519145537284 M711.601433704588,338.7976946947051 L711.2930074919445,385.4312092741711 M671.2817244981339,316.129625185443 L671.0623862068911,362.71058921422696 M560.4701369118876,379.1171235053172 L560.4939266915917,425.843566822905 M541.7807354684727,379.1171235053172 L541.8457569457428,425.84356682290513 M510.9716319039993,361.5658361341809 L511.1043980971747,408.25191235055166 M439.6909204531671,470.85552531696936 L439.9837333783863,517.7908215875536" stroke="black"  stroke-width="4"  fill="red"/>
<path d="M560.4701369118876,379.1171235053172 L560.4462417083733,332.1836131300324 M541.7154258501623,332.1836131300324 L541.9839638136685,333.45273880718213 M541.9839638136685,333.45273880718213 L542.7813704900522,334.6483940370275 M542.7813704900522,334.6483940370275 L544.0614495278818,335.7010165225945 M544.0614495278818,335.7010165225945 L545.7498781225255,336.5493276018277 M545.7498781225255,336.5493276018277 L547.7485096985183,337.14391706216463 M547.7485096985183,337.14391706216463 L549.9410746024555,337.45013472202555 M549.9410746024555,337.45013472202555 L552.1999792511804,337.45013516944914 M552.1999792511804,337.45013516944914 L554.393743068384,337.14391637386143 M554.393743068384,337.14391637386143 L556.3947006752555,336.54932808358444 M556.3947006752555,336.54932808358444 L558.0864502719196,335.70101693546076 M558.0864502719196,335.70101693546076 L559.3706495889176,334.6483941746216 M559.3706495889176,334.6483941746216 L560.1727344076589,333.45273866962 M560.1727344076589,333.45273866962 L560.4462417083733,332.1836131300324 M541.7807354684727,379.1171235053172 L541.7154258501623,332.1836131300324 M560.4701369118876,379.1171235053172 L560.1972373539573,380.3892081037699 M560.1972373539573,380.3892081037699 L559.3969292281528,381.5876507333089 M559.3969292281528,381.5876507333089 L558.1155729593092,382.64272669440265 M558.1155729593092,382.64272669440265 L556.4275678446006,383.4930145356701 M556.4275678446006,383.4930145356701 L554.4310384320084,384.088988122053 M554.4310384320084,384.088988122053 L552.2421286721622,384.39592029940593 M552.2421286721622,384.39592029940593 L549.9882210777064,384.39591985094 M549.9882210777064,384.39591985094 L547.8005049336392,384.0889888119597 M547.8005049336392,384.0889888119597 L545.8062912703981,383.49301405279095 M545.8062912703981,383.49301405279095 L544.1215924845549,382.64272628057415 M544.1215924845549,382.64272628057415 L542.8443382907011,381.5876505953943 M542.8443382907011,381.5876505953943 L542.048687636142,380.3892082416527 M542.048687636142,380.3892082416527 L541.7807354684727,379.1171235053172 M622.1203116084491,344.07394472135405 L622.2326466216356,297.222221704532 M622.1203116084491,344.07394472135405 L560.4701369118876,379.1171235053172 M622.2326466216356,297.222221704532 L560.4462417083733,332.1836131300324 M671.5020288556985,269.3434972505715 L631.5353825253438,291.9583357135251 M631.5353825253438,291.9583357135251 L631.3083354268863,293.1291940373713 M631.3083354268863,293.1291940373713 L630.6247346448234,294.2415880644191 M630.6247346448234,294.2415880644191 L629.5187324767085,295.2396819632538 M629.5187324767085,295.2396819632538 L628.0457241597921,296.0733468004861 M628.0457241597921,296.0733468004861 L626.2795680251998,296.7006925589974 M626.2795680251998,296.7006925589974 L624.3088950333473,297.0901789409114 M624.3088950333473,297.0901789409114 L622.2326466216356,297.222221704532 M541.7154258501623,332.1836131300324 L510.83827836027024,314.6732232079829 M439.396798412684,423.71038956366596 L510.83827836027024,314.6732232079829 M632.0723643417202,383.42491466761004 L439.396798412684,423.71038956366596 M632.0723643417202,383.42491466761004 L600.8877467809465,365.74015887085477 M600.8877467809465,365.74015887085477 L598.6387521011711,365.5850759556947 M598.6387521011711,365.5850759556947 L596.5197634953711,365.1288656541496 M596.5197634953711,365.1288656541496 L594.6540796760933,364.3981170093159 M594.6540796760933,364.3981170093159 L593.1501973983517,363.4354035378078 M593.1501973983517,363.4354035378078 L592.0954905840997,362.2967851620473 M592.0954905840997,362.2967851620473 L591.5511474899022,361.04852947387576 M591.5511474899022,361.04852947387576 L591.5486229578636,359.76322997221575 M591.5486229578636,359.76322997221575 L592.0878690637016,358.5155857258248 M592.0878690637016,358.5155857258248 L593.1373686377632,357.3780512116266 M593.1373686377632,357.3780512116266 L594.6360170369037,356.41664389284006 M594.6360170369037,356.41664389284006 L596.4966949114126,355.68712567137027 M596.4966949114126,355.68712567137027 L598.6113366569916,355.2317890237412 M598.6113366569916,355.2317890237412 L600.8571921802687,355.07701985994197 M600.8571921802687,355.07701985994197 L711.9112213663216,291.9583313469005 M711.9112213663216,291.9583313469005 L671.5020288556985,269.3434972505715 M510.9716319039993,361.5658361341809 L510.83827836027024,314.6732232079829 M541.7807354684727,379.1171235053172 L510.9716319039993,361.5658361341809 M631.4026163917963,338.79769907158766 L631.1760542980802,339.9713076132176 M631.1760542980802,339.9713076132176 L630.4939451301909,341.08631398577006 M630.4939451301909,341.08631398577006 L629.39036694019,342.0867513548758 M629.39036694019,342.0867513548758 L627.9205937110632,342.92237326356076 M627.9205937110632,342.92237326356076 L626.1583215653374,343.55119155173 M626.1583215653374,343.55119155173 L624.191986404944,343.9415920656433 M624.191986404944,343.9415920656433 L622.1203116084491,344.07394472135405 M671.2817244981339,316.129625185443 L631.4026163917963,338.79769907158766 M711.601433704588,338.7976946947051 L671.2817244981339,316.129625185443 M600.7915924759408,402.0638014543201 L711.601433704588,338.7976946947051 M600.7915924759408,402.0638014543201 L598.5507127062726,402.2189299873228 M598.5507127062726,402.2189299873228 L596.4407544700038,402.6753238528171 M596.4407544700038,402.6753238528171 L594.5841963206983,403.4065357114817 M594.5841963206983,403.4065357114817 L593.0888647492571,404.3701746677843 M593.0888647492571,404.3701746677843 L592.0416862381028,405.51034913609465 M592.0416862381028,405.51034913609465 L591.5036300419789,406.7608882360165 M591.5036300419789,406.7608882360165 L591.5061433940446,408.04916926112094 M591.5061433940446,408.04916926112094 L592.0492739983657,409.30031986189937 M592.0492739983657,409.30031986189937 L593.1016366902406,410.44157829882784 M593.1016366902406,410.44157829882784 L594.6021789579727,411.40652353412116 M594.6021789579727,411.40652353412116 L596.463720878497,412.13896593549595 M596.463720878497,412.13896593549595 L598.5780067206719,412.59623354192706 M598.5780067206719,412.59623354192706 L600.8220117433367,412.751675854114 M631.9372250118472,430.4773473767204 L600.8220117433367,412.751675854114 M631.9372250118472,430.4773473767204 L439.6909204531671,470.85552531696936 M439.6909204531671,470.85552531696936 L510.9716319039993,361.5658361341809 M631.4026163917963,338.79769907158766 L631.5353825253438,291.9583357135251 M671.2817244981339,316.129625185443 L671.5020288556985,269.3434972505715 M711.601433704588,338.7976946947051 L711.9112213663216,291.9583313469005 M600.7915924759408,402.0638014543201 L600.8571921802687,355.07701985994197 M600.8220117433367,412.751675854114 L600.8877467809465,365.74015887085477 M631.9372250118472,430.4773473767204 L632.0723643417202,383.42491466761004 M439.6909204531671,470.85552531696936 L439.396798412684,423.71038956366596" stroke="black"  stroke-width="4"  fill="red"/>
<path d="M600.92308393302,307.88105415978237 L600.8571921802687,355.07701985994197 M600.8877467809465,365.74015887085477 L598.6387521011711,365.5850759556947 M598.6387521011711,365.5850759556947 L596.5197634953711,365.1288656541496 M596.5197634953711,365.1288656541496 L594.6540796760933,364.3981170093159 M594.6540796760933,364.3981170093159 L593.1501973983517,363.4354035378078 M593.1501973983517,363.4354035378078 L592.0954905840997,362.2967851620473 M592.0954905840997,362.2967851620473 L591.5511474899022,361.04852947387576 M591.5511474899022,361.04852947387576 L591.5486229578636,359.76322997221575 M591.5486229578636,359.76322997221575 L592.0878690637016,358.5155857258248 M592.0878690637016,358.5155857258248 L593.1373686377632,357.3780512116266 M593.1373686377632,357.3780512116266 L594.6360170369037,356.41664389284006 M594.6360170369037,356.41664389284006 L596.4966949114126,355.68712567137027 M596.4966949114126,355.68712567137027 L598.6113366569916,355.2317890237412 M598.6113366569916,355.2317890237412 L600.8571921802687,355.07701985994197 M600.9537747721789,318.51913118075163 L600.8877467809465,365.74015887085477 M600.92308393302,307.88105415978237 L598.6722305082418,308.03545921403645 M598.6722305082418,308.03545921403645 L596.5528844131602,308.4897246975242 M596.5528844131602,308.4897246975242 L594.6880684877628,309.21752693771117 M594.6880684877628,309.21752693771117 L593.1860885126989,310.1766731723853 M593.1860885126989,310.1766731723853 L592.1342575627903,311.3115328912211 M592.1342575627903,311.3115328912211 L591.593816272261,312.5562440701626 M591.593816272261,312.5562440701626 L591.5963520590478,313.83852268096354 M591.5963520590478,313.83852268096354 L592.1419130691395,315.0838452235748 M592.1419130691395,315.0838452235748 L593.1989744729353,316.2197886631765 M593.1989744729353,316.2197886631765 L594.7062116639698,317.18024088364143 M594.7062116639698,317.18024088364143 L596.5760558559998,317.9092733895421 M596.5760558559998,317.9092733895421 L598.6997681944057,318.36441241272826 M598.6997681944057,318.36441241272826 L600.9537747721789,318.51913118075163 M662.8457115092106,272.8473480501641 L662.6429901381215,319.9604323357028 M662.8457115092106,272.8473480501641 L600.92308393302,307.88105415978237 M662.6429901381215,319.9604323357028 L600.8571921802687,355.07701985994197 M671.9455540391708,314.67322540096563 L669.8663653438614,314.8057205444485 M669.8663653438614,314.8057205444485 L667.8938745546535,315.19658102836627 M667.8938745546535,315.19658102836627 L666.1268684065855,315.826264810525 M666.1268684065855,315.826264810525 L664.6538847614102,316.66327488484194 M664.6538847614102,316.66327488484194 L663.548782027749,317.6657316844503 M663.548782027749,317.6657316844503 L662.8670484322316,318.78344804120934 M662.8670484322316,318.78344804120934 L662.6429901381215,319.9604323357028 M711.9112213663216,291.9583313469005 L671.9455540391708,314.67322540096563 M671.5020288556985,269.3434972505715 L711.9112213663216,291.9583313469005 M560.4462417083733,332.1836131300324 L671.5020288556985,269.3434972505715 M541.7154258501623,332.1836131300324 L541.9839638136685,333.45273880718213 M541.9839638136685,333.45273880718213 L542.7813704900522,334.6483940370275 M542.7813704900522,334.6483940370275 L544.0614495278818,335.7010165225945 M544.0614495278818,335.7010165225945 L545.7498781225255,336.5493276018277 M545.7498781225255,336.5493276018277 L547.7485096985183,337.14391706216463 M547.7485096985183,337.14391706216463 L549.9410746024555,337.45013472202555 M549.9410746024555,337.45013472202555 L552.1999792511804,337.45013516944914 M552.1999792511804,337.45013516944914 L554.393743068384,337.14391637386143 M554.393743068384,337.14391637386143 L556.3947006752555,336.54932808358444 M556.3947006752555,336.54932808358444 L558.0864502719196,335.70101693546076 M558.0864502719196,335.70101693546076 L559.3706495889176,334.6483941746216 M559.3706495889176,334.6483941746216 L560.1727344076589,333.45273866962 M560.1727344076589,333.45273866962 L560.4462417083733,332.1836131300324 M510.83827836027024,314.6732232079829 L541.7154258501623,332.1836131300324 M510.83827836027024,314.6732232079829 L439.396798412684,423.71038956366596 M439.396798412684,423.71038956366596 L632.0723643417202,383.42491466761004 M600.8877467809465,365.74015887085477 L632.0723643417202,383.42491466761004 M632.2081069632492,336.16242956237875 L632.0723643417202,383.42491466761004 M600.9537747721789,318.51913118075163 L632.2081069632492,336.16242956237875 M712.2223797519324,244.91171689886633 L672.1687955315753,267.5726657819913 M672.1687955315753,267.5726657819913 L670.0849999467857,267.70484691589724 M670.0849999467857,267.70484691589724 L668.1081441033151,268.0947811159781 M668.1081441033151,268.0947811159781 L666.337233075085,268.7229727751193 M666.337233075085,268.7229727751193 L664.8610002325581,269.55799970188286 M664.8610002325581,269.55799970188286 L663.7534669091539,270.55808175346885 M663.7534669091539,270.55808175346885 L663.0702435304279,271.6731508299402 M663.0702435304279,271.6731508299402 L662.8457115092106,272.8473480501641 M439.1013582298407,376.3539673647415 L632.2081069632492,336.16242956237875 M510.7043334562827,267.5726635942059 L439.1013582298407,376.3539673647415 M510.7043334562827,267.5726635942059 L541.6498261205573,285.0416198113616 M560.4222403601807,285.04161981136156 L560.1481226036043,286.30774742372716 M560.1481226036043,286.30774742372716 L559.3442531851507,287.5005791857695 M559.3442531851507,287.5005791857695 L558.0571981746542,288.5507165083545 M558.0571981746542,288.5507165083545 L556.3616874449756,289.39702498256554 M556.3616874449756,289.39702498256554 L554.3562819554561,289.990209766554 M554.3562819554561,289.990209766554 L552.1576425027575,290.2957058019388 M552.1576425027575,290.2957058019388 L549.8937185910268,290.29570535557116 M549.8937185910268,290.29570535557116 L547.6962833844333,289.9902104532326 M547.6962833844333,289.9902104532326 L545.693214275938,289.3970245019462 M545.693214275938,289.3970245019462 L544.001039319343,288.550716096463 M544.001039319343,288.550716096463 L542.7181229136544,287.50057904850036 M542.7181229136544,287.50057904850036 L541.9189524465866,286.30774756096434 M541.9189524465866,286.30774756096434 L541.6498261205573,285.0416198113616 M671.7233058470724,222.35081066960907 L560.4222403601807,285.04161981136156 M671.7233058470724,222.35081066960907 L712.2223797519324,244.91171689886633 M672.1687955315753,267.5726657819913 L671.9455540391708,314.67322540096563 M712.2223797519324,244.91171689886633 L711.9112213663216,291.9583313469005 M671.7233058470724,222.35081066960907 L671.5020288556985,269.3434972505715 M560.4222403601807,285.04161981136156 L560.4462417083733,332.1836131300324 M541.6498261205573,285.0416198113616 L541.7154258501623,332.1836131300324 M510.7043334562827,267.5726635942059 L510.83827836027024,314.6732232079829 M439.1013582298407,376.3539673647415 L439.396798412684,423.71038956366596" stroke="black"  stroke-width="4"  fill="red"/>
<path d="M483.2899919165003,420.7925625714266 L483.0916070651115,373.1190194577053 M632.2081069632493,336.16242956237875 L632.3444568726553,288.68850066802236 M483.2899919165003,420.7925625714266 L632.2081069632493,336.16242956237875 M483.0916070651115,373.1190194577053 L632.3444568726553,288.68850066802236 M600.9537747721789,318.51913118075163 L601.0200976541523,271.08720742078134 M632.2081069632493,336.16242956237875 L600.9537747721789,318.51913118075163 M632.3444568726553,288.68850066802236 L601.0200976541523,271.08720742078134 M600.9892696632756,260.4745226204733 L598.7333960428368,260.6285587721912 M598.7333960428368,260.6285587721912 L596.6093246204763,261.08173899036024 M596.6093246204763,261.08173899036024 L594.7403521975618,261.8078026569833 M594.7403521975618,261.8078026569833 L593.235025801057,262.7646580338304 M593.235025801057,262.7646580338304 L592.1808530943789,263.89680772895935 M592.1808530943789,263.89680772895935 L591.6392113094917,265.13854720190807 M591.6392113094917,265.13854720190807 L591.6417584264658,266.417765116929 M591.6417584264658,266.417765116929 L592.188542814501,267.6601158560652 M592.188542814501,267.6601158560652 L593.247969344359,268.7933490968252 M593.247969344359,268.7933490968252 L594.7585764506398,269.75151025115076 M594.7585764506398,269.75151025115076 L596.6325996116818,270.4788039868551 M596.6325996116818,270.4788039868551 L598.7610567904015,270.93285760282663 M598.7610567904015,270.93285760282663 L601.0200976541523,271.08720742078134 M600.92308393302,307.88105415978237 L600.9892696632756,260.4745226204733 M600.9537747721789,318.51913118075163 L598.6997681944057,318.36441241272826 M598.6997681944057,318.36441241272826 L596.5760558559998,317.9092733895421 M596.5760558559998,317.9092733895421 L594.7062116639698,317.18024088364143 M594.7062116639698,317.18024088364143 L593.1989744729353,316.2197886631765 M593.1989744729353,316.2197886631765 L592.1419130691395,315.0838452235748 M592.1419130691395,315.0838452235748 L591.5963520590478,313.83852268096354 M591.5963520590478,313.83852268096354 L591.593816272261,312.5562440701626 M591.593816272261,312.5562440701626 L592.1342575627903,311.3115328912211 M592.1342575627903,311.3115328912211 L593.1860885126989,310.1766731723853 M593.1860885126989,310.1766731723853 L594.6880684877628,309.21752693771117 M594.6880684877628,309.21752693771117 L596.5528844131602,308.4897246975242 M596.5528844131602,308.4897246975242 L598.6722305082418,308.03545921403645 M598.6722305082418,308.03545921403645 L600.92308393302,307.88105415978237 M712.5349178585024,197.65649100721294 L600.9892696632756,260.4745226204733 M712.2223797519324,244.91171689886633 L712.5349178585024,197.65649100721294 M600.92308393302,307.88105415978237 L712.2223797519324,244.91171689886633 M671.7233058470724,222.35081066960907 L671.9455618418773,175.1502127232678 M712.2223797519324,244.91171689886633 L671.7233058470724,222.35081066960907 M712.5349178585024,197.65649100721294 L671.9455618418773,175.1502127232678 M631.66873611195,244.91172125509948 L631.8026810075069,197.6564953529193 M671.7233058470724,222.35081066960907 L631.66873611195,244.91172125509948 M671.9455618418773,175.1502127232678 L631.8026810075069,197.6564953529193 M622.3454789412305,250.1630863998284 L622.4588118331515,202.89517668623506 M631.66873611195,244.91172125509948 L631.4412019296237,246.0797935081702 M631.4412019296237,246.0797935081702 L630.756102995484,247.18954112679342 M630.756102995484,247.18954112679342 L629.6476661767656,248.1852609923118 M629.6476661767656,248.1852609923118 L628.1714084981634,249.01694322999433 M628.1714084981634,249.01694322999433 L626.4013512150835,249.64279724849652 M626.4013512150835,249.64279724849652 L624.4263212088587,250.03135757167652 M624.4263212088587,250.03135757167652 L622.3454789412305,250.1630863998284 M631.8026810075069,197.6564953529193 L631.5746576489894,198.82174528692218 M631.5746576489894,198.82174528692218 L630.8880539823758,199.92881205858612 M630.8880539823758,199.92881205858612 L629.777171770871,200.9221269906794 M629.777171770871,200.9221269906794 L628.2976503632694,201.75180081914962 M628.2976503632694,201.75180081914962 L626.5236746596252,202.37614367539064 M626.5236746596252,202.37614367539064 L624.5442683302765,202.76376588153494 M624.5442683302765,202.76376588153494 L622.4588118331515,202.89517668623506 M560.4222403601807,285.04161981136156 L560.3981321677891,237.68976959300545 M622.3454789412305,250.1630863998284 L560.4222403601807,285.04161981136156 M622.4588118331515,202.89517668623506 L560.3981321677891,237.68976959300545 M541.5839343677495,237.68976959300545 L541.8536516396628,238.952860116129 M541.8536516396628,238.952860116129 L542.654593717259,240.1428308372367 M542.654593717259,240.1428308372367 L543.9403600970602,241.19044985238344 M543.9403600970602,241.19044985238344 L545.6362980777452,242.034729315432 M545.6362980777452,242.034729315432 L547.6438244677587,242.62649334562755 M547.6438244677587,242.62649334562755 L549.8461516617955,242.93125600809554 M549.8461516617955,242.93125600809554 L552.115117191707,242.9312564533933 M552.115117191707,242.9312564533933 L554.3186540003526,242.62649266059492 M554.3186540003526,242.62649266059492 L556.3285271907613,242.0347297948993 M556.3285271907613,242.0347297948993 L558.027815814369,241.19045026328757 M558.027815814369,241.19045026328757 L559.3177392471543,240.14283097417675 M559.3177392471543,240.14283097417675 L560.1234012243015,238.9528599792209 M560.1234012243015,238.9528599792209 L560.3981321677891,237.68976959300545 M541.6498261205573,285.04161981136156 L541.5839343677495,237.68976959300545 M560.4222403601807,285.04161981136156 L560.1481226036043,286.30774742372716 M560.1481226036043,286.30774742372716 L559.3442531851507,287.5005791857695 M559.3442531851507,287.5005791857695 L558.0571981746542,288.5507165083545 M558.0571981746542,288.5507165083545 L556.3616874449756,289.39702498256554 M556.3616874449756,289.39702498256554 L554.3562819554561,289.990209766554 M554.3562819554561,289.990209766554 L552.1576425027575,290.2957058019388 M552.1576425027575,290.2957058019388 L549.8937185910268,290.29570535557116 M549.8937185910268,290.29570535557116 L547.6962833844333,289.9902104532326 M547.6962833844333,289.9902104532326 L545.693214275938,289.3970245019462 M545.693214275938,289.3970245019462 L544.001039319343,288.550716096463 M544.001039319343,288.550716096463 L542.7181229136544,287.50057904850036 M542.7181229136544,287.50057904850036 L541.9189524465866,286.30774756096434 M541.9189524465866,286.30774756096434 L541.6498261205573,285.04161981136156 M510.7043334562828,267.5726635942059 L510.5697933016454,220.26278927050456 M541.6498261205573,285.04161981136156 L510.7043334562828,267.5726635942059 M541.5839343677495,237.68976959300545 L510.5697933016454,220.26278927050456 M361.7943244259908,351.07619620685676 L361.3251040952346,303.5668657150097 M510.7043334562828,267.5726635942059 L361.7943244259908,351.07619620685676 M510.5697933016454,220.26278927050456 L361.3251040952346,303.5668657150097 M483.0916070651115,373.1190194577053 L487.5991619894778,381.3845987723183 M487.5991619894778,381.3845987723183 L491.0098240147038,389.8354726530319 M491.0098240147038,389.8354726530319 L493.3018767838565,398.42494995727407 M493.3018767838565,398.42494995727407 L494.4597308075338,407.1053020204916 M494.4597308075338,407.1053020204916 L494.4740123634198,415.8280808703116 M494.4740123634198,415.8280808703116 L493.3417916254417,424.54434060010186 M493.3417916254417,424.54434060010186 L491.06655794888945,433.20493835843587 M491.06655794888945,433.20493835843587 L487.6583144228907,441.760783769226 M487.6583144228907,441.760783769226 L483.1335904989493,450.1631593011139 M483.1335904989493,450.1631593011139 L477.5153716784556,458.3639658488789 M477.5153716784556,458.3639658488789 L470.8330545526028,466.31606626509597 M470.8330545526028,466.31606626509597 L463.1223477323008,473.9735164465426 M463.1223477323008,473.9735164465426 L454.4250432219103,481.29189792931834 M454.4250432219103,481.29189792931834 L444.78893019583916,488.22855914220816 M444.78893019583916,488.22855914220816 L434.2674571236513,494.74292467836545 M434.2674571236513,494.74292467836545 L422.9194618332318,500.7967616393049 M422.9194618332318,500.7967616393049 L410.8088737601062,506.3543831883425 M410.8088737601062,506.3543831883425 L398.00436963345396,511.3829633009969 M398.00436963345396,511.3829633009969 L384.5789391512508,515.8526388821396 M384.5789391512508,515.8526388821396 L370.6094821030789,519.7368594263168 M370.6094821030789,519.7368594263168 L356.1762367212299,523.0124939777736 M356.1762367212299,523.0124939777736 L341.36243670355447,525.6599988054257 M341.36243670355447,525.6599988054257 L326.2538079801371,527.6634923832387 M326.2538079801371,527.6634923832387 L310.93776334256927,529.0110285981161 M310.93776334256927,529.0110285981161 L295.50324876405784,529.6944978705745 M295.50324876405784,529.6944978705745 L280.0397747189818,529.7098364046702 M280.0397747189818,529.7098364046702 L264.63723954306306,529.0569039783296 M264.63723954306306,529.0569039783296 L249.38502948691718,527.7396463022535 M249.38502948691718,527.7396463022535 L234.37156075384763,525.7659812259806 M234.37156075384763,525.7659812259806 L219.68387777305276,523.1476709099277 M219.68387777305276,523.1476709099277 L205.4068116177471,519.9004163839793 M205.4068116177471,519.9004163839793 L191.6226985797913,516.0435915546182 M191.6226985797913,516.0435915546182 L178.41074182343138,511.6001719153963 M178.41074182343138,511.6001719153963 L165.84652957220007,506.59659356504693 M165.84652957220007,506.59659356504693 L154.00165440168698,501.0625102650379 M154.00165440168698,501.0625102650379 L142.94320052795786,495.03065159298274 M142.94320052795786,495.03065159298274 L132.7334228003998,488.5365582349279 M132.7334228003998,488.5365582349279 L123.42934439911369,481.6183743528695 M123.42934439911369,481.6183743528695 L115.0824986562476,474.3165668744028 M115.0824986562476,474.3165668744028 L107.73858144025576,466.67369932235374 M107.73858144025576,466.67369932235374 L101.43732973958726,458.7341086190352 M101.43732973958726,458.7341086190352 L96.2122282464016,450.54366597112755 M96.2122282464016,450.54366597112755 L92.09039791780219,442.1494930625924 M92.09039791780219,442.1494930625924 L89.09260838231523,433.5996018168679 M89.09260838231523,433.5996018168679 L87.23294378156515,424.94274429776374 M87.23294378156515,424.94274429776374 L86.51909735799575,416.22796186475836 M86.51909735799575,416.22796186475836 L86.95226389035065,407.50438976184836 M86.95226389035065,407.50438976184836 L88.52704783883962,398.8210387597018 M88.52704783883962,398.8210387597018 L91.2318432105094,390.22633992922806 M91.2318432105094,390.22633992922806 L95.04869258101053,381.768099391331 M95.04869258101053,381.768099391331 L99.95371805792178,373.49301721522556 M99.95371805792178,373.49301721522556 L105.91698719335699,365.44666411880655 M105.91698719335699,365.44666411880655 L112.90301433785908,357.6730990113043 M112.90301433785908,357.6730990113043 L120.87089748541257,350.2146544962884 M120.87089748541257,350.2146544962884 L129.77459229420185,343.1118118809108 M129.77459229420185,343.1118118809108 L139.56307125624812,336.4029453409172 M139.56307125624812,336.4029453409172 L150.18087782453426,330.12415865045114 M150.18087782453426,330.12415865045114 L161.56824388538502,324.3090969548586 M161.56824388538502,324.3090969548586 L173.66155614883886,318.98880409343457 M173.66155614883886,318.98880409343457 L186.3936208038221,314.1915975374701 M186.3936208038221,314.1915975374701 L199.69402663050124,309.9429510635261 M199.69402663050124,309.9429510635261 L213.48957715228502,306.2653309975635 M213.48957715228502,306.2653309975635 L227.70459736556774,303.17816285113145 M227.70459736556774,303.17816285113145 L242.26139933803228,300.6977097196078 M242.26139933803228,300.6977097196078 L257.080572086146,298.83701281990193 M257.080572086146,298.83701281990193 L272.0814680642819,297.6058534629067 M272.0814680642819,297.6058534629067 L287.18252761105657,297.0106916400829 M287.18252761105657,297.0106916400829 L302.30173946600365,297.05464289755264 M302.30173946600365,297.05464289755264 L317.35698793314407,297.7374931971576 M317.35698793314407,297.7374931971576 L332.2665032821568,299.0556408672401 M332.2665032821568,299.0556408672401 L346.9491839330205,301.00217391302255 M346.9491839330205,301.00217391302255 L361.3251040952346,303.5668657150097 M361.7943244259908,351.07619620685676 L347.4504117208576,348.5054088574831 M347.4504117208576,348.5054088574831 L332.8004398919435,346.5542475390685 M332.8004398919435,346.5542475390685 L317.9241622671909,345.23296477068254 M317.9241622671909,345.23296477068254 L302.90250557396314,344.5484900738947 M302.90250557396314,344.5484900738947 L287.81706327398496,344.5044342560943 M287.81706327398496,344.5044342560943 L272.749773927912,345.1010119013057 M272.749773927912,345.1010119013057 L257.7824716352916,346.33509955653955 M257.7824716352916,346.33509955653955 L242.99653947845815,348.2002208483613 M242.99653947845815,348.2002208483613 L228.47244987334747,350.6865696904989 M228.47244987334747,350.6865696904989 L214.28944069745182,353.78107188314857 M214.28944069745182,353.78107188314857 L200.5250297468237,357.4674232831703 M200.5250297468237,357.4674232831703 L187.2547253810092,361.7261494714048 M187.2547253810092,361.7261494714048 L174.55156186232864,366.5347277169517 M174.55156186232864,366.5347277169517 L162.48579322083052,371.86762050279043 M162.48579322083052,371.86762050279043 L151.12446201028766,377.69643975964254 M151.12446201028766,377.69643975964254 L140.5310369695323,383.99006456542554 M140.5310369695323,383.99006456542554 L130.76514894561274,390.7147666014386 M130.76514894561274,390.7147666014386 L121.88212556121425,397.8343532666866 M121.88212556121425,397.8343532666866 L113.9328740477689,405.3103564484908 M113.9328740477689,405.3103564484908 L106.96332842725798,413.1021962738812 M106.96332842725798,413.1021962738812 L101.0142907996314,421.16743763793 M101.0142907996314,421.16743763793 L96.12115804725039,429.46191557267355 M96.12115804725039,429.46191557267355 L92.31378543673424,437.93995032394395 M92.31378543673424,437.93995032394395 L89.61598657039355,446.5547307696262 M89.61598657039355,446.5547307696262 L88.04566732712794,455.25833782682173 M88.04566732712794,455.25833782682173 L87.61439608704023,464.0022267171264 M87.61439608704023,464.0022267171264 L88.3275445717486,472.73727234735804 M88.3275445717486,472.73727234735804 L90.18390906605089,481.41422560618014 M90.18390906605089,481.41422560618014 L93.17580227153519,489.9839322228091 M93.17580227153519,489.9839322228091 L97.28916082797934,498.3975286105782 M97.28916082797934,498.3975286105782 L102.50325161353317,506.6068937191501 M102.50325161353317,506.6068937191501 L108.79100532452867,514.5647994285293 M108.79100532452867,514.5647994285293 L116.11900428192104,522.225271553551 M116.11900428192104,522.225271553551 L124.44759377573803,529.543874227058 M124.44759377573803,529.543874227058 L133.73117494674483,536.4779494768825 M133.73117494674483,536.4779494768825 L143.91832604186328,542.9869410673086 M143.91832604186328,542.9869410673086 L154.9521493176233,549.0326210847331 M154.9521493176233,549.0326210847331 L166.7705286856853,554.5793711838346 M166.7705286856853,554.5793711838346 L179.3065311169434,559.5943905862259 M179.3065311169434,559.5943905862259 L192.48872690970845,564.0479612856009 M192.48872690970845,564.0479612856009 L206.24170118440958,567.9135901141833 M206.24170118440958,567.9135901141833 L220.4864336545287,571.168252142161 M220.4864336545287,571.168252142161 L235.1407792372245,573.7925318921205 M235.1407792372245,573.7925318921205 L250.12010481062984,575.7706947133856 M250.12010481062984,575.7706947133856 L265.33756985834816,577.0909533163845 M265.33756985834816,577.0909533163845 L280.70496594832974,577.745372948508 M280.70496594832974,577.745372948508 L296.13311736509866,577.7299994794571 M296.13311736509866,577.7299994794571 L311.53233783880245,577.0449734373142 M311.53233783880245,577.0449734373142 L326.8133282293302,575.6943672802512 M326.8133282293302,575.6943672802512 L341.88735257521887,573.686307902364 M341.88735257521887,573.686307902364 L356.6672043626096,571.0327669416824 M356.6672043626096,571.0327669416824 L371.06735968281305,567.7496599356207 M371.06735968281305,567.7496599356207 L385.0047805900705,563.8565725557742 M385.0047805900705,563.8565725557742 L398.3994170426338,559.3766855348185 M398.3994170426338,559.3766855348185 L411.1745489722649,554.3366066983017 M411.1745489722649,554.3366066983017 L423.25735653219556,548.7662638589754 M423.25735653219556,548.7662638589754 L434.5793219786426,542.698554461643 M434.5793219786426,542.698554461643 L445.0766629673162,536.1692433405922 M445.0766629673162,536.1692433405922 L454.69067606770045,529.216647357601 M454.69067606770045,529.216647357601 L463.3680338539492,521.8814314894278 M463.3680338539492,521.8814314894278 L471.0610542726665,514.2063419761337 M471.0610542726665,514.2063419761337 L477.7280378218453,506.2358964353063 M477.7280378218453,506.2358964353063 L483.3333536773624,498.01614214151596 M483.3333536773624,498.01614214151596 L487.84766791973436,489.59432274162634 M487.84766791973436,489.59432274162634 L491.2480425204991,481.0186466998091 M491.2480425204991,481.0186466998091 L493.51798035465436,472.3379430224513 M493.51798035465436,472.3379430224513 L494.6474955217154,463.60141514411583 M494.6474955217154,463.60141514411583 L494.63310091984044,454.85831983552794 M494.63310091984044,454.85831983552794 L493.47771408539506,446.15771720875574 M493.47771408539506,446.15771720875574 L491.19068202874803,437.54816901632154 M491.19068202874803,437.54816901632154 L487.7875537929093,429.07751673569993 M487.7875537929093,429.07751673569993 L483.2899919165003,420.7925625714266 M312.29452644731066,447.9373483914264 L315.8808639180726,450.4834355752226 M315.8808639180726,450.4834355752226 L318.52231689189637,453.3897708491524 M318.52231689189637,453.3897708491524 L320.1168059924025,456.545151550783 M320.1168059924025,456.545151550783 L320.60214902873673,459.8286706267861 M320.60214902873673,459.8286706267861 L319.9586567413676,463.1142651622027 M319.9586567413676,463.1142651622027 L318.21006002472825,466.27553674267534 M318.21006002472825,466.27553674267534 L315.422667802907,469.1906785773881 M315.422667802907,469.1906785773881 L311.7030376729127,471.7471538570701 M311.7030376729127,471.7471538570701 L307.1938765646398,473.8461507865776 M307.1938765646398,473.8461507865776 L302.0687406289097,475.4063839504343 M302.0687406289097,475.4063839504343 L296.52516681069943,476.36740138968713 M296.52516681069943,476.36740138968713 L290.7770706896033,476.6919375772668 M290.7770706896033,476.6919375772668 L285.04640485192454,476.36739341710796 M285.04640485192454,476.36739341710796 L279.55439336827465,475.40637911082985 M279.55439336827465,475.40637911082985 L274.51297803684866,473.8461499327848 M274.51297803684866,473.8461499327848 L270.11649639126824,471.7471538570701 M270.11649639126824,471.7471538570701 L266.53402872944724,469.19068170517323 M266.53402872944724,469.19068170517323 L263.90308417261645,466.27553475337737 M263.90308417261645,466.27553475337737 L262.3241421676282,463.11425720982805 M262.3241421676282,463.11425720982805 L261.85697221041585,459.8286797094943 M261.85697221041585,459.8286797094943 L262.51852666818706,456.54516176240077 M262.51852666818706,456.54516176240077 L264.2823384201238,453.3897779362647 M264.2823384201238,453.3897779362647 L267.0797661476292,450.483447758263 M267.0797661476292,450.483447758263 L270.8027566072032,447.9373483914264 M270.8027566072032,447.9373483914264 L275.3079996327425,445.8487637189091 M275.3079996327425,445.8487637189091 L280.4226272040978,444.2973422389308 M280.4226272040978,444.2973422389308 L285.9506700030762,443.34221257499235 M285.9506700030762,443.34221257499235 L291.6805929568451,443.0197348489008 M291.6805929568451,443.0197348489008 L297.39319662504727,443.3422023892043 M297.39319662504727,443.3422023892043 L302.8699769613121,444.2973379940743 M302.8699769613121,444.2973379940743 L307.9013567705345,445.8487555097428 M307.9013567705345,445.8487555097428 L312.29452644731066,447.9373483914264 M312.29452644731066,447.9373483914264 L311.70896584500105,400.2004364010407 M311.70896584500105,400.2004364010407 L307.3059818733683,398.1167079658694 M307.3059818733683,398.1167079658694 L302.2633178675926,396.5689050081791 M302.2633178675926,396.5689050081791 L296.7742145847893,395.61599523665444 M296.7742145847893,395.61599523665444 L291.0487188282458,395.2942792589143 M291.0487188282458,395.2942792589143 L285.30582543976146,395.6160053987035 M285.30582543976146,395.6160053987035 L279.76522770607426,396.56890924314433 M279.76522770607426,396.56890924314433 L274.63893911494444,398.11671615591246 M274.63893911494444,398.11671615591246 L270.1233744062594,400.2004364010407 M270.1233744062594,400.2004364010407 L266.3917971085342,402.7406083176424 M266.3917971085342,402.7406083176424 L263.5878482957584,405.64017583900426 M263.5878482957584,405.64017583900426 L261.8198343069578,408.7882216320823 M261.8198343069578,408.7882216320823 L261.156561826904,412.0641081381196 M261.156561826904,412.0641081381196 L261.62456868529307,415.3420540816411 M261.62456868529307,415.3420540816411 L263.2068749770413,418.4959931960623 M263.2068749770413,418.4959931960623 L265.8435860127531,421.40437690734035 M265.8435860127531,421.40437690734035 L269.43400356422273,423.9549209837774 M269.43400356422273,423.9549209837774 L273.8403139185095,426.0490519172354 M273.8403139185095,426.0490519172354 L278.8930583969933,427.6056659654084 M278.8930583969933,427.6056659654084 L284.3974614705458,428.56445407733474 M284.3974614705458,428.56445407733474 L290.1411011772346,428.8882465196499 M290.1411011772346,428.8882465196499 L295.9022502691554,428.56446203144696 M295.9022502691554,428.56446203144696 L301.4584497791582,427.6056707938009 M301.4584497791582,427.6056707938009 L306.5952949037836,426.04905276904964 M306.5952949037836,426.04905276904964 L311.11479601700574,423.9549209837773 M311.11479601700574,423.9549209837773 L314.8429984597531,421.40437378680986 M314.8429984597531,421.40437378680986 L317.63686681632936,418.49599518074376 M317.63686681632936,418.49599518074376 L319.3895971636243,415.34206201554997 M319.3895971636243,415.34206201554997 L320.03472569279825,412.0640990765147 M320.03472569279825,412.0640990765147 L319.54846321978005,408.78821144420516 M319.54846321978005,408.78821144420516 L317.9505390386006,405.6401687683782 M317.9505390386006,405.6401687683782 L315.3032714164576,402.74059616295796 M315.3032714164576,402.74059616295796 L311.70896584500105,400.2004364010407" stroke="black"  stroke-width="4"  fill="red"/>
<path d="M601.0557513428149,212.85601292528867 L600.9892696632756,260.4745226204733 M601.0200976541522,271.0872074207814 L598.7610567904015,270.93285760282663 M598.7610567904015,270.93285760282663 L596.6325996116818,270.4788039868551 M596.6325996116818,270.4788039868551 L594.7585764506398,269.75151025115076 M594.7585764506398,269.75151025115076 L593.247969344359,268.7933490968252 M593.247969344359,268.7933490968252 L592.188542814501,267.6601158560652 M592.188542814501,267.6601158560652 L591.6417584264658,266.417765116929 M591.6417584264658,266.417765116929 L591.6392113094917,265.13854720190807 M591.6392113094917,265.13854720190807 L592.1808530943789,263.89680772895935 M592.1808530943789,263.89680772895935 L593.235025801057,262.7646580338304 M593.235025801057,262.7646580338304 L594.7403521975618,261.8078026569833 M594.7403521975618,261.8078026569833 L596.6093246204763,261.08173899036024 M596.6093246204763,261.08173899036024 L598.7333960428368,260.6285587721912 M598.7333960428368,260.6285587721912 L600.9892696632756,260.4745226204733 M601.0867174068264,223.4429715895084 L601.0200976541522,271.0872074207814 M601.0557513428149,212.85601292528867 L598.794835083051,213.009675328032 M598.794835083051,213.009675328032 L596.6660172150044,213.46175602245444 M596.6660172150044,213.46175602245444 L594.7928697243215,214.18605827127539 M594.7928697243215,214.18605827127539 L593.2841819614094,215.1405926845012 M593.2841819614094,215.1405926845012 L592.227657047551,216.26999673461364 M592.227657047551,216.26999673461364 L591.6848094231779,217.50872543196192 M591.6848094231779,217.50872543196192 L591.687367946454,218.78484240213885 M591.687367946454,218.78484240213885 L592.2353812113079,220.02418224847764 M592.2353812113079,220.02418224847764 L593.297183474629,221.1546696341407 M593.297183474629,221.1546696341407 L594.8111755989602,222.11050957441873 M594.8111755989602,222.11050957441873 L596.6893964502367,222.8360416560168 M596.6893964502367,222.8360416560168 L598.822619718773,223.28899557817792 M598.822619718773,223.28899557817792 L601.0867174068264,223.4429715895084 M663.253864350111,177.99134401162843 L663.0493342382265,225.52478534728877 M663.253864350111,177.99134401162843 L601.0557513428149,212.85601292528867 M663.0493342382265,225.52478534728877 L600.9892696632756,260.4745226204733 M672.393029108333,220.26279145302468 L670.3046061736292,220.39465447497335 M670.3046061736292,220.39465447497335 L668.323365913687,220.78365028918387 M668.323365913687,220.78365028918387 L666.5485327085928,221.41033032864533 M666.5485327085928,221.41033032864533 L665.0690363028638,222.243348191728 M665.0690363028638,222.243348191728 L663.9590616750886,223.24102445633002 M663.9590616750886,223.24102445633002 L663.274341989142,224.3534116445913 M663.274341989142,224.3534116445913 L663.0493342382265,225.52478534728877 M712.5349178585024,197.65649100721294 L672.393029108333,220.26279145302468 M671.9455618418773,175.1502127232678 L712.5349178585024,197.65649100721294 M560.3981321677891,237.68976959300545 L671.9455618418773,175.1502127232678 M541.5839343677495,237.68976959300545 L541.8536516396628,238.952860116129 M541.8536516396628,238.952860116129 L542.654593717259,240.1428308372367 M542.654593717259,240.1428308372367 L543.9403600970602,241.19044985238344 M543.9403600970602,241.19044985238344 L545.6362980777452,242.034729315432 M545.6362980777452,242.034729315432 L547.6438244677587,242.62649334562755 M547.6438244677587,242.62649334562755 L549.8461516617955,242.93125600809554 M549.8461516617955,242.93125600809554 L552.115117191707,242.9312564533933 M552.115117191707,242.9312564533933 L554.3186540003526,242.62649266059492 M554.3186540003526,242.62649266059492 L556.3285271907613,242.0347297948993 M556.3285271907613,242.0347297948993 L558.027815814369,241.19045026328757 M558.027815814369,241.19045026328757 L559.3177392471543,240.14283097417675 M559.3177392471543,240.14283097417675 L560.1234012243015,238.9528599792209 M560.1234012243015,238.9528599792209 L560.3981321677891,237.68976959300545 M510.5697933016453,220.26278927050464 L541.5839343677495,237.68976959300545 M510.5697933016453,220.26278927050464 L438.80459113823065,328.78485354352483 M438.80459113823065,328.78485354352483 L632.3444568726553,288.68850066802236 M601.0200976541522,271.0872074207814 L632.3444568726553,288.68850066802236 M632.4814181544187,241.00170586161784 L632.3444568726553,288.68850066802236 M601.0867174068264,223.4429715895084 L632.4814181544187,241.00170586161784 M712.8488448832438,150.19126306923295 L672.6182613974005,172.7422040161513 M672.6182613974005,172.7422040161513 L670.525190515739,172.87374477822965 M670.525190515739,172.87374477822965 L668.5395463480024,173.26178997021168 M668.5395463480024,173.26178997021168 L666.7607735541642,173.88693867691867 M666.7607735541642,173.88693867691867 L665.2779991238992,174.71792127249898 M665.2779991238992,174.71792127249898 L664.1655724061247,175.71316036655648 M664.1655724061247,175.71316036655648 L663.479349846007,176.82283067441597 M663.479349846007,176.82283067441597 L663.253864350111,177.99134401162843 M438.50648817842773,281.00161198404555 L632.4814181544187,241.00170586161784 M510.4346539195841,172.74220183896514 L438.50648817842773,281.00161198404555 M510.4346539195841,172.74220183896514 L541.517748637437,190.12665805320205 M560.3739164161667,190.12665805320205 L560.0985695363511,191.38667147724357 M560.0985695363511,191.38667147724357 L559.2911069881667,192.57374426913162 M559.2911069881667,192.57374426913162 L557.9983023190072,193.61881256691387 M557.9983023190072,193.61881256691387 L556.2952189282674,194.46103659495853 M556.2952189282674,194.46103659495853 L554.2808580859772,195.05135892547668 M554.2808580859772,195.05135892547668 L552.0724020554655,195.35538088778424 M552.0724020554655,195.35538088778424 L549.798372402514,195.3553804435703 M549.798372402514,195.3553804435703 L547.5911313910981,195.05135960884186 M547.5911313910981,195.05135960884186 L545.5791278384186,194.46103611665836 M545.5791278384186,194.46103611665836 L543.879410060099,193.6188121570103 M543.879410060099,193.6188121570103 L542.5907810157316,192.57374413252526 M542.5907810157316,192.57374413252526 L541.7880594556434,191.38667161381804 M541.7880594556434,191.38667161381804 L541.517748637437,190.12665805320205 M672.1688033516762,127.74032054827683 L560.3739164161667,190.12665805320205 M672.1688033516762,127.74032054827683 L712.8488448832438,150.19126306923295 M672.6182613974005,172.7422040161513 L672.393029108333,220.26279145302468 M712.8488448832438,150.19126306923295 L712.5349178585024,197.65649100721294 M672.1688033516762,127.74032054827683 L671.9455618418773,175.1502127232678 M560.3739164161667,190.12665805320205 L560.3981321677891,237.68976959300545 M541.517748637437,190.12665805320205 L541.5839343677495,237.68976959300545 M510.4346539195841,172.74220183896514 L510.5697933016453,220.26278927050464 M438.50648817842773,281.00161198404555 L438.80459113823065,328.78485354352483" stroke="black"  stroke-width="4"  fill="red"/>
<path d="M560.3739164161667,190.12665805320205 L560.3495924026746,142.35090511098213 M541.4512670091889,142.35090511098213 L541.7221739908363,143.60780153291472 M541.7221739908363,143.60780153291472 L542.5266829565826,144.79193799851816 M542.5266829565826,144.79193799851816 L543.8181874386999,145.83442170932716 M543.8181874386999,145.83442170932716 L545.5217018976682,146.67456331028427 M545.5217018976682,146.67456331028427 L547.5382026240011,147.26342744122078 M547.5382026240011,147.26342744122078 L549.7503794253671,147.56669675408193 M549.7503794253671,147.56669675408193 L552.0294958533121,147.56669719719778 M552.0294958533121,147.56669719719778 L554.2428931145623,147.26342675954493 M554.2428931145623,147.26342675954493 L556.2617616901833,146.6745637874019 M556.2617616901833,146.6745637874019 L557.9686568316082,145.83442211821716 M557.9686568316082,145.83442211821716 L559.2643556350504,144.79193813478676 M559.2643556350504,144.79193813478676 L560.0736268190591,143.6078013966781 M560.0736268190591,143.6078013966781 L560.3495924026746,142.35090511098213 M541.517748637437,190.12665805320205 L541.4512670091889,142.35090511098213 M560.3739164161667,190.12665805320205 L560.0985695363511,191.38667147724357 M560.0985695363511,191.38667147724357 L559.2911069881667,192.57374426913162 M559.2911069881667,192.57374426913162 L557.9983023190072,193.61881256691387 M557.9983023190072,193.61881256691387 L556.2952189282674,194.46103659495853 M556.2952189282674,194.46103659495853 L554.2808580859772,195.05135892547668 M554.2808580859772,195.05135892547668 L552.0724020554655,195.35538088778424 M552.0724020554655,195.35538088778424 L549.798372402514,195.3553804435703 M549.798372402514,195.3553804435703 L547.5911313910981,195.05135960884186 M547.5911313910981,195.05135960884186 L545.5791278384186,194.46103611665836 M545.5791278384186,194.46103611665836 L543.879410060099,193.6188121570103 M543.879410060099,193.6188121570103 L542.5907810157316,192.57374413252526 M542.5907810157316,192.57374413252526 L541.7880594556434,191.38667161381804 M541.7880594556434,191.38667161381804 L541.517748637437,190.12665805320205 M622.572648635933,155.41710015652254 L622.6869926295484,107.7274888274946 M622.572648635933,155.41710015652254 L560.3739164161667,190.12665805320205 M622.6869926295484,107.7274888274946 L560.3495924026746,142.35090511098213 M672.3930367727177,80.11977577063175 L632.0723604228564,102.51467124288746 M632.0723604228564,102.51467124288746 L631.843352381268,103.6741661859885 M631.843352381268,103.6741661859885 L631.1537193355199,104.77576642031431 M631.1537193355199,104.77576642031431 L630.0379138281651,105.76417741422455 M630.0379138281651,105.76417741422455 L628.5518214803221,106.58975585001042 M628.5518214803221,106.58975585001042 L626.7699566615065,107.21101725305999 M626.7699566615065,107.21101725305999 L624.7817392473629,107.59672651507867 M624.7817392473629,107.59672651507867 L622.6869926295484,107.7274888274946 M541.4512670091889,142.35090511098213 L510.29891140266477,125.0095272843568 M438.2070405414528,233.00283068562476 L510.29891140266477,125.0095272843568 M632.6189948234694,193.10064723614204 L438.2070405414528,233.00283068562476 M632.6189948234694,193.10064723614204 L601.1536359762398,175.58503194488998 M601.1536359762398,175.58503194488998 L598.8844587777874,175.43143465074263 M598.8844587777874,175.43143465074263 L596.746448030562,174.9795948678443 M596.746448030562,174.9795948678443 L594.8640106449999,174.25584757869697 M594.8640106449999,174.25584757869697 L593.3466183006847,173.30235933554013 M593.3466183006847,173.30235933554013 L592.2824296268224,172.17465385758464 M592.2824296268224,172.17465385758464 L591.733181950071,170.93836442782208 M591.733181950071,170.93836442782208 L591.7306119437033,169.66538909883243 M591.7306119437033,169.66538909883243 L592.2746707875317,168.42971068080087 M592.2746707875317,168.42971068080087 L593.3335584272673,167.30308829275256 M593.3335584272673,167.30308829275256 L594.8456225992844,166.35090528336391 M594.8456225992844,166.35090528336391 L596.7229638494779,165.62838755031652 M596.7229638494779,165.62838755031652 L598.8565494198257,165.17742079642767 M598.8565494198257,165.17742079642767 L601.1225309095114,165.02413704292172 M601.1225309095114,165.02413704292172 L713.1641698617505,102.51466691864618 M713.1641698617505,102.51466691864618 L672.3930367727177,80.11977577063175 M510.4346539195841,172.74220183896514 L510.29891140266477,125.0095272843568 M541.517748637437,190.12665805320205 L510.4346539195841,172.74220183896514 M631.9372211536767,150.19126740427583 L631.7087065131491,151.35365836963447 M631.7087065131491,151.35365836963447 L631.0205914902184,152.45800947450493 M631.0205914902184,152.45800947450493 L629.9072530724935,153.4488882309006 M629.9072530724935,153.4488882309006 L628.42445347308,154.27652755466886 M628.42445347308,154.27652755466886 L626.6465419618336,154.89933961128787 M626.6465419618336,154.89933961128787 L624.6627398719701,155.2860115085373 M624.6627398719701,155.2860115085373 L622.572648635933,155.41710015652254 M672.1688033516762,127.74032054827683 L631.9372211536767,150.19126740427583 M712.8488448832438,150.19126306923295 L672.1688033516762,127.74032054827683 M601.0557513428149,212.85601292528867 L712.8488448832438,150.19126306923295 M601.0557513428149,212.85601292528867 L598.794835083051,213.009675328032 M598.794835083051,213.009675328032 L596.6660172150044,213.46175602245444 M596.6660172150044,213.46175602245444 L594.7928697243215,214.18605827127539 M594.7928697243215,214.18605827127539 L593.2841819614094,215.1405926845012 M593.2841819614094,215.1405926845012 L592.227657047551,216.26999673461364 M592.227657047551,216.26999673461364 L591.6848094231779,217.50872543196192 M591.6848094231779,217.50872543196192 L591.687367946454,218.78484240213885 M591.687367946454,218.78484240213885 L592.2353812113079,220.02418224847764 M592.2353812113079,220.02418224847764 L593.297183474629,221.1546696341407 M593.297183474629,221.1546696341407 L594.8111755989602,222.11050957441873 M594.8111755989602,222.11050957441873 L596.6893964502367,222.8360416560168 M596.6893964502367,222.8360416560168 L598.822619718773,223.28899557817792 M598.822619718773,223.28899557817792 L601.0867174068264,223.4429715895084 M632.4814181544187,241.00170586161784 L601.0867174068264,223.4429715895084 M632.4814181544187,241.00170586161784 L438.50648817842773,281.00161198404555 M438.50648817842773,281.00161198404555 L510.4346539195841,172.74220183896514 M631.9372211536767,150.19126740427583 L632.0723604228564,102.51467124288746 M672.1688033516762,127.74032054827683 L672.3930367727177,80.11977577063175 M712.8488448832438,150.19126306923295 L713.1641698617505,102.51466691864618 M601.0557513428149,212.85601292528867 L601.1225309095114,165.02413704292172 M601.0867174068264,223.4429715895084 L601.1536359762398,175.58503194488998 M632.4814181544187,241.00170586161784 L632.6189948234694,193.10064723614204 M438.50648817842773,281.00161198404555 L438.2070405414528,233.00283068562476" stroke="black"  stroke-width="4"  fill="red"/>
<path d="M601.1896104736144,116.97738347522471 L601.1225309095114,165.02413704292172 M601.1536359762398,175.58503194488998 L598.8844587777874,175.43143465074263 M598.8844587777874,175.43143465074263 L596.746448030562,174.9795948678443 M596.746448030562,174.9795948678443 L594.8640106449999,174.25584757869697 M594.8640106449999,174.25584757869697 L593.3466183006847,173.30235933554013 M593.3466183006847,173.30235933554013 L592.2824296268224,172.17465385758464 M592.2824296268224,172.17465385758464 L591.733181950071,170.93836442782208 M591.733181950071,170.93836442782208 L591.7306119437033,169.66538909883243 M591.7306119437033,169.66538909883243 L592.2746707875317,168.42971068080087 M592.2746707875317,168.42971068080087 L593.3335584272673,167.30308829275256 M593.3335584272673,167.30308829275256 L594.8456225992844,166.35090528336391 M594.8456225992844,166.35090528336391 L596.7229638494779,165.62838755031652 M596.7229638494779,165.62838755031652 L598.8565494198257,165.17742079642767 M598.8565494198257,165.17742079642767 L601.1225309095114,165.02413704292172 M601.2208554812213,127.5118731707451 L601.1536359762398,175.58503194488998 M601.1896104736144,116.97738347522471 L598.9185410034038,117.13028362384887 M598.9185410034038,117.13028362384887 L596.780166323627,117.58012185747691 M596.780166323627,117.58012185747691 L594.8986124898679,118.30083171570465 M594.8986124898679,118.30083171570465 L593.3831567596048,119.25063253694452 M593.3831567596048,119.25063253694452 L592.3218958009141,120.37443683869657 M592.3218958009141,120.37443683869657 L591.7766203196973,121.60702502703344 M591.7766203196973,121.60702502703344 L591.7792018866543,122.8768175582793 M591.7792018866543,122.8768175582793 L592.3296895497781,124.11001660066961 M592.3296895497781,124.11001660066961 L593.3962753871018,125.23490371049456 M593.3962753871018,125.23490371049456 L594.9170832612481,126.18600942860303 M594.9170832612481,126.18600942860303 L596.8037561588656,126.90794852516728 M596.8037561588656,126.90794852516728 L598.9465759253857,127.35865955990386 M598.9465759253857,127.35865955990386 L601.2208554812213,127.5118731707451 M663.66567093255,82.28619894697857 L663.4593077649449,130.24564819781102 M663.66567093255,82.28619894697857 L601.1896104736144,116.97738347522471 M663.4593077649449,130.24564819781102 L601.1225309095114,165.02413704292172 M672.8444989111673,125.00952945613955 L670.7467593512835,125.14074376458683 M670.7467593512835,125.14074376458683 L668.7566916575814,125.52782596272675 M668.7566916575814,125.52782596272675 L666.9739617499731,126.15142340569128 M666.9739617499731,126.15142340569128 L665.4878947400504,126.98034424025957 M665.4878947400504,126.98034424025957 L664.3730050769213,127.97311443322315 M664.3730050769213,127.97311443322315 L663.6852730335313,129.0800324815537 M663.6852730335313,129.0800324815537 L663.4593077649449,130.24564819781102 M713.1641698617505,102.51466691864618 L672.8444989111673,125.00952945613955 M672.3930367727177,80.11977577063175 L713.1641698617505,102.51466691864618 M560.3495924026746,142.35090511098213 L672.3930367727177,80.11977577063175 M541.4512670091889,142.35090511098213 L541.7221739908363,143.60780153291472 M541.7221739908363,143.60780153291472 L542.5266829565826,144.79193799851816 M542.5266829565826,144.79193799851816 L543.8181874386999,145.83442170932716 M543.8181874386999,145.83442170932716 L545.5217018976682,146.67456331028427 M545.5217018976682,146.67456331028427 L547.5382026240011,147.26342744122078 M547.5382026240011,147.26342744122078 L549.7503794253671,147.56669675408193 M549.7503794253671,147.56669675408193 L552.0294958533121,147.56669719719778 M552.0294958533121,147.56669719719778 L554.2428931145623,147.26342675954493 M554.2428931145623,147.26342675954493 L556.2617616901833,146.6745637874019 M556.2617616901833,146.6745637874019 L557.9686568316082,145.83442211821716 M557.9686568316082,145.83442211821716 L559.2643556350504,144.79193813478676 M559.2643556350504,144.79193813478676 L560.0736268190591,143.6078013966781 M560.0736268190591,143.6078013966781 L560.3495924026746,142.35090511098213 M510.29891140266477,125.0095272843568 L541.4512670091889,142.35090511098213 M510.29891140266477,125.0095272843568 L438.2070405414528,233.00283068562476 M438.2070405414528,233.00283068562476 L632.6189948234694,193.10064723614204 M601.1536359762398,175.58503194488998 L632.6189948234694,193.10064723614204 M632.7571912501658,144.98380313247912 L632.6189948234694,193.10064723614204 M601.2208554812213,127.5118731707451 L632.7571912501658,144.98380313247912 M673.0717487452898,77.06327069747306 L670.9693196296629,77.1941543113474 M670.9693196296629,77.1941543113474 L668.9748086535784,77.58026100484301 M668.9748086535784,77.58026100484301 L667.1881039838361,78.20228702882821 M667.1881039838361,78.20228702882821 L665.6987297368701,79.02911931076454 M665.6987297368701,79.02911931076454 L664.5813661969703,80.01938851500904 M664.5813661969703,80.01938851500904 L663.8921180151824,81.12351852650085 M663.8921180151824,81.12351852650085 L663.66567093255,82.28619894697857 M713.4809026420043,54.625213557448774 L673.0717487452898,77.06327069747306 M672.6182690785633,32.28709741215653 L713.4809026420043,54.625213557448774 M560.3251593619304,94.36100744889762 L672.6182690785633,32.28709741215653 M560.3251593619304,94.36100744889762 L560.0485722873898,95.6147459671584 M560.0485722873898,95.6147459671584 L559.2374843456583,96.79590837401406 M559.2374843456583,96.79590837401406 L557.9388784187336,97.8357743443093 M557.9388784187336,97.8357743443093 L556.2281544228848,98.67380649648044 M556.2281544228848,98.67380649648044 L554.2047578903953,99.26119107475449 M554.2047578903953,99.26119107475449 L551.9863972338327,99.56370018424855 M551.9863972338327,99.56370018424855 L549.7021712187225,99.56369974224498 M549.7021712187225,99.56369974224498 L547.4850364994684,99.26119175471888 M547.4850364994684,99.26119175471888 L545.4640184470552,98.67380602056068 M545.4640184470552,98.67380602056068 L543.7566903051644,97.835773936446 M543.7566903051644,97.835773936446 L542.4622975219701,96.79590823808775 M542.4622975219701,96.79590823808775 L541.6559931715921,95.61474610305288 M541.6559931715921,95.61474610305288 L541.3844873910865,94.36100744889762 M510.1625614934935,77.0632685311636 L541.3844873910865,94.36100744889762 M510.1625614934935,77.0632685311636 L437.9062386437512,184.78697349010122 M437.9062386437512,184.78697349010122 L632.7571912501658,144.98380313247912 M673.0717487452898,77.06327069747306 L672.8444989111673,125.00952945613955 M713.4809026420043,54.625213557448774 L713.1641698617505,102.51466691864618 M672.6182690785633,32.28709741215653 L672.3930367727177,80.11977577063175 M560.3251593619304,94.36100744889762 L560.3495924026746,142.35090511098213 M541.3844873910865,94.36100744889762 L541.4512670091889,142.35090511098213 M510.1625614934935,77.0632685311636 L510.29891140266477,125.0095272843568 M437.9062386437512,184.78697349010122 L438.2070405414528,233.00283068562476" stroke="black"  stroke-width="4"  fill="red"/></svg>